%FSLAX46Y46*%
G04 Gerber Fmt 4.6, Leading zero omitted, Abs format (unit mm)*
G04 Created by KiCad (PCBNEW (2014-08-26 BZR 5101)-product) date 5/11/2014 11:05:25 AM*
%MOMM*%
G01*
G04 APERTURE LIST*
%ADD10C,0.100000*%
%ADD11R,1.270000X2.540000*%
%ADD12R,2.540000X1.270000*%
G04 APERTURE END LIST*
D10*
D11*
X147024000Y-85500000D03*
X143976000Y-85500000D03*
X156476000Y-70000000D03*
X159524000Y-70000000D03*
X149024000Y-70000000D03*
X145976000Y-70000000D03*
D12*
X132500000Y-70024000D03*
X132500000Y-66976000D03*
X140000000Y-53976000D03*
X140000000Y-57024000D03*
D11*
X160476000Y-89500000D03*
X163524000Y-89500000D03*
D12*
X135500000Y-53976000D03*
X135500000Y-57024000D03*
D11*
X147024000Y-89500000D03*
X143976000Y-89500000D03*
X134976000Y-50000000D03*
X138024000Y-50000000D03*
D12*
X123500000Y-61524000D03*
X123500000Y-58476000D03*
X134500000Y-59976000D03*
X134500000Y-63024000D03*
D11*
X140476000Y-70000000D03*
X143524000Y-70000000D03*
D12*
X169500000Y-66476000D03*
X169500000Y-69524000D03*
X174000000Y-69524000D03*
X174000000Y-66476000D03*
D11*
X139524000Y-89500000D03*
X136476000Y-89500000D03*
X136476000Y-86000000D03*
X139524000Y-86000000D03*
X161476000Y-52000000D03*
X164524000Y-52000000D03*
D12*
X132000000Y-88524000D03*
X132000000Y-85476000D03*
D11*
X127524000Y-90500000D03*
X124476000Y-90500000D03*
X124476000Y-87000000D03*
X127524000Y-87000000D03*
M02*
