M48
;DRILL file {pcbnew (2014-08-26 BZR 5101)-product} date 5/11/2014 10:38:53 AM
;FORMAT={-:-/ absolute / inch / decimal}
FMAT,2
INCH,TZ
T1C0.025
T2C0.030
T3C0.032
T4C0.039
T5C0.040
T6C0.043
T7C0.045
%
G90
G05
M72
T1
X4.9646Y-3.4331
X4.9894Y-2.3925
X4.9902Y-2.2146
X5.1004Y-2.8189
X5.128Y-2.7087
X5.2539Y-3.0138
X5.2953Y-2.6142
X5.3622Y-2.7028
X5.3917Y-3.0138
X5.4311Y-3.4587
X5.4744Y-2.5492
X5.5177Y-2.0571
X5.5236Y-3.0551
X5.5315Y-2.8484
X5.563Y-2.4921
X5.5965Y-3.0079
X5.6496Y-2.8386
X5.6969Y-2.6831
X5.7087Y-3.0492
X5.7283Y-3.3878
X5.7303Y-3.0965
X5.7362Y-2.8406
X5.7795Y-2.4921
X5.7894Y-2.7441
X5.8091Y-3.0472
X5.811Y-3.0945
X5.8504Y-2.1752
X5.8504Y-3.0039
X5.8583Y-2.0591
X5.8681Y-2.4134
X5.9843Y-3.0079
X6.002Y-2.6181
X6.0768Y-3.0886
X6.2598Y-3.0118
X6.2717Y-2.6752
X6.2795Y-2.2185
X6.3169Y-1.9665
X6.3681Y-3.1535
X6.4094Y-2.1496
X6.5197Y-1.9606
X6.5453Y-2.0748
X6.5886Y-3.1535
X6.628Y-2.5551
X6.7303Y-2.5453
X6.7657Y-2.7539
X6.8445Y-2.811
X6.9291Y-3.2126
X6.9409Y-2.7382
X7.0177Y-1.9705
T2
X5.963Y-3.4252
X6.163Y-3.4252
T3
X4.9114Y-2.185
X4.9894Y-1.9579
X4.9894Y-2.3925
X5.0894Y-1.9579
X5.0894Y-2.0579
X5.0894Y-2.2925
X5.0894Y-2.3925
X5.2067Y-2.1752
X5.2161Y-2.9209
X5.2161Y-3.2209
X5.3161Y-2.9209
X5.3161Y-3.2209
X5.4134Y-2.3591
X5.4134Y-2.7591
X5.4161Y-2.9209
X5.4161Y-3.2209
X5.5161Y-2.9209
X5.5161Y-3.2209
X5.6161Y-2.9209
X5.6161Y-3.2209
X5.6398Y-2.185
X5.7161Y-2.9209
X5.7161Y-3.2209
X5.8161Y-2.9209
X5.8161Y-3.2209
X5.9161Y-2.9209
X5.9161Y-3.2209
X5.935Y-2.185
X6.0161Y-2.9209
X6.0161Y-3.2209
X6.1161Y-2.9209
X6.1161Y-3.2209
X6.2161Y-2.9209
X6.2161Y-3.2209
X6.3161Y-2.9209
X6.3161Y-3.2209
X6.4161Y-2.9209
X6.4161Y-3.2209
X6.5161Y-2.9209
X6.5161Y-3.2209
X7.0079Y-3.4173
X7.0079Y-3.5512
T4
X6.0039Y-2.3622
X6.0039Y-2.7622
T5
X4.8425Y-2.7059
X4.8425Y-2.8059
X5.0197Y-2.7059
X5.0197Y-2.8059
X5.1165Y-3.6614
X5.2165Y-3.6614
X5.3165Y-3.6614
X5.5102Y-3.6614
X5.539Y-2.6181
X5.6102Y-3.6614
X5.639Y-2.6181
X5.7102Y-3.6614
X5.739Y-2.6181
X5.839Y-2.6181
X5.872Y-3.6614
X5.972Y-3.6614
X6.072Y-3.6614
X6.172Y-3.6614
X6.272Y-3.6614
X6.3657Y-1.8701
X6.372Y-3.6614
X6.4657Y-1.8701
X6.5657Y-1.8701
X6.6657Y-1.8701
X6.7217Y-2.0744
X6.7217Y-2.1744
X6.7217Y-2.2744
X6.7217Y-2.3744
X6.761Y-2.9709
X6.761Y-3.0709
X6.761Y-3.1709
X6.8217Y-2.0744
X6.8217Y-2.1744
X6.8217Y-2.2744
X6.8217Y-2.3744
X6.8488Y-1.8701
X6.861Y-2.9709
X6.861Y-3.0709
X6.861Y-3.1709
X6.9488Y-1.8701
X7.0472Y-2.0744
X7.0472Y-2.1744
X7.0472Y-2.2744
X7.0472Y-2.3744
X7.0472Y-2.5772
X7.0472Y-2.6772
X7.0472Y-2.7772
X7.0472Y-2.9709
X7.0472Y-3.0709
X7.0472Y-3.1709
X7.0488Y-1.8701
T6
X6.6929Y-3.4232
X6.6929Y-3.5217
X6.6929Y-3.624
T7
X4.8327Y-3.0217
X4.8327Y-3.2776
X5.0098Y-3.0217
X5.0098Y-3.2776
T0
M30
