%FSLAX46Y46*%
G04 Gerber Fmt 4.6, Leading zero omitted, Abs format (unit mm)*
G04 Created by KiCad (PCBNEW (2014-08-26 BZR 5101)-product) date 5/11/2014 12:16:11 PM*
%MOMM*%
G01*
G04 APERTURE LIST*
%ADD10C,0.100000*%
%ADD11C,0.300000*%
%ADD12C,0.150000*%
%ADD13C,0.127000*%
%ADD14C,0.381000*%
%ADD15C,0.200000*%
G04 APERTURE END LIST*
D10*
D11*
X156214285Y-75978571D02*
X155857142Y-77478571D01*
X155571428Y-76407143D01*
X155285714Y-77478571D01*
X154928571Y-75978571D01*
X154357142Y-77478571D02*
X154357142Y-76478571D01*
X154357142Y-75978571D02*
X154428571Y-76050000D01*
X154357142Y-76121429D01*
X154285714Y-76050000D01*
X154357142Y-75978571D01*
X154357142Y-76121429D01*
X153642856Y-77478571D02*
X153642856Y-76478571D01*
X153642856Y-76764286D02*
X153571428Y-76621429D01*
X153499999Y-76550000D01*
X153357142Y-76478571D01*
X153214285Y-76478571D01*
X152142857Y-77407143D02*
X152285714Y-77478571D01*
X152571428Y-77478571D01*
X152714285Y-77407143D01*
X152785714Y-77264286D01*
X152785714Y-76692857D01*
X152714285Y-76550000D01*
X152571428Y-76478571D01*
X152285714Y-76478571D01*
X152142857Y-76550000D01*
X152071428Y-76692857D01*
X152071428Y-76835714D01*
X152785714Y-76978571D01*
X151214285Y-77478571D02*
X151357143Y-77407143D01*
X151428571Y-77264286D01*
X151428571Y-75978571D01*
X150071429Y-77407143D02*
X150214286Y-77478571D01*
X150500000Y-77478571D01*
X150642857Y-77407143D01*
X150714286Y-77264286D01*
X150714286Y-76692857D01*
X150642857Y-76550000D01*
X150500000Y-76478571D01*
X150214286Y-76478571D01*
X150071429Y-76550000D01*
X150000000Y-76692857D01*
X150000000Y-76835714D01*
X150714286Y-76978571D01*
X149428572Y-77407143D02*
X149285715Y-77478571D01*
X149000000Y-77478571D01*
X148857143Y-77407143D01*
X148785715Y-77264286D01*
X148785715Y-77192857D01*
X148857143Y-77050000D01*
X149000000Y-76978571D01*
X149214286Y-76978571D01*
X149357143Y-76907143D01*
X149428572Y-76764286D01*
X149428572Y-76692857D01*
X149357143Y-76550000D01*
X149214286Y-76478571D01*
X149000000Y-76478571D01*
X148857143Y-76550000D01*
X148214286Y-77407143D02*
X148071429Y-77478571D01*
X147785714Y-77478571D01*
X147642857Y-77407143D01*
X147571429Y-77264286D01*
X147571429Y-77192857D01*
X147642857Y-77050000D01*
X147785714Y-76978571D01*
X148000000Y-76978571D01*
X148142857Y-76907143D01*
X148214286Y-76764286D01*
X148214286Y-76692857D01*
X148142857Y-76550000D01*
X148000000Y-76478571D01*
X147785714Y-76478571D01*
X147642857Y-76550000D01*
X145857143Y-77407143D02*
X145642857Y-77478571D01*
X145285714Y-77478571D01*
X145142857Y-77407143D01*
X145071428Y-77335714D01*
X145000000Y-77192857D01*
X145000000Y-77050000D01*
X145071428Y-76907143D01*
X145142857Y-76835714D01*
X145285714Y-76764286D01*
X145571428Y-76692857D01*
X145714286Y-76621429D01*
X145785714Y-76550000D01*
X145857143Y-76407143D01*
X145857143Y-76264286D01*
X145785714Y-76121429D01*
X145714286Y-76050000D01*
X145571428Y-75978571D01*
X145214286Y-75978571D01*
X145000000Y-76050000D01*
X143785715Y-77407143D02*
X143928572Y-77478571D01*
X144214286Y-77478571D01*
X144357143Y-77407143D01*
X144428572Y-77264286D01*
X144428572Y-76692857D01*
X144357143Y-76550000D01*
X144214286Y-76478571D01*
X143928572Y-76478571D01*
X143785715Y-76550000D01*
X143714286Y-76692857D01*
X143714286Y-76835714D01*
X144428572Y-76978571D01*
X143071429Y-76478571D02*
X143071429Y-77478571D01*
X143071429Y-76621429D02*
X143000001Y-76550000D01*
X142857143Y-76478571D01*
X142642858Y-76478571D01*
X142500001Y-76550000D01*
X142428572Y-76692857D01*
X142428572Y-77478571D01*
X141785715Y-77407143D02*
X141642858Y-77478571D01*
X141357143Y-77478571D01*
X141214286Y-77407143D01*
X141142858Y-77264286D01*
X141142858Y-77192857D01*
X141214286Y-77050000D01*
X141357143Y-76978571D01*
X141571429Y-76978571D01*
X141714286Y-76907143D01*
X141785715Y-76764286D01*
X141785715Y-76692857D01*
X141714286Y-76550000D01*
X141571429Y-76478571D01*
X141357143Y-76478571D01*
X141214286Y-76550000D01*
X140285714Y-77478571D02*
X140428572Y-77407143D01*
X140500000Y-77335714D01*
X140571429Y-77192857D01*
X140571429Y-76764286D01*
X140500000Y-76621429D01*
X140428572Y-76550000D01*
X140285714Y-76478571D01*
X140071429Y-76478571D01*
X139928572Y-76550000D01*
X139857143Y-76621429D01*
X139785714Y-76764286D01*
X139785714Y-77192857D01*
X139857143Y-77335714D01*
X139928572Y-77407143D01*
X140071429Y-77478571D01*
X140285714Y-77478571D01*
X139142857Y-77478571D02*
X139142857Y-76478571D01*
X139142857Y-76764286D02*
X139071429Y-76621429D01*
X139000000Y-76550000D01*
X138857143Y-76478571D01*
X138714286Y-76478571D01*
X159357142Y-78735714D02*
X159500000Y-78664286D01*
X159785714Y-78664286D01*
X159928571Y-78735714D01*
X160071428Y-78878571D01*
X160142857Y-79021429D01*
X160142857Y-79307143D01*
X160071428Y-79450000D01*
X159928571Y-79592857D01*
X159785714Y-79664286D01*
X159500000Y-79664286D01*
X159357142Y-79592857D01*
X159642857Y-78164286D02*
X160000000Y-78235714D01*
X160357142Y-78450000D01*
X160571428Y-78807143D01*
X160642857Y-79164286D01*
X160571428Y-79521429D01*
X160357142Y-79878571D01*
X160000000Y-80092857D01*
X159642857Y-80164286D01*
X159285714Y-80092857D01*
X158928571Y-79878571D01*
X158714285Y-79521429D01*
X158642857Y-79164286D01*
X158714285Y-78807143D01*
X158928571Y-78450000D01*
X159285714Y-78235714D01*
X159642857Y-78164286D01*
X156928571Y-79807143D02*
X156714285Y-79878571D01*
X156357142Y-79878571D01*
X156214285Y-79807143D01*
X156142856Y-79735714D01*
X156071428Y-79592857D01*
X156071428Y-79450000D01*
X156142856Y-79307143D01*
X156214285Y-79235714D01*
X156357142Y-79164286D01*
X156642856Y-79092857D01*
X156785714Y-79021429D01*
X156857142Y-78950000D01*
X156928571Y-78807143D01*
X156928571Y-78664286D01*
X156857142Y-78521429D01*
X156785714Y-78450000D01*
X156642856Y-78378571D01*
X156285714Y-78378571D01*
X156071428Y-78450000D01*
X155428571Y-79878571D02*
X155428571Y-78878571D01*
X155428571Y-78378571D02*
X155500000Y-78450000D01*
X155428571Y-78521429D01*
X155357143Y-78450000D01*
X155428571Y-78378571D01*
X155428571Y-78521429D01*
X154714285Y-79878571D02*
X154714285Y-78878571D01*
X154714285Y-79021429D02*
X154642857Y-78950000D01*
X154499999Y-78878571D01*
X154285714Y-78878571D01*
X154142857Y-78950000D01*
X154071428Y-79092857D01*
X154071428Y-79878571D01*
X154071428Y-79092857D02*
X153999999Y-78950000D01*
X153857142Y-78878571D01*
X153642857Y-78878571D01*
X153499999Y-78950000D01*
X153428571Y-79092857D01*
X153428571Y-79878571D01*
X152499999Y-79878571D02*
X152642857Y-79807143D01*
X152714285Y-79735714D01*
X152785714Y-79592857D01*
X152785714Y-79164286D01*
X152714285Y-79021429D01*
X152642857Y-78950000D01*
X152499999Y-78878571D01*
X152285714Y-78878571D01*
X152142857Y-78950000D01*
X152071428Y-79021429D01*
X151999999Y-79164286D01*
X151999999Y-79592857D01*
X152071428Y-79735714D01*
X152142857Y-79807143D01*
X152285714Y-79878571D01*
X152499999Y-79878571D01*
X151357142Y-78878571D02*
X151357142Y-79878571D01*
X151357142Y-79021429D02*
X151285714Y-78950000D01*
X151142856Y-78878571D01*
X150928571Y-78878571D01*
X150785714Y-78950000D01*
X150714285Y-79092857D01*
X150714285Y-79878571D01*
X148928571Y-79450000D02*
X148214285Y-79450000D01*
X149071428Y-79878571D02*
X148571428Y-78378571D01*
X148071428Y-79878571D01*
X147571428Y-78878571D02*
X147571428Y-79878571D01*
X147571428Y-79021429D02*
X147500000Y-78950000D01*
X147357142Y-78878571D01*
X147142857Y-78878571D01*
X147000000Y-78950000D01*
X146928571Y-79092857D01*
X146928571Y-79878571D01*
X146428571Y-78878571D02*
X145857142Y-78878571D01*
X146214285Y-78378571D02*
X146214285Y-79664286D01*
X146142857Y-79807143D01*
X145999999Y-79878571D01*
X145857142Y-79878571D01*
X145142856Y-79878571D02*
X145285714Y-79807143D01*
X145357142Y-79735714D01*
X145428571Y-79592857D01*
X145428571Y-79164286D01*
X145357142Y-79021429D01*
X145285714Y-78950000D01*
X145142856Y-78878571D01*
X144928571Y-78878571D01*
X144785714Y-78950000D01*
X144714285Y-79021429D01*
X144642856Y-79164286D01*
X144642856Y-79592857D01*
X144714285Y-79735714D01*
X144785714Y-79807143D01*
X144928571Y-79878571D01*
X145142856Y-79878571D01*
X143999999Y-78878571D02*
X143999999Y-79878571D01*
X143999999Y-79021429D02*
X143928571Y-78950000D01*
X143785713Y-78878571D01*
X143571428Y-78878571D01*
X143428571Y-78950000D01*
X143357142Y-79092857D01*
X143357142Y-79878571D01*
X142642856Y-79878571D02*
X142642856Y-78878571D01*
X142642856Y-78378571D02*
X142714285Y-78450000D01*
X142642856Y-78521429D01*
X142571428Y-78450000D01*
X142642856Y-78378571D01*
X142642856Y-78521429D01*
X141714284Y-79878571D02*
X141857142Y-79807143D01*
X141928570Y-79735714D01*
X141999999Y-79592857D01*
X141999999Y-79164286D01*
X141928570Y-79021429D01*
X141857142Y-78950000D01*
X141714284Y-78878571D01*
X141499999Y-78878571D01*
X141357142Y-78950000D01*
X141285713Y-79021429D01*
X141214284Y-79164286D01*
X141214284Y-79592857D01*
X141285713Y-79735714D01*
X141357142Y-79807143D01*
X141499999Y-79878571D01*
X141714284Y-79878571D01*
X139499999Y-78521429D02*
X139428570Y-78450000D01*
X139285713Y-78378571D01*
X138928570Y-78378571D01*
X138785713Y-78450000D01*
X138714284Y-78521429D01*
X138642856Y-78664286D01*
X138642856Y-78807143D01*
X138714284Y-79021429D01*
X139571427Y-79878571D01*
X138642856Y-79878571D01*
X137714285Y-78378571D02*
X137571428Y-78378571D01*
X137428571Y-78450000D01*
X137357142Y-78521429D01*
X137285713Y-78664286D01*
X137214285Y-78950000D01*
X137214285Y-79307143D01*
X137285713Y-79592857D01*
X137357142Y-79735714D01*
X137428571Y-79807143D01*
X137571428Y-79878571D01*
X137714285Y-79878571D01*
X137857142Y-79807143D01*
X137928571Y-79735714D01*
X137999999Y-79592857D01*
X138071428Y-79307143D01*
X138071428Y-78950000D01*
X137999999Y-78664286D01*
X137928571Y-78521429D01*
X137857142Y-78450000D01*
X137714285Y-78378571D01*
X135785714Y-79878571D02*
X136642857Y-79878571D01*
X136214285Y-79878571D02*
X136214285Y-78378571D01*
X136357142Y-78592857D01*
X136500000Y-78735714D01*
X136642857Y-78807143D01*
X134500000Y-78878571D02*
X134500000Y-79878571D01*
X134857143Y-78307143D02*
X135214286Y-79378571D01*
X134285714Y-79378571D01*
D12*
X151250000Y-53750000D02*
X150250000Y-53750000D01*
X150750000Y-54250000D02*
X150750000Y-53000000D01*
X156000000Y-55500000D02*
G75*
G03X156000000Y-55500000I-9000000J0D01*
G74*
G01*
X131400000Y-52700000D02*
X133100000Y-52700000D01*
X132250000Y-53500000D02*
X132250000Y-51750000D01*
X137531196Y-55500000D02*
G75*
G03X137531196Y-55500000I-9031196J0D01*
G74*
G01*
D13*
X130766605Y-62976000D02*
G75*
G03X130766605Y-62976000I-179605J0D01*
G74*
G01*
X132238000Y-65897000D02*
X130714000Y-65897000D01*
X130714000Y-65897000D02*
X130714000Y-63103000D01*
X130714000Y-63103000D02*
X132238000Y-63103000D01*
X133762000Y-63103000D02*
X135286000Y-63103000D01*
X135286000Y-63103000D02*
X135286000Y-65897000D01*
X135286000Y-65897000D02*
X133762000Y-65897000D01*
D14*
X160999620Y-57000480D02*
X166900040Y-62900900D01*
X166600320Y-61600420D02*
X166099940Y-61100040D01*
X162000380Y-60000220D02*
X162300100Y-60299940D01*
X163999360Y-62999960D02*
X163801240Y-62799300D01*
X165000120Y-58001240D02*
X164799460Y-57800580D01*
X165500500Y-58499080D02*
X165899280Y-58900400D01*
X164499740Y-58499080D02*
X164200020Y-58199360D01*
X163498980Y-58499080D02*
X163001140Y-58001240D01*
X161500000Y-56500100D02*
X161299340Y-56299440D01*
X160999620Y-57000480D02*
X160699900Y-56700760D01*
X160999620Y-58001240D02*
X160499240Y-57500860D01*
X159501020Y-58499080D02*
X159399420Y-58400020D01*
X160499240Y-58499080D02*
X160100460Y-58100300D01*
X157999880Y-58001240D02*
X157700160Y-57698980D01*
X157499500Y-58499080D02*
X157199780Y-58199360D01*
X165500500Y-63500340D02*
X165800220Y-63800060D01*
X163999360Y-61999200D02*
X163699640Y-61699480D01*
X166099940Y-65999700D02*
X166300600Y-66200360D01*
X163999360Y-64000720D02*
X163498980Y-63500340D01*
X165500500Y-66500080D02*
X165701160Y-66700740D01*
X163498980Y-64501100D02*
X163001140Y-64000720D01*
X163498980Y-65499320D02*
X163100200Y-65100540D01*
X157999880Y-61000980D02*
X157499500Y-60500600D01*
X157499500Y-61498820D02*
X157199780Y-61199100D01*
X157999880Y-64998940D02*
X157601100Y-64600160D01*
X156000900Y-61999200D02*
X155599580Y-61600420D01*
X157499500Y-65499320D02*
X158500260Y-66500080D01*
X157999880Y-64998940D02*
X159000640Y-65999700D01*
X156000900Y-61999200D02*
X159998860Y-65999700D01*
X156498740Y-61498820D02*
X159998860Y-64998940D01*
X157499500Y-61498820D02*
X160499240Y-64501100D01*
X163498980Y-65499320D02*
X163999360Y-65999700D01*
X163498980Y-64501100D02*
X165500500Y-66500080D01*
X163999360Y-64000720D02*
X166000880Y-65999700D01*
X163999360Y-62999960D02*
X165500500Y-64501100D01*
X163999360Y-61999200D02*
X165500500Y-63500340D01*
X161500000Y-56500100D02*
X162500760Y-57500860D01*
X165000120Y-58001240D02*
X165500500Y-58499080D01*
X164499740Y-58499080D02*
X165500500Y-59499840D01*
X166501260Y-61498820D02*
X167499480Y-62499580D01*
X163498980Y-58499080D02*
X166000880Y-61000980D01*
X160999620Y-58001240D02*
X166000880Y-62999960D01*
X157999880Y-61000980D02*
X159501020Y-62499580D01*
X157999880Y-60000220D02*
X159501020Y-61498820D01*
X160499240Y-58499080D02*
X162000380Y-60000220D01*
X157499500Y-58499080D02*
X159998860Y-61000980D01*
X157999880Y-58001240D02*
X160499240Y-60500600D01*
X159501020Y-58499080D02*
X160999620Y-60000220D01*
X156699400Y-70299920D02*
X156699400Y-70899360D01*
X158200540Y-69200100D02*
X157400440Y-72499560D01*
X157400440Y-72499560D02*
X157199780Y-72499560D01*
X157199780Y-72499560D02*
X156801000Y-71100020D01*
X156801000Y-71100020D02*
X156699400Y-71100020D01*
X156699400Y-71100020D02*
X156199020Y-72499560D01*
X156199020Y-72499560D02*
X156099960Y-72499560D01*
X156099960Y-72499560D02*
X155299860Y-69299160D01*
X155299860Y-69299160D02*
X155500520Y-69299160D01*
X155500520Y-69299160D02*
X156199020Y-71900120D01*
X156199020Y-71900120D02*
X156600340Y-70099260D01*
X156600340Y-70099260D02*
X156801000Y-70099260D01*
X156801000Y-70099260D02*
X157400440Y-71900120D01*
X157400440Y-71900120D02*
X157999880Y-69200100D01*
X157999880Y-69200100D02*
X158200540Y-69200100D01*
X160900560Y-70701240D02*
X159399420Y-70701240D01*
X159399420Y-70701240D02*
X159399420Y-70899360D01*
X159399420Y-70899360D02*
X160798960Y-70899360D01*
X159300360Y-69299160D02*
X159300360Y-72499560D01*
X159300360Y-72499560D02*
X159099700Y-72499560D01*
X159099700Y-72499560D02*
X159099700Y-69299160D01*
X159099700Y-69299160D02*
X159300360Y-69299160D01*
X160798960Y-69200100D02*
X160900560Y-69200100D01*
X160999620Y-69200100D02*
X160999620Y-72499560D01*
X160999620Y-72499560D02*
X160798960Y-72499560D01*
X160798960Y-72499560D02*
X160798960Y-69200100D01*
X161898780Y-69499820D02*
X162000380Y-69400760D01*
X162000380Y-69400760D02*
X162399160Y-69299160D01*
X162399160Y-69299160D02*
X162899540Y-69200100D01*
X162899540Y-69200100D02*
X163600580Y-69400760D01*
X163600580Y-69400760D02*
X163900300Y-69700480D01*
X163900300Y-69700480D02*
X163999360Y-70200860D01*
X163999360Y-70200860D02*
X163900300Y-70599640D01*
X163900300Y-70599640D02*
X163498980Y-70899360D01*
X163498980Y-70899360D02*
X163001140Y-71100020D01*
X163001140Y-71100020D02*
X162599820Y-71199080D01*
X162599820Y-71199080D02*
X162399160Y-71399740D01*
X162399160Y-71399740D02*
X162300100Y-71699460D01*
X162300100Y-71699460D02*
X162399160Y-71999180D01*
X162399160Y-71999180D02*
X162698880Y-72199840D01*
X162698880Y-72199840D02*
X163100200Y-72199840D01*
X163100200Y-72199840D02*
X163600580Y-72199840D01*
X163600580Y-72199840D02*
X163900300Y-72100780D01*
X163900300Y-72100780D02*
X164100960Y-72199840D01*
X164100960Y-72199840D02*
X163801240Y-72400500D01*
X163801240Y-72400500D02*
X163199260Y-72499560D01*
X163199260Y-72499560D02*
X162599820Y-72499560D01*
X162599820Y-72499560D02*
X162201040Y-72199840D01*
X162201040Y-72199840D02*
X162099440Y-71699460D01*
X162099440Y-71699460D02*
X162099440Y-71399740D01*
X162099440Y-71399740D02*
X162300100Y-71100020D01*
X162300100Y-71100020D02*
X162800480Y-70899360D01*
X162800480Y-70899360D02*
X163300860Y-70701240D01*
X163300860Y-70701240D02*
X163699640Y-70398980D01*
X163699640Y-70398980D02*
X163801240Y-70099260D01*
X163801240Y-70099260D02*
X163600580Y-69799540D01*
X163600580Y-69799540D02*
X163199260Y-69499820D01*
X163199260Y-69499820D02*
X162599820Y-69499820D01*
X162599820Y-69499820D02*
X162201040Y-69598880D01*
X162201040Y-69598880D02*
X161898780Y-69700480D01*
X166000880Y-69598880D02*
X166300600Y-69598880D01*
X166300600Y-69598880D02*
X166699380Y-69901140D01*
X166699380Y-69901140D02*
X166800980Y-70398980D01*
X166800980Y-70398980D02*
X166800980Y-71199080D01*
X166800980Y-71199080D02*
X166699380Y-71699460D01*
X166699380Y-71699460D02*
X166501260Y-71999180D01*
X166501260Y-71999180D02*
X166099940Y-72199840D01*
X166099940Y-72199840D02*
X165701160Y-72199840D01*
X165701160Y-72199840D02*
X165299840Y-71900120D01*
X165299840Y-71900120D02*
X165099180Y-71199080D01*
X165099180Y-71199080D02*
X165099180Y-70398980D01*
X165099180Y-70398980D02*
X165299840Y-70000200D01*
X165299840Y-70000200D02*
X165500500Y-69799540D01*
X165500500Y-69799540D02*
X165899280Y-69598880D01*
X166000880Y-69299160D02*
X166399660Y-69400760D01*
X166399660Y-69400760D02*
X166699380Y-69499820D01*
X166699380Y-69499820D02*
X166999100Y-70000200D01*
X166999100Y-70000200D02*
X167100700Y-70599640D01*
X167100700Y-70599640D02*
X166999100Y-71699460D01*
X166999100Y-71699460D02*
X166699380Y-72298900D01*
X166699380Y-72298900D02*
X166099940Y-72499560D01*
X166099940Y-72499560D02*
X165398900Y-72400500D01*
X165398900Y-72400500D02*
X165000120Y-71801060D01*
X165000120Y-71801060D02*
X164901060Y-71100020D01*
X164901060Y-71100020D02*
X164901060Y-70398980D01*
X164901060Y-70398980D02*
X165099180Y-69799540D01*
X165099180Y-69799540D02*
X165500500Y-69400760D01*
X165500500Y-69400760D02*
X166000880Y-69299160D01*
X162599820Y-64201380D02*
X163100200Y-63800060D01*
X163100200Y-63800060D02*
X163498980Y-63299680D01*
X163498980Y-63299680D02*
X163699640Y-62799300D01*
X163699640Y-62799300D02*
X163699640Y-62100800D01*
X163699640Y-62100800D02*
X163598040Y-61501360D01*
X163598040Y-61501360D02*
X163199260Y-60899380D01*
X163199260Y-60899380D02*
X162399160Y-60299940D01*
X162399160Y-60299940D02*
X161599060Y-60200880D01*
X161599060Y-60200880D02*
X160898020Y-60200880D01*
X160898020Y-60200880D02*
X160199520Y-60701260D01*
X160199520Y-60701260D02*
X159699140Y-61399760D01*
X159699140Y-61399760D02*
X159498480Y-61999200D01*
X159498480Y-61999200D02*
X159498480Y-62700240D01*
X159498480Y-62700240D02*
X159798200Y-63500340D01*
X159798200Y-63500340D02*
X160298580Y-64000720D01*
X160298580Y-64000720D02*
X160598300Y-64201380D01*
X160598300Y-64300440D02*
X159849000Y-66550880D01*
X159849000Y-66550880D02*
X158998100Y-66101300D01*
X158998100Y-66101300D02*
X157700160Y-67099520D01*
X157700160Y-67099520D02*
X156699400Y-65999700D01*
X156699400Y-65999700D02*
X157598560Y-64699220D01*
X157598560Y-64699220D02*
X157098180Y-63401280D01*
X157098180Y-63401280D02*
X157098180Y-63200620D01*
X157098180Y-63200620D02*
X155497980Y-62900900D01*
X155497980Y-62900900D02*
X155497980Y-61399760D01*
X155497980Y-61399760D02*
X157098180Y-61201640D01*
X157098180Y-61201640D02*
X157700160Y-59799560D01*
X157700160Y-59799560D02*
X156798460Y-58400020D01*
X156798460Y-58400020D02*
X157898280Y-57399260D01*
X157898280Y-57399260D02*
X159198760Y-58300960D01*
X159198760Y-58300960D02*
X160400180Y-57800580D01*
X160400180Y-57800580D02*
X160798960Y-56200380D01*
X160798960Y-56200380D02*
X162300100Y-56200380D01*
X162300100Y-56200380D02*
X162599820Y-57800580D01*
X162599820Y-57800580D02*
X163900300Y-58300960D01*
X163900300Y-58300960D02*
X165299840Y-57300200D01*
X165299840Y-57300200D02*
X166399660Y-58400020D01*
X166399660Y-58400020D02*
X165398900Y-59700500D01*
X165398900Y-59700500D02*
X166099940Y-61201640D01*
X166099940Y-61201640D02*
X167700140Y-61399760D01*
X167700140Y-61399760D02*
X167799200Y-62799300D01*
X167799200Y-62799300D02*
X166199000Y-63101560D01*
X166199000Y-63101560D02*
X165599560Y-64699220D01*
X165599560Y-64699220D02*
X166498720Y-65999700D01*
X166498720Y-65999700D02*
X165497960Y-67099520D01*
X165497960Y-67099520D02*
X164200020Y-66200360D01*
X164200020Y-66200360D02*
X163498980Y-66500080D01*
X163498980Y-66500080D02*
X162599820Y-64201380D01*
D15*
X147133333Y-55785714D02*
X147171428Y-55823810D01*
X147285714Y-55861905D01*
X147361904Y-55861905D01*
X147476190Y-55823810D01*
X147552381Y-55747619D01*
X147590476Y-55671429D01*
X147628571Y-55519048D01*
X147628571Y-55404762D01*
X147590476Y-55252381D01*
X147552381Y-55176190D01*
X147476190Y-55100000D01*
X147361904Y-55061905D01*
X147285714Y-55061905D01*
X147171428Y-55100000D01*
X147133333Y-55138095D01*
X146447619Y-55061905D02*
X146600000Y-55061905D01*
X146676190Y-55100000D01*
X146714285Y-55138095D01*
X146790476Y-55252381D01*
X146828571Y-55404762D01*
X146828571Y-55709524D01*
X146790476Y-55785714D01*
X146752381Y-55823810D01*
X146676190Y-55861905D01*
X146523809Y-55861905D01*
X146447619Y-55823810D01*
X146409523Y-55785714D01*
X146371428Y-55709524D01*
X146371428Y-55519048D01*
X146409523Y-55442857D01*
X146447619Y-55404762D01*
X146523809Y-55366667D01*
X146676190Y-55366667D01*
X146752381Y-55404762D01*
X146790476Y-55442857D01*
X146828571Y-55519048D01*
X128633333Y-55785714D02*
X128671428Y-55823810D01*
X128785714Y-55861905D01*
X128861904Y-55861905D01*
X128976190Y-55823810D01*
X129052381Y-55747619D01*
X129090476Y-55671429D01*
X129128571Y-55519048D01*
X129128571Y-55404762D01*
X129090476Y-55252381D01*
X129052381Y-55176190D01*
X128976190Y-55100000D01*
X128861904Y-55061905D01*
X128785714Y-55061905D01*
X128671428Y-55100000D01*
X128633333Y-55138095D01*
X128366666Y-55061905D02*
X127833333Y-55061905D01*
X128176190Y-55861905D01*
D13*
X133489857Y-65280143D02*
X133526143Y-65316429D01*
X133635000Y-65352714D01*
X133707571Y-65352714D01*
X133816428Y-65316429D01*
X133889000Y-65243857D01*
X133925285Y-65171286D01*
X133961571Y-65026143D01*
X133961571Y-64917286D01*
X133925285Y-64772143D01*
X133889000Y-64699571D01*
X133816428Y-64627000D01*
X133707571Y-64590714D01*
X133635000Y-64590714D01*
X133526143Y-64627000D01*
X133489857Y-64663286D01*
X132764143Y-65352714D02*
X133199571Y-65352714D01*
X132981857Y-65352714D02*
X132981857Y-64590714D01*
X133054428Y-64699571D01*
X133127000Y-64772143D01*
X133199571Y-64808429D01*
X132038429Y-65352714D02*
X132473857Y-65352714D01*
X132256143Y-65352714D02*
X132256143Y-64590714D01*
X132328714Y-64699571D01*
X132401286Y-64772143D01*
X132473857Y-64808429D01*
X134251857Y-63574714D02*
X134179285Y-63574714D01*
X134106714Y-63611000D01*
X134070428Y-63647286D01*
X134034142Y-63719857D01*
X133997857Y-63865000D01*
X133997857Y-64046429D01*
X134034142Y-64191571D01*
X134070428Y-64264143D01*
X134106714Y-64300429D01*
X134179285Y-64336714D01*
X134251857Y-64336714D01*
X134324428Y-64300429D01*
X134360714Y-64264143D01*
X134396999Y-64191571D01*
X134433285Y-64046429D01*
X134433285Y-63865000D01*
X134396999Y-63719857D01*
X134360714Y-63647286D01*
X134324428Y-63611000D01*
X134251857Y-63574714D01*
X133671285Y-64264143D02*
X133635000Y-64300429D01*
X133671285Y-64336714D01*
X133707571Y-64300429D01*
X133671285Y-64264143D01*
X133671285Y-64336714D01*
X132909286Y-64336714D02*
X133344714Y-64336714D01*
X133127000Y-64336714D02*
X133127000Y-63574714D01*
X133199571Y-63683571D01*
X133272143Y-63756143D01*
X133344714Y-63792429D01*
X132256143Y-63828714D02*
X132256143Y-64336714D01*
X132582714Y-63828714D02*
X132582714Y-64227857D01*
X132546429Y-64300429D01*
X132473857Y-64336714D01*
X132365000Y-64336714D01*
X132292429Y-64300429D01*
X132256143Y-64264143D01*
X131639285Y-63937571D02*
X131893285Y-63937571D01*
X131893285Y-64336714D02*
X131893285Y-63574714D01*
X131530428Y-63574714D01*
M02*
