%FSLAX46Y46*%
G04 Gerber Fmt 4.6, Leading zero omitted, Abs format (unit mm)*
G04 Created by KiCad (PCBNEW (2014-08-26 BZR 5101)-product) date 5/11/2014 12:16:11 PM*
%MOMM*%
G01*
G04 APERTURE LIST*
%ADD10C,0.100000*%
%ADD11C,4.064000*%
%ADD12R,1.727200X1.727200*%
%ADD13O,1.727200X1.727200*%
%ADD14C,1.700000*%
%ADD15C,1.397000*%
%ADD16R,1.397000X1.397000*%
%ADD17O,1.700000X2.000000*%
%ADD18R,1.727200X2.032000*%
%ADD19O,1.727200X2.032000*%
%ADD20C,2.540000*%
%ADD21R,1.270000X2.540000*%
%ADD22O,1.574800X2.286000*%
%ADD23R,1.574800X2.286000*%
%ADD24C,1.998980*%
%ADD25R,2.032000X2.032000*%
%ADD26O,2.032000X2.032000*%
%ADD27R,2.032000X1.727200*%
%ADD28O,2.032000X1.727200*%
%ADD29C,1.422400*%
%ADD30C,0.889000*%
%ADD31C,0.500000*%
%ADD32C,1.000000*%
%ADD33C,0.300000*%
%ADD34C,0.900000*%
%ADD35C,0.254000*%
G04 APERTURE END LIST*
D10*
D11*
X124000000Y-48000000D03*
X157500000Y-48000000D03*
X174500000Y-92500000D03*
D12*
X173270000Y-60310000D03*
D13*
X170730000Y-60310000D03*
X173270000Y-57770000D03*
X170730000Y-57770000D03*
X173270000Y-55230000D03*
X170730000Y-55230000D03*
X173270000Y-52690000D03*
X170730000Y-52690000D03*
D14*
X170000000Y-92050000D03*
X170000000Y-86950000D03*
X170000000Y-89450000D03*
D15*
X178000000Y-86800000D03*
X178000000Y-90200000D03*
D16*
X150750000Y-55500000D03*
D15*
X143250000Y-55500000D03*
D16*
X132250000Y-55250000D03*
D15*
X124750000Y-55500000D03*
D17*
X140690000Y-66500000D03*
D18*
X143230000Y-66500000D03*
D19*
X145770000Y-66500000D03*
X148310000Y-66500000D03*
D20*
X122750000Y-76750000D03*
X127250000Y-83250000D03*
X127250000Y-76750000D03*
X122750000Y-83250000D03*
D16*
X137500000Y-70080000D03*
D15*
X137500000Y-59920000D03*
D21*
X131476000Y-64500000D03*
X134524000Y-64500000D03*
D22*
X135030000Y-81810000D03*
X137570000Y-81810000D03*
X140110000Y-81810000D03*
X142650000Y-81810000D03*
X145190000Y-81810000D03*
X147730000Y-81810000D03*
X150270000Y-81810000D03*
X152810000Y-81810000D03*
X155350000Y-81810000D03*
X157890000Y-81810000D03*
X160430000Y-81810000D03*
X162970000Y-81810000D03*
X165510000Y-81810000D03*
D23*
X132490000Y-81810000D03*
D22*
X165510000Y-74190000D03*
X162970000Y-74190000D03*
X160430000Y-74190000D03*
X157890000Y-74190000D03*
X155350000Y-74190000D03*
X152810000Y-74190000D03*
X150270000Y-74190000D03*
X147730000Y-74190000D03*
X145190000Y-74190000D03*
X142650000Y-74190000D03*
X140110000Y-74190000D03*
X137570000Y-74190000D03*
X135030000Y-74190000D03*
X132490000Y-74190000D03*
D24*
X152500000Y-59998740D03*
X152500000Y-70158740D03*
D25*
X123000000Y-71270000D03*
D26*
X123000000Y-68730000D03*
D12*
X127500000Y-68730000D03*
D13*
X127500000Y-71270000D03*
D27*
X179000000Y-80540000D03*
D28*
X179000000Y-78000000D03*
X179000000Y-75460000D03*
D27*
X179000000Y-70540000D03*
D28*
X179000000Y-68000000D03*
X179000000Y-65460000D03*
D18*
X161850000Y-93000000D03*
D19*
X159310000Y-93000000D03*
X156770000Y-93000000D03*
X154230000Y-93000000D03*
X151690000Y-93000000D03*
X149150000Y-93000000D03*
D27*
X179000000Y-60310000D03*
D28*
X179000000Y-57770000D03*
X179000000Y-55230000D03*
X179000000Y-52690000D03*
D18*
X173960000Y-47500000D03*
D19*
X176500000Y-47500000D03*
X179040000Y-47500000D03*
D12*
X171730000Y-75460000D03*
D13*
X174270000Y-75460000D03*
X171730000Y-78000000D03*
X174270000Y-78000000D03*
X171730000Y-80540000D03*
X174270000Y-80540000D03*
D18*
X161690000Y-47500000D03*
D19*
X164230000Y-47500000D03*
X166770000Y-47500000D03*
X169310000Y-47500000D03*
D18*
X139960000Y-93000000D03*
D19*
X142500000Y-93000000D03*
X145040000Y-93000000D03*
D18*
X129960000Y-93000000D03*
D19*
X132500000Y-93000000D03*
X135040000Y-93000000D03*
D16*
X129270000Y-52270000D03*
D15*
X129270000Y-49730000D03*
X126730000Y-49730000D03*
X126730000Y-60770000D03*
D16*
X129270000Y-60770000D03*
D15*
X129270000Y-58230000D03*
D29*
X156540000Y-87000000D03*
X151460000Y-87000000D03*
D30*
X173850000Y-71400000D03*
X145500000Y-86050000D03*
X137950000Y-87850000D03*
X159300000Y-67950000D03*
X147050000Y-69700000D03*
X126100000Y-87200000D03*
X134500000Y-66400000D03*
X144700000Y-68150000D03*
X176000000Y-81600000D03*
X176300000Y-69550000D03*
X167350000Y-80100000D03*
X168350000Y-64900000D03*
X161750000Y-80100000D03*
X152000000Y-76400000D03*
X148600000Y-76300000D03*
X145700000Y-72150000D03*
X143500000Y-72100000D03*
X140500000Y-72350000D03*
X159000000Y-76500000D03*
X154350000Y-78450000D03*
X147600000Y-78600000D03*
X145550000Y-78650000D03*
X152450000Y-66500000D03*
X171850000Y-69950000D03*
X170950000Y-64650000D03*
X142150000Y-76400000D03*
X130250000Y-68800000D03*
X129550000Y-71600000D03*
X133450000Y-76550000D03*
X136950000Y-76550000D03*
X140300000Y-77600000D03*
X147550000Y-77400000D03*
X145000000Y-77450000D03*
X149050000Y-61300000D03*
X148600000Y-55250000D03*
X148800000Y-52300000D03*
X160450000Y-49950000D03*
X165600000Y-49800000D03*
X136200000Y-68650000D03*
X159500000Y-56350000D03*
X178250000Y-50050000D03*
X166250000Y-52700000D03*
X162800000Y-54600000D03*
X146800000Y-63300000D03*
X139050000Y-64750000D03*
X126750000Y-56250000D03*
X126730000Y-60770000D03*
X141300000Y-63300000D03*
X140150000Y-52250000D03*
D31*
X174270000Y-75460000D02*
X174270000Y-71820000D01*
X174270000Y-71820000D02*
X173850000Y-71400000D01*
D32*
X127500000Y-71270000D02*
X127500000Y-72050000D01*
X127500000Y-71270000D02*
X127500000Y-72050000D01*
X127500000Y-72050000D02*
X129050000Y-73600000D01*
X129400000Y-73600000D02*
X131730000Y-71270000D01*
X129050000Y-73600000D02*
X129400000Y-73600000D01*
D33*
X139750000Y-86050000D02*
X145500000Y-86050000D01*
X137950000Y-87850000D02*
X139750000Y-86050000D01*
D32*
X131730000Y-71270000D02*
X136500000Y-66500000D01*
X136500000Y-66500000D02*
X140690000Y-66500000D01*
X132250000Y-63726000D02*
X131476000Y-64500000D01*
X132250000Y-55250000D02*
X132250000Y-63726000D01*
X131476000Y-71270000D02*
X131730000Y-71270000D01*
X131476000Y-64500000D02*
X131476000Y-71270000D01*
D34*
X170730000Y-61630000D02*
X171750000Y-62650000D01*
X171750000Y-62650000D02*
X175100000Y-62650000D01*
X175100000Y-62650000D02*
X176250000Y-61500000D01*
X176250000Y-61500000D02*
X176250000Y-53350000D01*
X176250000Y-53350000D02*
X176910000Y-52690000D01*
X176910000Y-52690000D02*
X179000000Y-52690000D01*
X170730000Y-60310000D02*
X170730000Y-61630000D01*
D33*
X147730000Y-70380000D02*
X147730000Y-74190000D01*
X147050000Y-69700000D02*
X147730000Y-70380000D01*
D31*
X154230000Y-93000000D02*
X154230000Y-92880000D01*
X154230000Y-92880000D02*
X152650000Y-91300000D01*
X152650000Y-91300000D02*
X145150000Y-91300000D01*
X145150000Y-91300000D02*
X144150000Y-90300000D01*
X144150000Y-90300000D02*
X137200000Y-90300000D01*
X137200000Y-90300000D02*
X135400000Y-88500000D01*
X135400000Y-88500000D02*
X135400000Y-86700000D01*
X135400000Y-86700000D02*
X136500000Y-85600000D01*
X136500000Y-85600000D02*
X136500000Y-83280000D01*
X136500000Y-83280000D02*
X135030000Y-81810000D01*
X137570000Y-81810000D02*
X137570000Y-86180000D01*
X154220000Y-90450000D02*
X156770000Y-93000000D01*
X145800000Y-90450000D02*
X154220000Y-90450000D01*
X144750000Y-89400000D02*
X145800000Y-90450000D01*
X137600000Y-89400000D02*
X144750000Y-89400000D01*
X136550000Y-88350000D02*
X137600000Y-89400000D01*
X136550000Y-87200000D02*
X136550000Y-88350000D01*
X137570000Y-86180000D02*
X136550000Y-87200000D01*
D33*
X143950000Y-72850000D02*
X143950000Y-80400000D01*
X144750000Y-72050000D02*
X143950000Y-72850000D01*
X144750000Y-68200000D02*
X144750000Y-72050000D01*
X144700000Y-68150000D02*
X144750000Y-68200000D01*
X143950000Y-80570000D02*
X145190000Y-81810000D01*
X143950000Y-80400000D02*
X143950000Y-80570000D01*
X176000000Y-81600000D02*
X176300000Y-81300000D01*
X176300000Y-81300000D02*
X176300000Y-69550000D01*
X167450000Y-61050000D02*
X170730000Y-57770000D01*
X167450000Y-80000000D02*
X167450000Y-61050000D01*
X167350000Y-80100000D02*
X167450000Y-80000000D01*
X168350000Y-71550000D02*
X168350000Y-64900000D01*
X168350000Y-81250000D02*
X167790000Y-81810000D01*
X167790000Y-81810000D02*
X165510000Y-81810000D01*
X168350000Y-71550000D02*
X168350000Y-81250000D01*
X161750000Y-80100000D02*
X161300000Y-79650000D01*
X161300000Y-79650000D02*
X156300000Y-79650000D01*
X153800000Y-79650000D02*
X156300000Y-79650000D01*
X153200000Y-79050000D02*
X153800000Y-79650000D01*
X153200000Y-77600000D02*
X153200000Y-79050000D01*
X152000000Y-76400000D02*
X153200000Y-77600000D01*
X146750000Y-76300000D02*
X148600000Y-76300000D01*
X146450000Y-76000000D02*
X146750000Y-76300000D01*
X146450000Y-72900000D02*
X146450000Y-76000000D01*
X145700000Y-72150000D02*
X146450000Y-72900000D01*
X140750000Y-72100000D02*
X143500000Y-72100000D01*
X140500000Y-72350000D02*
X140750000Y-72100000D01*
X156300000Y-76500000D02*
X159000000Y-76500000D01*
X154350000Y-78450000D02*
X156300000Y-76500000D01*
X145600000Y-78600000D02*
X147600000Y-78600000D01*
X145550000Y-78650000D02*
X145600000Y-78600000D01*
X162650000Y-73870000D02*
X162970000Y-74190000D01*
X152450000Y-66500000D02*
X160650000Y-66500000D01*
X160650000Y-66500000D02*
X162650000Y-68500000D01*
X162650000Y-68500000D02*
X162650000Y-73870000D01*
X171730000Y-70070000D02*
X171850000Y-69950000D01*
X171730000Y-75460000D02*
X171730000Y-70070000D01*
X170400000Y-76670000D02*
X171730000Y-78000000D01*
X170400000Y-65200000D02*
X170400000Y-76670000D01*
X170950000Y-64650000D02*
X170400000Y-65200000D01*
X130250000Y-68800000D02*
X130250000Y-70900000D01*
X130250000Y-70900000D02*
X129550000Y-71600000D01*
X133450000Y-76550000D02*
X136950000Y-76550000D01*
X140300000Y-77600000D02*
X141500000Y-76400000D01*
X141500000Y-76400000D02*
X142150000Y-76400000D01*
X145050000Y-77400000D02*
X147550000Y-77400000D01*
X145000000Y-77450000D02*
X145050000Y-77400000D01*
X137570000Y-74190000D02*
X137570000Y-73280000D01*
X137570000Y-73280000D02*
X141900000Y-68950000D01*
X141900000Y-68950000D02*
X141900000Y-65400000D01*
X141900000Y-65400000D02*
X142400000Y-64900000D01*
X142400000Y-64900000D02*
X143300000Y-64900000D01*
X143300000Y-64900000D02*
X144000000Y-64200000D01*
X144000000Y-64200000D02*
X147650000Y-64200000D01*
X147650000Y-64200000D02*
X149050000Y-62800000D01*
X149050000Y-62800000D02*
X149050000Y-61300000D01*
X148600000Y-55250000D02*
X148800000Y-55050000D01*
X148800000Y-55050000D02*
X148800000Y-52300000D01*
X160450000Y-49950000D02*
X160600000Y-49800000D01*
X160600000Y-49800000D02*
X165600000Y-49800000D01*
X175450000Y-49700000D02*
X178000000Y-49700000D01*
X135030000Y-73020000D02*
X136200000Y-71850000D01*
X136200000Y-71850000D02*
X136200000Y-68650000D01*
X159500000Y-56350000D02*
X159600000Y-56250000D01*
X159600000Y-56250000D02*
X166400000Y-56250000D01*
X166400000Y-56250000D02*
X168800000Y-53850000D01*
X168800000Y-53850000D02*
X168800000Y-50950000D01*
X168800000Y-50950000D02*
X170050000Y-49700000D01*
X170050000Y-49700000D02*
X175450000Y-49700000D01*
X135030000Y-74190000D02*
X135030000Y-73020000D01*
X178000000Y-49800000D02*
X178250000Y-50050000D01*
X178000000Y-49700000D02*
X178000000Y-49800000D01*
X166250000Y-52700000D02*
X164350000Y-54600000D01*
X164350000Y-54600000D02*
X162800000Y-54600000D01*
X146800000Y-63300000D02*
X146700000Y-63400000D01*
X146700000Y-63400000D02*
X143750000Y-63400000D01*
X143750000Y-63400000D02*
X142800000Y-64350000D01*
X139450000Y-64350000D02*
X139050000Y-64750000D01*
X142800000Y-64350000D02*
X139450000Y-64350000D01*
X126750000Y-60750000D02*
X126750000Y-56250000D01*
X126730000Y-60770000D02*
X126750000Y-60750000D01*
X141300000Y-63300000D02*
X140150000Y-62150000D01*
X140150000Y-62150000D02*
X140150000Y-52250000D01*
D35*
G36*
X143965000Y-71124219D02*
X143715668Y-71020687D01*
X143286216Y-71020313D01*
X142889311Y-71184311D01*
X142758393Y-71315000D01*
X140822385Y-71315000D01*
X140715668Y-71270687D01*
X140689493Y-71270664D01*
X142455079Y-69505079D01*
X142625245Y-69250406D01*
X142685000Y-68950000D01*
X142685000Y-68151000D01*
X142944250Y-68151000D01*
X143103000Y-67992250D01*
X143103000Y-66627000D01*
X143083000Y-66627000D01*
X143083000Y-66373000D01*
X143103000Y-66373000D01*
X143103000Y-66353000D01*
X143357000Y-66353000D01*
X143357000Y-66373000D01*
X143377000Y-66373000D01*
X143377000Y-66627000D01*
X143357000Y-66627000D01*
X143357000Y-67992250D01*
X143515750Y-68151000D01*
X143620498Y-68151000D01*
X143620313Y-68363784D01*
X143784311Y-68760689D01*
X143965000Y-68941693D01*
X143965000Y-71124219D01*
X143965000Y-71124219D01*
G37*
X143965000Y-71124219D02*
X143715668Y-71020687D01*
X143286216Y-71020313D01*
X142889311Y-71184311D01*
X142758393Y-71315000D01*
X140822385Y-71315000D01*
X140715668Y-71270687D01*
X140689493Y-71270664D01*
X142455079Y-69505079D01*
X142625245Y-69250406D01*
X142685000Y-68950000D01*
X142685000Y-68151000D01*
X142944250Y-68151000D01*
X143103000Y-67992250D01*
X143103000Y-66627000D01*
X143083000Y-66627000D01*
X143083000Y-66373000D01*
X143103000Y-66373000D01*
X143103000Y-66353000D01*
X143357000Y-66353000D01*
X143357000Y-66373000D01*
X143377000Y-66373000D01*
X143377000Y-66627000D01*
X143357000Y-66627000D01*
X143357000Y-67992250D01*
X143515750Y-68151000D01*
X143620498Y-68151000D01*
X143620313Y-68363784D01*
X143784311Y-68760689D01*
X143965000Y-68941693D01*
X143965000Y-71124219D01*
G36*
X180815000Y-95315000D02*
X180683345Y-95315000D01*
X180683345Y-75460000D01*
X180683345Y-65460000D01*
X180683345Y-57770000D01*
X180569271Y-57196511D01*
X180244415Y-56710330D01*
X179934930Y-56503539D01*
X180350732Y-56132036D01*
X180604709Y-55604791D01*
X180607358Y-55589026D01*
X180486217Y-55357000D01*
X179127000Y-55357000D01*
X179127000Y-55377000D01*
X178873000Y-55377000D01*
X178873000Y-55357000D01*
X177513783Y-55357000D01*
X177392642Y-55589026D01*
X177395291Y-55604791D01*
X177649268Y-56132036D01*
X178065069Y-56503539D01*
X177755585Y-56710330D01*
X177430729Y-57196511D01*
X177335000Y-57677773D01*
X177335000Y-53799422D01*
X177359422Y-53775000D01*
X177793493Y-53775000D01*
X178065069Y-53956460D01*
X177649268Y-54327964D01*
X177395291Y-54855209D01*
X177392642Y-54870974D01*
X177513783Y-55103000D01*
X178873000Y-55103000D01*
X178873000Y-55083000D01*
X179127000Y-55083000D01*
X179127000Y-55103000D01*
X180486217Y-55103000D01*
X180607358Y-54870974D01*
X180604709Y-54855209D01*
X180350732Y-54327964D01*
X179934930Y-53956460D01*
X180244415Y-53749670D01*
X180569271Y-53263489D01*
X180683345Y-52690000D01*
X180569271Y-52116511D01*
X180244415Y-51630330D01*
X179758234Y-51305474D01*
X179184745Y-51191400D01*
X178815255Y-51191400D01*
X178241766Y-51305474D01*
X177793493Y-51605000D01*
X176910000Y-51605000D01*
X176494788Y-51687591D01*
X176142789Y-51922789D01*
X175482789Y-52582789D01*
X175247591Y-52934788D01*
X175165000Y-53350000D01*
X175165000Y-61050578D01*
X174650578Y-61565000D01*
X174640225Y-61565000D01*
X174671927Y-61533298D01*
X174768600Y-61299909D01*
X174768600Y-60595750D01*
X174609850Y-60437000D01*
X173397000Y-60437000D01*
X173397000Y-60457000D01*
X173143000Y-60457000D01*
X173143000Y-60437000D01*
X173123000Y-60437000D01*
X173123000Y-60183000D01*
X173143000Y-60183000D01*
X173143000Y-60163000D01*
X173397000Y-60163000D01*
X173397000Y-60183000D01*
X174609850Y-60183000D01*
X174768600Y-60024250D01*
X174768600Y-59320091D01*
X174671927Y-59086702D01*
X174493299Y-58908073D01*
X174339473Y-58844356D01*
X174654526Y-58372848D01*
X174768600Y-57799359D01*
X174768600Y-57740641D01*
X174654526Y-57167152D01*
X174329670Y-56680971D01*
X174058827Y-56500000D01*
X174329670Y-56319029D01*
X174654526Y-55832848D01*
X174768600Y-55259359D01*
X174768600Y-55200641D01*
X174654526Y-54627152D01*
X174329670Y-54140971D01*
X174058827Y-53960000D01*
X174329670Y-53779029D01*
X174654526Y-53292848D01*
X174768600Y-52719359D01*
X174768600Y-52660641D01*
X174654526Y-52087152D01*
X174329670Y-51600971D01*
X173843489Y-51276115D01*
X173270000Y-51162041D01*
X172696511Y-51276115D01*
X172210330Y-51600971D01*
X172000000Y-51915751D01*
X171789670Y-51600971D01*
X171303489Y-51276115D01*
X170730000Y-51162041D01*
X170156511Y-51276115D01*
X169670330Y-51600971D01*
X169585000Y-51728676D01*
X169585000Y-51275158D01*
X170375158Y-50485000D01*
X175450000Y-50485000D01*
X177261717Y-50485000D01*
X177334311Y-50660689D01*
X177637714Y-50964622D01*
X178034332Y-51129313D01*
X178463784Y-51129687D01*
X178860689Y-50965689D01*
X179164622Y-50662286D01*
X179329313Y-50265668D01*
X179329687Y-49836216D01*
X179165689Y-49439311D01*
X178878002Y-49151121D01*
X179040000Y-49183345D01*
X179613489Y-49069271D01*
X180099670Y-48744415D01*
X180424526Y-48258234D01*
X180538600Y-47684745D01*
X180538600Y-47315255D01*
X180424526Y-46741766D01*
X180099670Y-46255585D01*
X179613489Y-45930729D01*
X179040000Y-45816655D01*
X178466511Y-45930729D01*
X177980330Y-46255585D01*
X177773539Y-46565069D01*
X177402036Y-46149268D01*
X176874791Y-45895291D01*
X176859026Y-45892642D01*
X176627000Y-46013783D01*
X176627000Y-47373000D01*
X176647000Y-47373000D01*
X176647000Y-47627000D01*
X176627000Y-47627000D01*
X176627000Y-47647000D01*
X176373000Y-47647000D01*
X176373000Y-47627000D01*
X176353000Y-47627000D01*
X176353000Y-47373000D01*
X176373000Y-47373000D01*
X176373000Y-46013783D01*
X176140974Y-45892642D01*
X176125209Y-45895291D01*
X175597964Y-46149268D01*
X175443758Y-46321860D01*
X175361927Y-46124302D01*
X175183299Y-45945673D01*
X174949910Y-45849000D01*
X174697291Y-45849000D01*
X172970091Y-45849000D01*
X172736702Y-45945673D01*
X172558073Y-46124301D01*
X172461400Y-46357690D01*
X172461400Y-46610309D01*
X172461400Y-48642309D01*
X172558073Y-48875698D01*
X172597374Y-48915000D01*
X170078618Y-48915000D01*
X170212036Y-48850732D01*
X170601954Y-48414320D01*
X170795184Y-47861913D01*
X170795184Y-47138087D01*
X170601954Y-46585680D01*
X170212036Y-46149268D01*
X169684791Y-45895291D01*
X169669026Y-45892642D01*
X169437000Y-46013783D01*
X169437000Y-47373000D01*
X170650924Y-47373000D01*
X170795184Y-47138087D01*
X170795184Y-47861913D01*
X170650924Y-47627000D01*
X169437000Y-47627000D01*
X169437000Y-48986217D01*
X169602848Y-49072806D01*
X169494921Y-49144921D01*
X169183000Y-49456842D01*
X169183000Y-48986217D01*
X169183000Y-47627000D01*
X169183000Y-47373000D01*
X169183000Y-46013783D01*
X168950974Y-45892642D01*
X168935209Y-45895291D01*
X168407964Y-46149268D01*
X168040000Y-46561108D01*
X167672036Y-46149268D01*
X167144791Y-45895291D01*
X167129026Y-45892642D01*
X166897000Y-46013783D01*
X166897000Y-47373000D01*
X167969076Y-47373000D01*
X168110924Y-47373000D01*
X169183000Y-47373000D01*
X169183000Y-47627000D01*
X168110924Y-47627000D01*
X167969076Y-47627000D01*
X166897000Y-47627000D01*
X166897000Y-48986217D01*
X167129026Y-49107358D01*
X167144791Y-49104709D01*
X167672036Y-48850732D01*
X168040000Y-48438891D01*
X168407964Y-48850732D01*
X168935209Y-49104709D01*
X168950974Y-49107358D01*
X169183000Y-48986217D01*
X169183000Y-49456842D01*
X168244921Y-50394921D01*
X168074755Y-50649593D01*
X168015000Y-50950000D01*
X168015000Y-53524842D01*
X166074842Y-55465000D01*
X163461466Y-55465000D01*
X163541606Y-55385000D01*
X164350000Y-55385000D01*
X164650406Y-55325245D01*
X164650407Y-55325245D01*
X164905079Y-55155079D01*
X166280630Y-53779527D01*
X166463784Y-53779687D01*
X166860689Y-53615689D01*
X167164622Y-53312286D01*
X167329313Y-52915668D01*
X167329687Y-52486216D01*
X167165689Y-52089311D01*
X166862286Y-51785378D01*
X166679687Y-51709555D01*
X166679687Y-49586216D01*
X166515689Y-49189311D01*
X166426031Y-49099496D01*
X166643000Y-48986217D01*
X166643000Y-47627000D01*
X166623000Y-47627000D01*
X166623000Y-47373000D01*
X166643000Y-47373000D01*
X166643000Y-46013783D01*
X166410974Y-45892642D01*
X166395209Y-45895291D01*
X165867964Y-46149268D01*
X165496460Y-46565069D01*
X165289670Y-46255585D01*
X164803489Y-45930729D01*
X164230000Y-45816655D01*
X163656511Y-45930729D01*
X163170330Y-46255585D01*
X163155499Y-46277780D01*
X163091927Y-46124302D01*
X162913299Y-45945673D01*
X162679910Y-45849000D01*
X162427291Y-45849000D01*
X160700091Y-45849000D01*
X160466702Y-45945673D01*
X160288073Y-46124301D01*
X160191400Y-46357690D01*
X160191400Y-46610309D01*
X160191400Y-48642309D01*
X160285860Y-48870356D01*
X160236216Y-48870313D01*
X159982507Y-48975143D01*
X160170880Y-48510612D01*
X160162975Y-47449643D01*
X159772168Y-46506154D01*
X159398121Y-46281484D01*
X157679605Y-48000000D01*
X157693747Y-48014142D01*
X157514142Y-48193747D01*
X157500000Y-48179605D01*
X157320395Y-48359210D01*
X157320395Y-48000000D01*
X155601879Y-46281484D01*
X155227832Y-46506154D01*
X154829120Y-47489388D01*
X154837025Y-48550357D01*
X155227832Y-49493846D01*
X155601879Y-49718516D01*
X157320395Y-48000000D01*
X157320395Y-48359210D01*
X155781484Y-49898121D01*
X156006154Y-50272168D01*
X156989388Y-50670880D01*
X158050357Y-50662975D01*
X158993846Y-50272168D01*
X159218514Y-49898122D01*
X159218516Y-49898124D01*
X159331237Y-50010845D01*
X159370480Y-49971601D01*
X159370313Y-50163784D01*
X159534311Y-50560689D01*
X159837714Y-50864622D01*
X160234332Y-51029313D01*
X160663784Y-51029687D01*
X161060689Y-50865689D01*
X161341868Y-50585000D01*
X164858318Y-50585000D01*
X164987714Y-50714622D01*
X165384332Y-50879313D01*
X165813784Y-50879687D01*
X166210689Y-50715689D01*
X166514622Y-50412286D01*
X166679313Y-50015668D01*
X166679687Y-49586216D01*
X166679687Y-51709555D01*
X166465668Y-51620687D01*
X166036216Y-51620313D01*
X165639311Y-51784311D01*
X165335378Y-52087714D01*
X165170687Y-52484332D01*
X165170525Y-52669316D01*
X164024842Y-53815000D01*
X163541681Y-53815000D01*
X163412286Y-53685378D01*
X163015668Y-53520687D01*
X162586216Y-53520313D01*
X162189311Y-53684311D01*
X161885378Y-53987714D01*
X161720687Y-54384332D01*
X161720313Y-54813784D01*
X161884311Y-55210689D01*
X162138178Y-55465000D01*
X160141856Y-55465000D01*
X160112286Y-55435378D01*
X159715668Y-55270687D01*
X159286216Y-55270313D01*
X159218516Y-55298286D01*
X158889311Y-55434311D01*
X158585378Y-55737714D01*
X158420687Y-56134332D01*
X158420313Y-56563784D01*
X158584311Y-56960689D01*
X158887714Y-57264622D01*
X159284332Y-57429313D01*
X159713784Y-57429687D01*
X160110689Y-57265689D01*
X160341780Y-57035000D01*
X166400000Y-57035000D01*
X166700406Y-56975245D01*
X166700407Y-56975245D01*
X166955079Y-56805079D01*
X169355079Y-54405079D01*
X169525245Y-54150406D01*
X169585000Y-53850000D01*
X169585001Y-53850000D01*
X169585000Y-53849994D01*
X169585000Y-53651323D01*
X169670330Y-53779029D01*
X169941172Y-53960000D01*
X169670330Y-54140971D01*
X169345474Y-54627152D01*
X169231400Y-55200641D01*
X169231400Y-55259359D01*
X169345474Y-55832848D01*
X169670330Y-56319029D01*
X169941172Y-56500000D01*
X169670330Y-56680971D01*
X169345474Y-57167152D01*
X169231400Y-57740641D01*
X169231400Y-57799359D01*
X169290975Y-58098866D01*
X166894921Y-60494921D01*
X166724755Y-60749593D01*
X166665000Y-61050000D01*
X166665000Y-73017088D01*
X166515789Y-72793778D01*
X166054329Y-72485441D01*
X165510000Y-72377167D01*
X164965671Y-72485441D01*
X164504211Y-72793778D01*
X164240000Y-73189198D01*
X163975789Y-72793778D01*
X163514329Y-72485441D01*
X163435000Y-72469661D01*
X163435000Y-68500000D01*
X163375245Y-68199594D01*
X163375245Y-68199593D01*
X163205079Y-67944921D01*
X161205079Y-65944921D01*
X160950407Y-65774755D01*
X160650000Y-65715000D01*
X154134774Y-65715000D01*
X154134774Y-59675046D01*
X153886462Y-59074085D01*
X153427073Y-58613894D01*
X152826547Y-58364534D01*
X152176306Y-58363966D01*
X152083500Y-58402312D01*
X152083500Y-56324810D01*
X152083500Y-56072191D01*
X152083500Y-54675191D01*
X151986827Y-54441802D01*
X151808199Y-54263173D01*
X151574810Y-54166500D01*
X151322191Y-54166500D01*
X149925191Y-54166500D01*
X149691802Y-54263173D01*
X149585000Y-54369974D01*
X149585000Y-53041681D01*
X149714622Y-52912286D01*
X149879313Y-52515668D01*
X149879687Y-52086216D01*
X149715689Y-51689311D01*
X149412286Y-51385378D01*
X149015668Y-51220687D01*
X148586216Y-51220313D01*
X148189311Y-51384311D01*
X147885378Y-51687714D01*
X147720687Y-52084332D01*
X147720313Y-52513784D01*
X147884311Y-52910689D01*
X148015000Y-53041606D01*
X148015000Y-54323696D01*
X147989311Y-54334311D01*
X147685378Y-54637714D01*
X147520687Y-55034332D01*
X147520313Y-55463784D01*
X147684311Y-55860689D01*
X147987714Y-56164622D01*
X148384332Y-56329313D01*
X148813784Y-56329687D01*
X149210689Y-56165689D01*
X149416500Y-55960236D01*
X149416500Y-56324809D01*
X149513173Y-56558198D01*
X149691801Y-56736827D01*
X149925190Y-56833500D01*
X150177809Y-56833500D01*
X151574809Y-56833500D01*
X151808198Y-56736827D01*
X151986827Y-56558199D01*
X152083500Y-56324810D01*
X152083500Y-58402312D01*
X151575345Y-58612278D01*
X151115154Y-59071667D01*
X150865794Y-59672193D01*
X150865226Y-60322434D01*
X151113538Y-60923395D01*
X151572927Y-61383586D01*
X152173453Y-61632946D01*
X152823694Y-61633514D01*
X153424655Y-61385202D01*
X153884846Y-60925813D01*
X154134206Y-60325287D01*
X154134774Y-59675046D01*
X154134774Y-65715000D01*
X153191681Y-65715000D01*
X153062286Y-65585378D01*
X152665668Y-65420687D01*
X152236216Y-65420313D01*
X151839311Y-65584311D01*
X151535378Y-65887714D01*
X151370687Y-66284332D01*
X151370313Y-66713784D01*
X151534311Y-67110689D01*
X151837714Y-67414622D01*
X152234332Y-67579313D01*
X152663784Y-67579687D01*
X153060689Y-67415689D01*
X153191606Y-67285000D01*
X160324842Y-67285000D01*
X161865000Y-68825158D01*
X161865000Y-72942258D01*
X161700000Y-73189198D01*
X161435789Y-72793778D01*
X160974329Y-72485441D01*
X160430000Y-72377167D01*
X159885671Y-72485441D01*
X159424211Y-72793778D01*
X159160000Y-73189198D01*
X158895789Y-72793778D01*
X158434329Y-72485441D01*
X157890000Y-72377167D01*
X157345671Y-72485441D01*
X156884211Y-72793778D01*
X156620000Y-73189198D01*
X156355789Y-72793778D01*
X155894329Y-72485441D01*
X155350000Y-72377167D01*
X154805671Y-72485441D01*
X154344211Y-72793778D01*
X154134774Y-73107222D01*
X154134774Y-69835046D01*
X153886462Y-69234085D01*
X153427073Y-68773894D01*
X152826547Y-68524534D01*
X152176306Y-68523966D01*
X151575345Y-68772278D01*
X151115154Y-69231667D01*
X150865794Y-69832193D01*
X150865226Y-70482434D01*
X151113538Y-71083395D01*
X151572927Y-71543586D01*
X152173453Y-71792946D01*
X152823694Y-71793514D01*
X153424655Y-71545202D01*
X153884846Y-71085813D01*
X154134206Y-70485287D01*
X154134774Y-69835046D01*
X154134774Y-73107222D01*
X154080000Y-73189198D01*
X153815789Y-72793778D01*
X153354329Y-72485441D01*
X152810000Y-72377167D01*
X152265671Y-72485441D01*
X151804211Y-72793778D01*
X151540000Y-73189198D01*
X151275789Y-72793778D01*
X150814329Y-72485441D01*
X150270000Y-72377167D01*
X149725671Y-72485441D01*
X149264211Y-72793778D01*
X149000246Y-73188829D01*
X148995525Y-73172738D01*
X148645986Y-72738809D01*
X148156996Y-72471673D01*
X148077060Y-72454990D01*
X147857000Y-72577148D01*
X147857000Y-74063000D01*
X147877000Y-74063000D01*
X147877000Y-74317000D01*
X147857000Y-74317000D01*
X147857000Y-74337000D01*
X147603000Y-74337000D01*
X147603000Y-74317000D01*
X147583000Y-74317000D01*
X147583000Y-74063000D01*
X147603000Y-74063000D01*
X147603000Y-72577148D01*
X147382940Y-72454990D01*
X147303004Y-72471673D01*
X147146792Y-72557011D01*
X147005079Y-72344921D01*
X146779527Y-72119369D01*
X146779687Y-71936216D01*
X146615689Y-71539311D01*
X146312286Y-71235378D01*
X145915668Y-71070687D01*
X145535000Y-71070355D01*
X145535000Y-68841769D01*
X145614622Y-68762286D01*
X145779313Y-68365668D01*
X145779473Y-68181460D01*
X146343489Y-68069271D01*
X146829670Y-67744415D01*
X147040000Y-67429634D01*
X147250330Y-67744415D01*
X147736511Y-68069271D01*
X148310000Y-68183345D01*
X148883489Y-68069271D01*
X149369670Y-67744415D01*
X149694526Y-67258234D01*
X149808600Y-66684745D01*
X149808600Y-66315255D01*
X149694526Y-65741766D01*
X149369670Y-65255585D01*
X148883489Y-64930729D01*
X148310000Y-64816655D01*
X148029387Y-64872472D01*
X148205079Y-64755079D01*
X149605079Y-63355079D01*
X149775245Y-63100407D01*
X149775245Y-63100406D01*
X149835000Y-62800000D01*
X149835000Y-62041681D01*
X149964622Y-61912286D01*
X150129313Y-61515668D01*
X150129687Y-61086216D01*
X149965689Y-60689311D01*
X149662286Y-60385378D01*
X149265668Y-60220687D01*
X148836216Y-60220313D01*
X148439311Y-60384311D01*
X148135378Y-60687714D01*
X147970687Y-61084332D01*
X147970313Y-61513784D01*
X148134311Y-61910689D01*
X148265000Y-62041606D01*
X148265000Y-62474842D01*
X147813590Y-62926251D01*
X147715689Y-62689311D01*
X147412286Y-62385378D01*
X147015668Y-62220687D01*
X146586216Y-62220313D01*
X146189311Y-62384311D01*
X145958219Y-62615000D01*
X144595927Y-62615000D01*
X144595927Y-55692520D01*
X144567148Y-55162801D01*
X144419800Y-54807071D01*
X144184188Y-54745417D01*
X144004583Y-54925022D01*
X144004583Y-54565812D01*
X143942929Y-54330200D01*
X143442520Y-54154073D01*
X142912801Y-54182852D01*
X142557071Y-54330200D01*
X142495417Y-54565812D01*
X143250000Y-55320395D01*
X144004583Y-54565812D01*
X144004583Y-54925022D01*
X143429605Y-55500000D01*
X144184188Y-56254583D01*
X144419800Y-56192929D01*
X144595927Y-55692520D01*
X144595927Y-62615000D01*
X144004583Y-62615000D01*
X144004583Y-56434188D01*
X143250000Y-55679605D01*
X143070395Y-55859210D01*
X143070395Y-55500000D01*
X142315812Y-54745417D01*
X142080200Y-54807071D01*
X141904073Y-55307480D01*
X141932852Y-55837199D01*
X142080200Y-56192929D01*
X142315812Y-56254583D01*
X143070395Y-55500000D01*
X143070395Y-55859210D01*
X142495417Y-56434188D01*
X142557071Y-56669800D01*
X143057480Y-56845927D01*
X143587199Y-56817148D01*
X143942929Y-56669800D01*
X144004583Y-56434188D01*
X144004583Y-62615000D01*
X143750000Y-62615000D01*
X143449594Y-62674755D01*
X143194921Y-62844921D01*
X142474842Y-63565000D01*
X142358828Y-63565000D01*
X142379313Y-63515668D01*
X142379687Y-63086216D01*
X142215689Y-62689311D01*
X141912286Y-62385378D01*
X141515668Y-62220687D01*
X141330683Y-62220525D01*
X140935000Y-61824842D01*
X140935000Y-52991681D01*
X141064622Y-52862286D01*
X141229313Y-52465668D01*
X141229687Y-52036216D01*
X141065689Y-51639311D01*
X140762286Y-51335378D01*
X140365668Y-51170687D01*
X139936216Y-51170313D01*
X139539311Y-51334311D01*
X139235378Y-51637714D01*
X139070687Y-52034332D01*
X139070313Y-52463784D01*
X139234311Y-52860689D01*
X139365000Y-52991606D01*
X139365000Y-62150000D01*
X139424755Y-62450407D01*
X139594921Y-62705079D01*
X140220472Y-63330630D01*
X140220313Y-63513784D01*
X140241475Y-63565000D01*
X139450000Y-63565000D01*
X139149594Y-63624755D01*
X139081092Y-63670526D01*
X138845927Y-63670321D01*
X138845927Y-60112520D01*
X138817148Y-59582801D01*
X138669800Y-59227071D01*
X138434188Y-59165417D01*
X138254583Y-59345022D01*
X138254583Y-58985812D01*
X138192929Y-58750200D01*
X137692520Y-58574073D01*
X137162801Y-58602852D01*
X136807071Y-58750200D01*
X136745417Y-58985812D01*
X137500000Y-59740395D01*
X138254583Y-58985812D01*
X138254583Y-59345022D01*
X137679605Y-59920000D01*
X138434188Y-60674583D01*
X138669800Y-60612929D01*
X138845927Y-60112520D01*
X138845927Y-63670321D01*
X138836216Y-63670313D01*
X138439311Y-63834311D01*
X138254583Y-64018716D01*
X138254583Y-60854188D01*
X137500000Y-60099605D01*
X137320395Y-60279210D01*
X137320395Y-59920000D01*
X136565812Y-59165417D01*
X136330200Y-59227071D01*
X136154073Y-59727480D01*
X136182852Y-60257199D01*
X136330200Y-60612929D01*
X136565812Y-60674583D01*
X137320395Y-59920000D01*
X137320395Y-60279210D01*
X136745417Y-60854188D01*
X136807071Y-61089800D01*
X137307480Y-61265927D01*
X137837199Y-61237148D01*
X138192929Y-61089800D01*
X138254583Y-60854188D01*
X138254583Y-64018716D01*
X138135378Y-64137714D01*
X137970687Y-64534332D01*
X137970313Y-64963784D01*
X138134311Y-65360689D01*
X138138614Y-65365000D01*
X136500000Y-65365000D01*
X136065655Y-65451396D01*
X135794000Y-65632910D01*
X135794000Y-64785750D01*
X135794000Y-64214250D01*
X135794000Y-63356309D01*
X135794000Y-63103690D01*
X135697327Y-62870301D01*
X135518698Y-62691673D01*
X135285309Y-62595000D01*
X134809750Y-62595000D01*
X134651000Y-62753750D01*
X134651000Y-64373000D01*
X135635250Y-64373000D01*
X135794000Y-64214250D01*
X135794000Y-64785750D01*
X135635250Y-64627000D01*
X134651000Y-64627000D01*
X134651000Y-66246250D01*
X134809750Y-66405000D01*
X134989868Y-66405000D01*
X134397000Y-66997868D01*
X134397000Y-66246250D01*
X134397000Y-64627000D01*
X133412750Y-64627000D01*
X133254000Y-64785750D01*
X133254000Y-65643691D01*
X133254000Y-65896310D01*
X133350673Y-66129699D01*
X133529302Y-66308327D01*
X133762691Y-66405000D01*
X134238250Y-66405000D01*
X134397000Y-66246250D01*
X134397000Y-66997868D01*
X132611000Y-68783868D01*
X132611000Y-66168025D01*
X132649327Y-66129699D01*
X132746000Y-65896310D01*
X132746000Y-65643691D01*
X132746000Y-64835132D01*
X133052566Y-64528566D01*
X133259146Y-64219396D01*
X133412750Y-64373000D01*
X134397000Y-64373000D01*
X134397000Y-62753750D01*
X134238250Y-62595000D01*
X133762691Y-62595000D01*
X133529302Y-62691673D01*
X133385000Y-62835974D01*
X133385000Y-56410025D01*
X133486827Y-56308199D01*
X133583500Y-56074810D01*
X133583500Y-55822191D01*
X133583500Y-54425191D01*
X133486827Y-54191802D01*
X133308199Y-54013173D01*
X133074810Y-53916500D01*
X132822191Y-53916500D01*
X131425191Y-53916500D01*
X131191802Y-54013173D01*
X131013173Y-54191801D01*
X130916500Y-54425190D01*
X130916500Y-54677809D01*
X130916500Y-56074809D01*
X131013173Y-56308198D01*
X131115000Y-56410025D01*
X131115000Y-62595000D01*
X130714691Y-62595000D01*
X130603731Y-62640961D01*
X130603731Y-57965914D01*
X130603731Y-49465914D01*
X130401146Y-48975620D01*
X130026353Y-48600173D01*
X129536413Y-48396732D01*
X129005914Y-48396269D01*
X128515620Y-48598854D01*
X128140173Y-48973647D01*
X127999906Y-49311446D01*
X127861146Y-48975620D01*
X127486353Y-48600173D01*
X126996413Y-48396732D01*
X126670029Y-48396447D01*
X126662975Y-47449643D01*
X126272168Y-46506154D01*
X125898121Y-46281484D01*
X124179605Y-48000000D01*
X124193747Y-48014142D01*
X124014142Y-48193747D01*
X124000000Y-48179605D01*
X122281484Y-49898121D01*
X122506154Y-50272168D01*
X123489388Y-50670880D01*
X124550357Y-50662975D01*
X125493846Y-50272168D01*
X125504109Y-50255080D01*
X125598854Y-50484380D01*
X125973647Y-50859827D01*
X126463587Y-51063268D01*
X126994086Y-51063731D01*
X127484380Y-50861146D01*
X127859827Y-50486353D01*
X128000093Y-50148553D01*
X128138854Y-50484380D01*
X128513647Y-50859827D01*
X128698295Y-50936500D01*
X128697809Y-50936500D01*
X128445190Y-50936500D01*
X128211801Y-51033173D01*
X128033173Y-51211802D01*
X127936500Y-51445191D01*
X127936500Y-51984250D01*
X128095250Y-52143000D01*
X129143000Y-52143000D01*
X129143000Y-52123000D01*
X129397000Y-52123000D01*
X129397000Y-52143000D01*
X130444750Y-52143000D01*
X130603500Y-51984250D01*
X130603500Y-51445191D01*
X130506827Y-51211802D01*
X130328199Y-51033173D01*
X130094810Y-50936500D01*
X129842191Y-50936500D01*
X129842009Y-50936500D01*
X130024380Y-50861146D01*
X130399827Y-50486353D01*
X130603268Y-49996413D01*
X130603731Y-49465914D01*
X130603731Y-57965914D01*
X130603500Y-57965354D01*
X130603500Y-53094809D01*
X130603500Y-52555750D01*
X130444750Y-52397000D01*
X129397000Y-52397000D01*
X129397000Y-53444750D01*
X129555750Y-53603500D01*
X129842191Y-53603500D01*
X130094810Y-53603500D01*
X130328199Y-53506827D01*
X130506827Y-53328198D01*
X130603500Y-53094809D01*
X130603500Y-57965354D01*
X130401146Y-57475620D01*
X130026353Y-57100173D01*
X129536413Y-56896732D01*
X129143000Y-56896388D01*
X129143000Y-53444750D01*
X129143000Y-52397000D01*
X128095250Y-52397000D01*
X127936500Y-52555750D01*
X127936500Y-53094809D01*
X128033173Y-53328198D01*
X128211801Y-53506827D01*
X128445190Y-53603500D01*
X128697809Y-53603500D01*
X128984250Y-53603500D01*
X129143000Y-53444750D01*
X129143000Y-56896388D01*
X129005914Y-56896269D01*
X128515620Y-57098854D01*
X128140173Y-57473647D01*
X127936732Y-57963587D01*
X127936269Y-58494086D01*
X128138854Y-58984380D01*
X128513647Y-59359827D01*
X128698295Y-59436500D01*
X128445191Y-59436500D01*
X128211802Y-59533173D01*
X128033173Y-59711801D01*
X127936500Y-59945190D01*
X127936500Y-60197809D01*
X127936500Y-60197990D01*
X127861146Y-60015620D01*
X127535000Y-59688904D01*
X127535000Y-56991681D01*
X127664622Y-56862286D01*
X127829313Y-56465668D01*
X127829687Y-56036216D01*
X127665689Y-55639311D01*
X127362286Y-55335378D01*
X126965668Y-55170687D01*
X126536216Y-55170313D01*
X126139311Y-55334311D01*
X126079698Y-55393819D01*
X126067148Y-55162801D01*
X125919800Y-54807071D01*
X125684188Y-54745417D01*
X125504583Y-54925022D01*
X125504583Y-54565812D01*
X125442929Y-54330200D01*
X124942520Y-54154073D01*
X124412801Y-54182852D01*
X124057071Y-54330200D01*
X123995417Y-54565812D01*
X124750000Y-55320395D01*
X125504583Y-54565812D01*
X125504583Y-54925022D01*
X124929605Y-55500000D01*
X124943747Y-55514142D01*
X124764142Y-55693747D01*
X124750000Y-55679605D01*
X124570395Y-55859210D01*
X124570395Y-55500000D01*
X123815812Y-54745417D01*
X123580200Y-54807071D01*
X123404073Y-55307480D01*
X123432852Y-55837199D01*
X123580200Y-56192929D01*
X123815812Y-56254583D01*
X124570395Y-55500000D01*
X124570395Y-55859210D01*
X123995417Y-56434188D01*
X124057071Y-56669800D01*
X124557480Y-56845927D01*
X125087199Y-56817148D01*
X125442929Y-56669800D01*
X125504582Y-56434190D01*
X125504583Y-56434191D01*
X125619837Y-56549445D01*
X125680600Y-56488681D01*
X125834311Y-56860689D01*
X125965000Y-56991606D01*
X125965000Y-59649455D01*
X125600173Y-60013647D01*
X125504583Y-60243853D01*
X125396732Y-60503587D01*
X125396269Y-61034086D01*
X125598854Y-61524380D01*
X125973647Y-61899827D01*
X126463587Y-62103268D01*
X126994086Y-62103731D01*
X127484380Y-61901146D01*
X127859827Y-61526353D01*
X127936500Y-61341704D01*
X127936500Y-61594809D01*
X128033173Y-61828198D01*
X128211801Y-62006827D01*
X128445190Y-62103500D01*
X128697809Y-62103500D01*
X130094809Y-62103500D01*
X130328198Y-62006827D01*
X130506827Y-61828199D01*
X130603500Y-61594810D01*
X130603500Y-61342191D01*
X130603500Y-59945191D01*
X130506827Y-59711802D01*
X130328199Y-59533173D01*
X130094810Y-59436500D01*
X129842191Y-59436500D01*
X129842009Y-59436500D01*
X130024380Y-59361146D01*
X130399827Y-58986353D01*
X130603268Y-58496413D01*
X130603731Y-57965914D01*
X130603731Y-62640961D01*
X130481302Y-62691673D01*
X130302673Y-62870301D01*
X130206000Y-63103690D01*
X130206000Y-63356309D01*
X130206000Y-65896309D01*
X130302673Y-66129698D01*
X130341000Y-66168025D01*
X130341000Y-67720578D01*
X130036216Y-67720313D01*
X129639311Y-67884311D01*
X129335378Y-68187714D01*
X129170687Y-68584332D01*
X129170313Y-69013784D01*
X129334311Y-69410689D01*
X129465000Y-69541606D01*
X129465000Y-70520425D01*
X129336216Y-70520313D01*
X128939311Y-70684311D01*
X128916072Y-70707508D01*
X128913885Y-70696511D01*
X128589029Y-70210330D01*
X128567976Y-70196263D01*
X128723298Y-70131927D01*
X128901927Y-69953299D01*
X128998600Y-69719910D01*
X128998600Y-69467291D01*
X128998600Y-67740091D01*
X128901927Y-67506702D01*
X128723299Y-67328073D01*
X128489910Y-67231400D01*
X128237291Y-67231400D01*
X126510091Y-67231400D01*
X126276702Y-67328073D01*
X126098073Y-67506701D01*
X126001400Y-67740090D01*
X126001400Y-67992709D01*
X126001400Y-69719909D01*
X126098073Y-69953298D01*
X126276701Y-70131927D01*
X126432022Y-70196263D01*
X126410971Y-70210330D01*
X126086115Y-70696511D01*
X125972041Y-71270000D01*
X126086115Y-71843489D01*
X126410971Y-72329670D01*
X126422110Y-72337113D01*
X126451397Y-72484346D01*
X126697434Y-72852566D01*
X128247434Y-74402566D01*
X128615654Y-74648603D01*
X128615655Y-74648603D01*
X129050000Y-74735000D01*
X129400000Y-74735000D01*
X129834345Y-74648603D01*
X129834346Y-74648603D01*
X130202566Y-74402566D01*
X131132664Y-73472467D01*
X131067600Y-73799567D01*
X131067600Y-74580433D01*
X131175874Y-75124762D01*
X131484211Y-75586222D01*
X131945671Y-75894559D01*
X132490000Y-76002833D01*
X132509989Y-75998856D01*
X132370687Y-76334332D01*
X132370313Y-76763784D01*
X132534311Y-77160689D01*
X132837714Y-77464622D01*
X133234332Y-77629313D01*
X133663784Y-77629687D01*
X134060689Y-77465689D01*
X134191606Y-77335000D01*
X136208318Y-77335000D01*
X136337714Y-77464622D01*
X136734332Y-77629313D01*
X137163784Y-77629687D01*
X137560689Y-77465689D01*
X137864622Y-77162286D01*
X138029313Y-76765668D01*
X138029687Y-76336216D01*
X137867485Y-75943659D01*
X138114329Y-75894559D01*
X138575789Y-75586222D01*
X138840000Y-75190801D01*
X139104211Y-75586222D01*
X139565671Y-75894559D01*
X140110000Y-76002833D01*
X140654329Y-75894559D01*
X141115789Y-75586222D01*
X141380000Y-75190801D01*
X141568153Y-75472393D01*
X141539311Y-75484311D01*
X141385597Y-75637756D01*
X141199593Y-75674755D01*
X140944921Y-75844921D01*
X140269369Y-76520472D01*
X140086216Y-76520313D01*
X139689311Y-76684311D01*
X139385378Y-76987714D01*
X139220687Y-77384332D01*
X139220313Y-77813784D01*
X139384311Y-78210689D01*
X139687714Y-78514622D01*
X140084332Y-78679313D01*
X140513784Y-78679687D01*
X140910689Y-78515689D01*
X141214622Y-78212286D01*
X141379313Y-77815668D01*
X141379474Y-77630683D01*
X141649230Y-77360927D01*
X141934332Y-77479313D01*
X142363784Y-77479687D01*
X142760689Y-77315689D01*
X143064622Y-77012286D01*
X143165000Y-76770550D01*
X143165000Y-80099607D01*
X142650000Y-79997167D01*
X142105671Y-80105441D01*
X141644211Y-80413778D01*
X141380000Y-80809198D01*
X141115789Y-80413778D01*
X140654329Y-80105441D01*
X140110000Y-79997167D01*
X139565671Y-80105441D01*
X139104211Y-80413778D01*
X138840000Y-80809198D01*
X138575789Y-80413778D01*
X138114329Y-80105441D01*
X137570000Y-79997167D01*
X137025671Y-80105441D01*
X136564211Y-80413778D01*
X136300000Y-80809198D01*
X136035789Y-80413778D01*
X135574329Y-80105441D01*
X135030000Y-79997167D01*
X134485671Y-80105441D01*
X134024211Y-80413778D01*
X133912400Y-80581115D01*
X133912400Y-80540691D01*
X133815727Y-80307302D01*
X133637099Y-80128673D01*
X133403710Y-80032000D01*
X133151091Y-80032000D01*
X131576291Y-80032000D01*
X131342902Y-80128673D01*
X131164273Y-80307301D01*
X131067600Y-80540690D01*
X131067600Y-80793309D01*
X131067600Y-83079309D01*
X131164273Y-83312698D01*
X131342901Y-83491327D01*
X131576290Y-83588000D01*
X131828909Y-83588000D01*
X133403709Y-83588000D01*
X133637098Y-83491327D01*
X133815727Y-83312699D01*
X133912400Y-83079310D01*
X133912400Y-83038884D01*
X134024211Y-83206222D01*
X134485671Y-83514559D01*
X135030000Y-83622833D01*
X135498135Y-83529714D01*
X135615000Y-83646579D01*
X135615000Y-85233420D01*
X134774210Y-86074210D01*
X134582367Y-86361325D01*
X134571189Y-86417515D01*
X134514999Y-86700000D01*
X134515000Y-86700005D01*
X134515000Y-88499994D01*
X134514999Y-88500000D01*
X134571189Y-88782484D01*
X134582367Y-88838675D01*
X134774210Y-89125790D01*
X136574207Y-90925786D01*
X136574210Y-90925790D01*
X136861325Y-91117633D01*
X137200000Y-91185000D01*
X143783420Y-91185000D01*
X144212016Y-91613596D01*
X144137964Y-91649268D01*
X143766460Y-92065069D01*
X143559670Y-91755585D01*
X143073489Y-91430729D01*
X142500000Y-91316655D01*
X141926511Y-91430729D01*
X141440330Y-91755585D01*
X141425499Y-91777780D01*
X141361927Y-91624302D01*
X141183299Y-91445673D01*
X140949910Y-91349000D01*
X140697291Y-91349000D01*
X138970091Y-91349000D01*
X138736702Y-91445673D01*
X138558073Y-91624301D01*
X138461400Y-91857690D01*
X138461400Y-92110309D01*
X138461400Y-94142309D01*
X138558073Y-94375698D01*
X138736701Y-94554327D01*
X138970090Y-94651000D01*
X139222709Y-94651000D01*
X140949909Y-94651000D01*
X141183298Y-94554327D01*
X141361927Y-94375699D01*
X141425500Y-94222220D01*
X141440330Y-94244415D01*
X141926511Y-94569271D01*
X142500000Y-94683345D01*
X143073489Y-94569271D01*
X143559670Y-94244415D01*
X143766460Y-93934930D01*
X144137964Y-94350732D01*
X144665209Y-94604709D01*
X144680974Y-94607358D01*
X144913000Y-94486217D01*
X144913000Y-93127000D01*
X144893000Y-93127000D01*
X144893000Y-92873000D01*
X144913000Y-92873000D01*
X144913000Y-92853000D01*
X145167000Y-92853000D01*
X145167000Y-92873000D01*
X146380924Y-92873000D01*
X146525184Y-92638087D01*
X146366695Y-92185000D01*
X147823304Y-92185000D01*
X147664816Y-92638087D01*
X147809076Y-92873000D01*
X149023000Y-92873000D01*
X149023000Y-92853000D01*
X149277000Y-92853000D01*
X149277000Y-92873000D01*
X150349076Y-92873000D01*
X150490924Y-92873000D01*
X151563000Y-92873000D01*
X151563000Y-92853000D01*
X151817000Y-92853000D01*
X151817000Y-92873000D01*
X151837000Y-92873000D01*
X151837000Y-93127000D01*
X151817000Y-93127000D01*
X151817000Y-94486217D01*
X152049026Y-94607358D01*
X152064791Y-94604709D01*
X152592036Y-94350732D01*
X152963539Y-93934930D01*
X153170330Y-94244415D01*
X153656511Y-94569271D01*
X154230000Y-94683345D01*
X154803489Y-94569271D01*
X155289670Y-94244415D01*
X155500000Y-93929634D01*
X155710330Y-94244415D01*
X156196511Y-94569271D01*
X156770000Y-94683345D01*
X157343489Y-94569271D01*
X157829670Y-94244415D01*
X158040000Y-93929634D01*
X158250330Y-94244415D01*
X158736511Y-94569271D01*
X159310000Y-94683345D01*
X159883489Y-94569271D01*
X160369670Y-94244415D01*
X160384499Y-94222220D01*
X160448073Y-94375699D01*
X160626702Y-94554327D01*
X160860091Y-94651000D01*
X161564250Y-94651000D01*
X161723000Y-94492250D01*
X161723000Y-93127000D01*
X161703000Y-93127000D01*
X161703000Y-92873000D01*
X161723000Y-92873000D01*
X161723000Y-91507750D01*
X161564250Y-91349000D01*
X160860091Y-91349000D01*
X160626702Y-91445673D01*
X160448073Y-91624301D01*
X160384499Y-91777779D01*
X160369670Y-91755585D01*
X159883489Y-91430729D01*
X159310000Y-91316655D01*
X158736511Y-91430729D01*
X158250330Y-91755585D01*
X158040000Y-92070365D01*
X157886434Y-91840538D01*
X157886434Y-86733399D01*
X157681919Y-86238435D01*
X157303557Y-85859412D01*
X156808951Y-85654034D01*
X156273399Y-85653566D01*
X155778435Y-85858081D01*
X155399412Y-86236443D01*
X155194034Y-86731049D01*
X155193566Y-87266601D01*
X155398081Y-87761565D01*
X155776443Y-88140588D01*
X156271049Y-88345966D01*
X156806601Y-88346434D01*
X157301565Y-88141919D01*
X157680588Y-87763557D01*
X157885966Y-87268951D01*
X157886434Y-86733399D01*
X157886434Y-91840538D01*
X157829670Y-91755585D01*
X157343489Y-91430729D01*
X156770000Y-91316655D01*
X156409868Y-91388289D01*
X154845790Y-89824210D01*
X154558675Y-89632367D01*
X154502484Y-89621189D01*
X154220000Y-89564999D01*
X154219994Y-89565000D01*
X152806434Y-89565000D01*
X152806434Y-86733399D01*
X152601919Y-86238435D01*
X152223557Y-85859412D01*
X151728951Y-85654034D01*
X151193399Y-85653566D01*
X150698435Y-85858081D01*
X150319412Y-86236443D01*
X150114034Y-86731049D01*
X150113566Y-87266601D01*
X150318081Y-87761565D01*
X150696443Y-88140588D01*
X151191049Y-88345966D01*
X151726601Y-88346434D01*
X152221565Y-88141919D01*
X152600588Y-87763557D01*
X152805966Y-87268951D01*
X152806434Y-86733399D01*
X152806434Y-89565000D01*
X146166579Y-89565000D01*
X145375790Y-88774210D01*
X145088675Y-88582367D01*
X145032484Y-88571189D01*
X144750000Y-88514999D01*
X144749994Y-88515000D01*
X138811815Y-88515000D01*
X138864622Y-88462286D01*
X139029313Y-88065668D01*
X139029474Y-87880683D01*
X140075158Y-86835000D01*
X144758318Y-86835000D01*
X144887714Y-86964622D01*
X145284332Y-87129313D01*
X145713784Y-87129687D01*
X146110689Y-86965689D01*
X146414622Y-86662286D01*
X146579313Y-86265668D01*
X146579687Y-85836216D01*
X146415689Y-85439311D01*
X146112286Y-85135378D01*
X145715668Y-84970687D01*
X145286216Y-84970313D01*
X144889311Y-85134311D01*
X144758393Y-85265000D01*
X139750000Y-85265000D01*
X139449594Y-85324755D01*
X139194921Y-85494921D01*
X138441383Y-86248458D01*
X138455000Y-86180000D01*
X138455001Y-86180000D01*
X138455000Y-86179994D01*
X138455000Y-83286930D01*
X138575789Y-83206222D01*
X138840000Y-82810801D01*
X139104211Y-83206222D01*
X139565671Y-83514559D01*
X140110000Y-83622833D01*
X140654329Y-83514559D01*
X141115789Y-83206222D01*
X141380000Y-82810801D01*
X141644211Y-83206222D01*
X142105671Y-83514559D01*
X142650000Y-83622833D01*
X143194329Y-83514559D01*
X143655789Y-83206222D01*
X143920000Y-82810801D01*
X144184211Y-83206222D01*
X144645671Y-83514559D01*
X145190000Y-83622833D01*
X145734329Y-83514559D01*
X146195789Y-83206222D01*
X146460000Y-82810801D01*
X146724211Y-83206222D01*
X147185671Y-83514559D01*
X147730000Y-83622833D01*
X148274329Y-83514559D01*
X148735789Y-83206222D01*
X148999753Y-82811170D01*
X149004475Y-82827262D01*
X149354014Y-83261191D01*
X149843004Y-83528327D01*
X149922940Y-83545010D01*
X150143000Y-83422852D01*
X150143000Y-81937000D01*
X150123000Y-81937000D01*
X150123000Y-81683000D01*
X150143000Y-81683000D01*
X150143000Y-80197148D01*
X149922940Y-80074990D01*
X149843004Y-80091673D01*
X149354014Y-80358809D01*
X149004475Y-80792738D01*
X148999753Y-80808829D01*
X148735789Y-80413778D01*
X148274329Y-80105441D01*
X147730000Y-79997167D01*
X147185671Y-80105441D01*
X146724211Y-80413778D01*
X146460000Y-80809198D01*
X146195789Y-80413778D01*
X145734329Y-80105441D01*
X145190000Y-79997167D01*
X144735000Y-80087672D01*
X144735000Y-79361553D01*
X144937714Y-79564622D01*
X145334332Y-79729313D01*
X145763784Y-79729687D01*
X146160689Y-79565689D01*
X146341693Y-79385000D01*
X146858318Y-79385000D01*
X146987714Y-79514622D01*
X147384332Y-79679313D01*
X147813784Y-79679687D01*
X148210689Y-79515689D01*
X148514622Y-79212286D01*
X148679313Y-78815668D01*
X148679687Y-78386216D01*
X148515689Y-77989311D01*
X148486361Y-77959932D01*
X148629313Y-77615668D01*
X148629518Y-77379526D01*
X148813784Y-77379687D01*
X149210689Y-77215689D01*
X149514622Y-76912286D01*
X149679313Y-76515668D01*
X149679687Y-76086216D01*
X149552756Y-75779021D01*
X149725671Y-75894559D01*
X150270000Y-76002833D01*
X150814329Y-75894559D01*
X151275789Y-75586222D01*
X151540000Y-75190801D01*
X151661083Y-75372016D01*
X151389311Y-75484311D01*
X151085378Y-75787714D01*
X150920687Y-76184332D01*
X150920313Y-76613784D01*
X151084311Y-77010689D01*
X151387714Y-77314622D01*
X151784332Y-77479313D01*
X151969316Y-77479474D01*
X152415000Y-77925158D01*
X152415000Y-79050000D01*
X152474755Y-79350407D01*
X152644921Y-79605079D01*
X153093376Y-80053534D01*
X152810000Y-79997167D01*
X152265671Y-80105441D01*
X151804211Y-80413778D01*
X151540246Y-80808829D01*
X151535525Y-80792738D01*
X151185986Y-80358809D01*
X150696996Y-80091673D01*
X150617060Y-80074990D01*
X150397000Y-80197148D01*
X150397000Y-81683000D01*
X150417000Y-81683000D01*
X150417000Y-81937000D01*
X150397000Y-81937000D01*
X150397000Y-83422852D01*
X150617060Y-83545010D01*
X150696996Y-83528327D01*
X151185986Y-83261191D01*
X151535525Y-82827262D01*
X151540246Y-82811170D01*
X151804211Y-83206222D01*
X152265671Y-83514559D01*
X152810000Y-83622833D01*
X153354329Y-83514559D01*
X153815789Y-83206222D01*
X154080000Y-82810801D01*
X154344211Y-83206222D01*
X154805671Y-83514559D01*
X155350000Y-83622833D01*
X155894329Y-83514559D01*
X156355789Y-83206222D01*
X156620000Y-82810801D01*
X156884211Y-83206222D01*
X157345671Y-83514559D01*
X157890000Y-83622833D01*
X158434329Y-83514559D01*
X158895789Y-83206222D01*
X159160000Y-82810801D01*
X159424211Y-83206222D01*
X159885671Y-83514559D01*
X160430000Y-83622833D01*
X160974329Y-83514559D01*
X161435789Y-83206222D01*
X161700000Y-82810801D01*
X161964211Y-83206222D01*
X162425671Y-83514559D01*
X162970000Y-83622833D01*
X163514329Y-83514559D01*
X163975789Y-83206222D01*
X164240000Y-82810801D01*
X164504211Y-83206222D01*
X164965671Y-83514559D01*
X165510000Y-83622833D01*
X166054329Y-83514559D01*
X166515789Y-83206222D01*
X166824126Y-82744762D01*
X166853915Y-82595000D01*
X167790000Y-82595000D01*
X168090406Y-82535245D01*
X168090407Y-82535245D01*
X168345079Y-82365079D01*
X168905079Y-81805079D01*
X169075245Y-81550406D01*
X169135000Y-81250000D01*
X169135001Y-81250000D01*
X169135000Y-81249994D01*
X169135000Y-71550000D01*
X169135000Y-65641681D01*
X169264622Y-65512286D01*
X169429313Y-65115668D01*
X169429687Y-64686216D01*
X169265689Y-64289311D01*
X168962286Y-63985378D01*
X168565668Y-63820687D01*
X168235000Y-63820399D01*
X168235000Y-61375157D01*
X169237936Y-60372220D01*
X169345474Y-60912848D01*
X169645000Y-61361120D01*
X169645000Y-61630000D01*
X169727591Y-62045212D01*
X169962789Y-62397211D01*
X170982789Y-63417211D01*
X171289333Y-63622037D01*
X171165668Y-63570687D01*
X170736216Y-63570313D01*
X170339311Y-63734311D01*
X170035378Y-64037714D01*
X169870687Y-64434332D01*
X169870525Y-64619316D01*
X169844921Y-64644921D01*
X169674755Y-64899593D01*
X169615000Y-65200000D01*
X169615000Y-76670000D01*
X169674755Y-76970407D01*
X169844921Y-77225079D01*
X170290975Y-77671133D01*
X170231400Y-77970641D01*
X170231400Y-78029359D01*
X170345474Y-78602848D01*
X170670330Y-79089029D01*
X170941172Y-79270000D01*
X170670330Y-79450971D01*
X170345474Y-79937152D01*
X170231400Y-80510641D01*
X170231400Y-80569359D01*
X170345474Y-81142848D01*
X170670330Y-81629029D01*
X171156511Y-81953885D01*
X171730000Y-82067959D01*
X172303489Y-81953885D01*
X172789670Y-81629029D01*
X173005663Y-81305771D01*
X173063179Y-81428490D01*
X173495053Y-81822688D01*
X173910974Y-81994958D01*
X174143000Y-81873817D01*
X174143000Y-80667000D01*
X174123000Y-80667000D01*
X174123000Y-80413000D01*
X174143000Y-80413000D01*
X174143000Y-80393000D01*
X174397000Y-80393000D01*
X174397000Y-80413000D01*
X174417000Y-80413000D01*
X174417000Y-80667000D01*
X174397000Y-80667000D01*
X174397000Y-81873817D01*
X174629026Y-81994958D01*
X174941667Y-81865465D01*
X175084311Y-82210689D01*
X175387714Y-82514622D01*
X175784332Y-82679313D01*
X176213784Y-82679687D01*
X176610689Y-82515689D01*
X176914622Y-82212286D01*
X177079313Y-81815668D01*
X177079687Y-81386216D01*
X177071696Y-81366878D01*
X177085000Y-81300000D01*
X177085000Y-70291681D01*
X177214622Y-70162286D01*
X177349000Y-69838669D01*
X177349000Y-71529909D01*
X177445673Y-71763298D01*
X177624301Y-71941927D01*
X177857690Y-72038600D01*
X178110309Y-72038600D01*
X180142309Y-72038600D01*
X180375698Y-71941927D01*
X180554327Y-71763299D01*
X180651000Y-71529910D01*
X180651000Y-71277291D01*
X180651000Y-69550091D01*
X180554327Y-69316702D01*
X180375699Y-69138073D01*
X180178139Y-69056241D01*
X180350732Y-68902036D01*
X180604709Y-68374791D01*
X180607358Y-68359026D01*
X180486217Y-68127000D01*
X179127000Y-68127000D01*
X179127000Y-68147000D01*
X178873000Y-68147000D01*
X178873000Y-68127000D01*
X177513783Y-68127000D01*
X177392642Y-68359026D01*
X177395291Y-68374791D01*
X177649268Y-68902036D01*
X177821860Y-69056241D01*
X177624302Y-69138073D01*
X177445673Y-69316701D01*
X177379565Y-69476299D01*
X177379687Y-69336216D01*
X177215689Y-68939311D01*
X176912286Y-68635378D01*
X176515668Y-68470687D01*
X176086216Y-68470313D01*
X175689311Y-68634311D01*
X175385378Y-68937714D01*
X175220687Y-69334332D01*
X175220313Y-69763784D01*
X175384311Y-70160689D01*
X175515000Y-70291606D01*
X175515000Y-74648336D01*
X175329670Y-74370971D01*
X175155000Y-74254260D01*
X175155000Y-71820005D01*
X175155000Y-71820000D01*
X175155001Y-71820000D01*
X175098810Y-71537515D01*
X175087633Y-71481326D01*
X175087633Y-71481325D01*
X174929635Y-71244864D01*
X174929687Y-71186216D01*
X174765689Y-70789311D01*
X174462286Y-70485378D01*
X174065668Y-70320687D01*
X173636216Y-70320313D01*
X173239311Y-70484311D01*
X172935378Y-70787714D01*
X172770687Y-71184332D01*
X172770313Y-71613784D01*
X172934311Y-72010689D01*
X173237714Y-72314622D01*
X173385000Y-72375780D01*
X173385000Y-74254260D01*
X173210330Y-74370971D01*
X173196263Y-74392023D01*
X173131927Y-74236702D01*
X172953299Y-74058073D01*
X172719910Y-73961400D01*
X172515000Y-73961400D01*
X172515000Y-70811472D01*
X172764622Y-70562286D01*
X172929313Y-70165668D01*
X172929687Y-69736216D01*
X172765689Y-69339311D01*
X172462286Y-69035378D01*
X172065668Y-68870687D01*
X171636216Y-68870313D01*
X171239311Y-69034311D01*
X171185000Y-69088527D01*
X171185000Y-65720920D01*
X171560689Y-65565689D01*
X171864622Y-65262286D01*
X172029313Y-64865668D01*
X172029687Y-64436216D01*
X171865689Y-64039311D01*
X171562286Y-63735378D01*
X171387937Y-63662981D01*
X171750000Y-63735000D01*
X175100000Y-63735000D01*
X175515211Y-63652409D01*
X175515212Y-63652409D01*
X175867211Y-63417211D01*
X177017211Y-62267211D01*
X177252409Y-61915212D01*
X177252410Y-61915211D01*
X177335000Y-61500000D01*
X177335000Y-57862226D01*
X177430729Y-58343489D01*
X177755585Y-58829670D01*
X177777780Y-58844500D01*
X177624302Y-58908073D01*
X177445673Y-59086701D01*
X177349000Y-59320090D01*
X177349000Y-59572709D01*
X177349000Y-61299909D01*
X177445673Y-61533298D01*
X177624301Y-61711927D01*
X177857690Y-61808600D01*
X178110309Y-61808600D01*
X180142309Y-61808600D01*
X180375698Y-61711927D01*
X180554327Y-61533299D01*
X180651000Y-61299910D01*
X180651000Y-61047291D01*
X180651000Y-59320091D01*
X180554327Y-59086702D01*
X180375699Y-58908073D01*
X180222220Y-58844499D01*
X180244415Y-58829670D01*
X180569271Y-58343489D01*
X180683345Y-57770000D01*
X180683345Y-65460000D01*
X180569271Y-64886511D01*
X180244415Y-64400330D01*
X179758234Y-64075474D01*
X179184745Y-63961400D01*
X178815255Y-63961400D01*
X178241766Y-64075474D01*
X177755585Y-64400330D01*
X177430729Y-64886511D01*
X177316655Y-65460000D01*
X177430729Y-66033489D01*
X177755585Y-66519670D01*
X178065069Y-66726460D01*
X177649268Y-67097964D01*
X177395291Y-67625209D01*
X177392642Y-67640974D01*
X177513783Y-67873000D01*
X178873000Y-67873000D01*
X178873000Y-67853000D01*
X179127000Y-67853000D01*
X179127000Y-67873000D01*
X180486217Y-67873000D01*
X180607358Y-67640974D01*
X180604709Y-67625209D01*
X180350732Y-67097964D01*
X179934930Y-66726460D01*
X180244415Y-66519670D01*
X180569271Y-66033489D01*
X180683345Y-65460000D01*
X180683345Y-75460000D01*
X180569271Y-74886511D01*
X180244415Y-74400330D01*
X179758234Y-74075474D01*
X179184745Y-73961400D01*
X178815255Y-73961400D01*
X178241766Y-74075474D01*
X177755585Y-74400330D01*
X177430729Y-74886511D01*
X177316655Y-75460000D01*
X177430729Y-76033489D01*
X177755585Y-76519670D01*
X178065069Y-76726460D01*
X177649268Y-77097964D01*
X177395291Y-77625209D01*
X177392642Y-77640974D01*
X177513783Y-77873000D01*
X178873000Y-77873000D01*
X178873000Y-77853000D01*
X179127000Y-77853000D01*
X179127000Y-77873000D01*
X180486217Y-77873000D01*
X180607358Y-77640974D01*
X180604709Y-77625209D01*
X180350732Y-77097964D01*
X179934930Y-76726460D01*
X180244415Y-76519670D01*
X180569271Y-76033489D01*
X180683345Y-75460000D01*
X180683345Y-95315000D01*
X180651000Y-95315000D01*
X180651000Y-81529910D01*
X180651000Y-81277291D01*
X180651000Y-79550091D01*
X180554327Y-79316702D01*
X180375699Y-79138073D01*
X180178139Y-79056241D01*
X180350732Y-78902036D01*
X180604709Y-78374791D01*
X180607358Y-78359026D01*
X180486217Y-78127000D01*
X179127000Y-78127000D01*
X179127000Y-78147000D01*
X178873000Y-78147000D01*
X178873000Y-78127000D01*
X177513783Y-78127000D01*
X177392642Y-78359026D01*
X177395291Y-78374791D01*
X177649268Y-78902036D01*
X177821860Y-79056241D01*
X177624302Y-79138073D01*
X177445673Y-79316701D01*
X177349000Y-79550090D01*
X177349000Y-79802709D01*
X177349000Y-81529909D01*
X177445673Y-81763298D01*
X177624301Y-81941927D01*
X177857690Y-82038600D01*
X178110309Y-82038600D01*
X180142309Y-82038600D01*
X180375698Y-81941927D01*
X180554327Y-81763299D01*
X180651000Y-81529910D01*
X180651000Y-95315000D01*
X179333731Y-95315000D01*
X179333731Y-89935914D01*
X179333731Y-86535914D01*
X179131146Y-86045620D01*
X178756353Y-85670173D01*
X178266413Y-85466732D01*
X177735914Y-85466269D01*
X177245620Y-85668854D01*
X176870173Y-86043647D01*
X176666732Y-86533587D01*
X176666269Y-87064086D01*
X176868854Y-87554380D01*
X177243647Y-87929827D01*
X177733587Y-88133268D01*
X178264086Y-88133731D01*
X178754380Y-87931146D01*
X179129827Y-87556353D01*
X179333268Y-87066413D01*
X179333731Y-86535914D01*
X179333731Y-89935914D01*
X179131146Y-89445620D01*
X178756353Y-89070173D01*
X178266413Y-88866732D01*
X177735914Y-88866269D01*
X177245620Y-89068854D01*
X176870173Y-89443647D01*
X176666732Y-89933587D01*
X176666269Y-90464086D01*
X176868854Y-90954380D01*
X177243647Y-91329827D01*
X177733587Y-91533268D01*
X178264086Y-91533731D01*
X178754380Y-91331146D01*
X179129827Y-90956353D01*
X179333268Y-90466413D01*
X179333731Y-89935914D01*
X179333731Y-95315000D01*
X177170880Y-95315000D01*
X177170880Y-93010612D01*
X177162975Y-91949643D01*
X176772168Y-91006154D01*
X176398121Y-90781484D01*
X176218516Y-90961089D01*
X176218516Y-90601879D01*
X175993846Y-90227832D01*
X175010612Y-89829120D01*
X173949643Y-89837025D01*
X173006154Y-90227832D01*
X172781484Y-90601879D01*
X174500000Y-92320395D01*
X176218516Y-90601879D01*
X176218516Y-90961089D01*
X174679605Y-92500000D01*
X176398121Y-94218516D01*
X176772168Y-93993846D01*
X177170880Y-93010612D01*
X177170880Y-95315000D01*
X176218516Y-95315000D01*
X176218516Y-94398121D01*
X174500000Y-92679605D01*
X174320395Y-92859210D01*
X174320395Y-92500000D01*
X172601879Y-90781484D01*
X172227832Y-91006154D01*
X171829120Y-91989388D01*
X171837025Y-93050357D01*
X172227832Y-93993846D01*
X172601879Y-94218516D01*
X174320395Y-92500000D01*
X174320395Y-92859210D01*
X172781484Y-94398121D01*
X173006154Y-94772168D01*
X173989388Y-95170880D01*
X175050357Y-95162975D01*
X175993846Y-94772168D01*
X176218516Y-94398121D01*
X176218516Y-95315000D01*
X174098560Y-95315000D01*
X171496718Y-95293135D01*
X171496718Y-92278721D01*
X171485257Y-92022536D01*
X171485257Y-89155911D01*
X171259656Y-88609914D01*
X170850108Y-88199651D01*
X171258188Y-87792283D01*
X171484742Y-87246681D01*
X171485257Y-86655911D01*
X171259656Y-86109914D01*
X170842283Y-85691812D01*
X170296681Y-85465258D01*
X169705911Y-85464743D01*
X169159914Y-85690344D01*
X168741812Y-86107717D01*
X168515258Y-86653319D01*
X168514743Y-87244089D01*
X168740344Y-87790086D01*
X169149891Y-88200348D01*
X168741812Y-88607717D01*
X168515258Y-89153319D01*
X168514743Y-89744089D01*
X168740344Y-90290086D01*
X169157717Y-90708188D01*
X169242907Y-90743562D01*
X169215920Y-90754741D01*
X169135647Y-91006042D01*
X170000000Y-91870395D01*
X170864353Y-91006042D01*
X170784080Y-90754741D01*
X170755799Y-90744482D01*
X170840086Y-90709656D01*
X171258188Y-90292283D01*
X171484742Y-89746681D01*
X171485257Y-89155911D01*
X171485257Y-92022536D01*
X171470315Y-91688542D01*
X171295259Y-91265920D01*
X171043958Y-91185647D01*
X170179605Y-92050000D01*
X171043958Y-92914353D01*
X171295259Y-92834080D01*
X171496718Y-92278721D01*
X171496718Y-95293135D01*
X170864353Y-95287821D01*
X170864353Y-93093958D01*
X170000000Y-92229605D01*
X169820395Y-92409210D01*
X169820395Y-92050000D01*
X168956042Y-91185647D01*
X168704741Y-91265920D01*
X168503282Y-91821279D01*
X168529685Y-92411458D01*
X168704741Y-92834080D01*
X168956042Y-92914353D01*
X169820395Y-92050000D01*
X169820395Y-92409210D01*
X169135647Y-93093958D01*
X169215920Y-93345259D01*
X169771279Y-93546718D01*
X170361458Y-93520315D01*
X170784080Y-93345259D01*
X170864353Y-93093958D01*
X170864353Y-95287821D01*
X163348600Y-95224664D01*
X163348600Y-94142310D01*
X163348600Y-93889691D01*
X163348600Y-93285750D01*
X163348600Y-92714250D01*
X163348600Y-92110309D01*
X163348600Y-91857690D01*
X163251927Y-91624301D01*
X163073298Y-91445673D01*
X162839909Y-91349000D01*
X162135750Y-91349000D01*
X161977000Y-91507750D01*
X161977000Y-92873000D01*
X163189850Y-92873000D01*
X163348600Y-92714250D01*
X163348600Y-93285750D01*
X163189850Y-93127000D01*
X161977000Y-93127000D01*
X161977000Y-94492250D01*
X162135750Y-94651000D01*
X162839909Y-94651000D01*
X163073298Y-94554327D01*
X163251927Y-94375699D01*
X163348600Y-94142310D01*
X163348600Y-95224664D01*
X151563000Y-95125625D01*
X151563000Y-94486217D01*
X151563000Y-93127000D01*
X150490924Y-93127000D01*
X150349076Y-93127000D01*
X149277000Y-93127000D01*
X149277000Y-94486217D01*
X149509026Y-94607358D01*
X149524791Y-94604709D01*
X150052036Y-94350732D01*
X150420000Y-93938891D01*
X150787964Y-94350732D01*
X151315209Y-94604709D01*
X151330974Y-94607358D01*
X151563000Y-94486217D01*
X151563000Y-95125625D01*
X149023000Y-95104281D01*
X149023000Y-94486217D01*
X149023000Y-93127000D01*
X147809076Y-93127000D01*
X147664816Y-93361913D01*
X147858046Y-93914320D01*
X148247964Y-94350732D01*
X148775209Y-94604709D01*
X148790974Y-94607358D01*
X149023000Y-94486217D01*
X149023000Y-95104281D01*
X146525184Y-95083291D01*
X146525184Y-93361913D01*
X146380924Y-93127000D01*
X145167000Y-93127000D01*
X145167000Y-94486217D01*
X145399026Y-94607358D01*
X145414791Y-94604709D01*
X145942036Y-94350732D01*
X146331954Y-93914320D01*
X146525184Y-93361913D01*
X146525184Y-95083291D01*
X136525184Y-94999257D01*
X136525184Y-93361913D01*
X136525184Y-92638087D01*
X136331954Y-92085680D01*
X135942036Y-91649268D01*
X135414791Y-91395291D01*
X135399026Y-91392642D01*
X135167000Y-91513783D01*
X135167000Y-92873000D01*
X136380924Y-92873000D01*
X136525184Y-92638087D01*
X136525184Y-93361913D01*
X136380924Y-93127000D01*
X135167000Y-93127000D01*
X135167000Y-94486217D01*
X135399026Y-94607358D01*
X135414791Y-94604709D01*
X135942036Y-94350732D01*
X136331954Y-93914320D01*
X136525184Y-93361913D01*
X136525184Y-94999257D01*
X134913000Y-94985709D01*
X134913000Y-94486217D01*
X134913000Y-93127000D01*
X134893000Y-93127000D01*
X134893000Y-92873000D01*
X134913000Y-92873000D01*
X134913000Y-91513783D01*
X134680974Y-91392642D01*
X134665209Y-91395291D01*
X134137964Y-91649268D01*
X133766460Y-92065069D01*
X133559670Y-91755585D01*
X133073489Y-91430729D01*
X132500000Y-91316655D01*
X131926511Y-91430729D01*
X131440330Y-91755585D01*
X131425499Y-91777780D01*
X131361927Y-91624302D01*
X131183299Y-91445673D01*
X130949910Y-91349000D01*
X130697291Y-91349000D01*
X129155330Y-91349000D01*
X129155330Y-82872735D01*
X129155330Y-76372735D01*
X128865922Y-75672314D01*
X128330505Y-75135961D01*
X127630590Y-74845332D01*
X126872735Y-74844670D01*
X126172314Y-75134078D01*
X125635961Y-75669495D01*
X125345332Y-76369410D01*
X125344670Y-77127265D01*
X125634078Y-77827686D01*
X126169495Y-78364039D01*
X126869410Y-78654668D01*
X127627265Y-78655330D01*
X128327686Y-78365922D01*
X128864039Y-77830505D01*
X129154668Y-77130590D01*
X129155330Y-76372735D01*
X129155330Y-82872735D01*
X128865922Y-82172314D01*
X128330505Y-81635961D01*
X127630590Y-81345332D01*
X126872735Y-81344670D01*
X126172314Y-81634078D01*
X125635961Y-82169495D01*
X125345332Y-82869410D01*
X125344670Y-83627265D01*
X125634078Y-84327686D01*
X126169495Y-84864039D01*
X126869410Y-85154668D01*
X127627265Y-85155330D01*
X128327686Y-84865922D01*
X128864039Y-84330505D01*
X129154668Y-83630590D01*
X129155330Y-82872735D01*
X129155330Y-91349000D01*
X128970091Y-91349000D01*
X128736702Y-91445673D01*
X128558073Y-91624301D01*
X128461400Y-91857690D01*
X128461400Y-92110309D01*
X128461400Y-94142309D01*
X128558073Y-94375698D01*
X128736701Y-94554327D01*
X128970090Y-94651000D01*
X129222709Y-94651000D01*
X130949909Y-94651000D01*
X131183298Y-94554327D01*
X131361927Y-94375699D01*
X131425500Y-94222220D01*
X131440330Y-94244415D01*
X131926511Y-94569271D01*
X132500000Y-94683345D01*
X133073489Y-94569271D01*
X133559670Y-94244415D01*
X133766460Y-93934930D01*
X134137964Y-94350732D01*
X134665209Y-94604709D01*
X134680974Y-94607358D01*
X134913000Y-94486217D01*
X134913000Y-94985709D01*
X124664261Y-94899585D01*
X124664261Y-83578964D01*
X124664261Y-77078964D01*
X124651000Y-76572205D01*
X124651000Y-72412309D01*
X124651000Y-71555750D01*
X124492250Y-71397000D01*
X123127000Y-71397000D01*
X123127000Y-72762250D01*
X123285750Y-72921000D01*
X123889691Y-72921000D01*
X124142310Y-72921000D01*
X124375699Y-72824327D01*
X124554327Y-72645698D01*
X124651000Y-72412309D01*
X124651000Y-76572205D01*
X124644436Y-76321368D01*
X124392657Y-75713520D01*
X124097777Y-75581828D01*
X122929605Y-76750000D01*
X124097777Y-77918172D01*
X124392657Y-77786480D01*
X124664261Y-77078964D01*
X124664261Y-83578964D01*
X124644436Y-82821368D01*
X124392657Y-82213520D01*
X124097777Y-82081828D01*
X122929605Y-83250000D01*
X124097777Y-84418172D01*
X124392657Y-84286480D01*
X124664261Y-83578964D01*
X124664261Y-94899585D01*
X121685000Y-94874550D01*
X121685000Y-84828796D01*
X121713520Y-84892657D01*
X122421036Y-85164261D01*
X123178632Y-85144436D01*
X123786480Y-84892657D01*
X123918172Y-84597777D01*
X122750000Y-83429605D01*
X122735857Y-83443747D01*
X122556252Y-83264142D01*
X122570395Y-83250000D01*
X122556252Y-83235857D01*
X122735857Y-83056252D01*
X122750000Y-83070395D01*
X123918172Y-81902223D01*
X123786480Y-81607343D01*
X123078964Y-81335739D01*
X122321368Y-81355564D01*
X121713520Y-81607343D01*
X121685000Y-81671203D01*
X121685000Y-78328796D01*
X121713520Y-78392657D01*
X122421036Y-78664261D01*
X123178632Y-78644436D01*
X123786480Y-78392657D01*
X123918172Y-78097777D01*
X122750000Y-76929605D01*
X122735857Y-76943747D01*
X122556252Y-76764142D01*
X122570395Y-76750000D01*
X122556252Y-76735857D01*
X122735857Y-76556252D01*
X122750000Y-76570395D01*
X123918172Y-75402223D01*
X123786480Y-75107343D01*
X123078964Y-74835739D01*
X122321368Y-74855564D01*
X121713520Y-75107343D01*
X121685000Y-75171203D01*
X121685000Y-72849469D01*
X121857690Y-72921000D01*
X122110309Y-72921000D01*
X122714250Y-72921000D01*
X122873000Y-72762250D01*
X122873000Y-71397000D01*
X122853000Y-71397000D01*
X122853000Y-71143000D01*
X122873000Y-71143000D01*
X122873000Y-71123000D01*
X123127000Y-71123000D01*
X123127000Y-71143000D01*
X124492250Y-71143000D01*
X124651000Y-70984250D01*
X124651000Y-70127691D01*
X124554327Y-69894302D01*
X124375699Y-69715673D01*
X124324628Y-69694518D01*
X124525325Y-69394155D01*
X124651000Y-68762345D01*
X124651000Y-68697655D01*
X124525325Y-68065845D01*
X124167433Y-67530222D01*
X123631810Y-67172330D01*
X123000000Y-67046655D01*
X122368190Y-67172330D01*
X121832567Y-67530222D01*
X121685000Y-67751071D01*
X121685000Y-49390440D01*
X121727832Y-49493846D01*
X122101879Y-49718516D01*
X123820395Y-48000000D01*
X122101879Y-46281484D01*
X121727832Y-46506154D01*
X121685000Y-46611778D01*
X121685000Y-46500000D01*
X121685000Y-45685000D01*
X122609559Y-45685000D01*
X122506154Y-45727832D01*
X122281484Y-46101879D01*
X124000000Y-47820395D01*
X125718516Y-46101879D01*
X125493846Y-45727832D01*
X125388221Y-45685000D01*
X156109559Y-45685000D01*
X156006154Y-45727832D01*
X155781484Y-46101879D01*
X157500000Y-47820395D01*
X159218516Y-46101879D01*
X158993846Y-45727832D01*
X158888221Y-45685000D01*
X180815000Y-45685000D01*
X180815000Y-95315000D01*
X180815000Y-95315000D01*
G37*
X180815000Y-95315000D02*
X180683345Y-95315000D01*
X180683345Y-75460000D01*
X180683345Y-65460000D01*
X180683345Y-57770000D01*
X180569271Y-57196511D01*
X180244415Y-56710330D01*
X179934930Y-56503539D01*
X180350732Y-56132036D01*
X180604709Y-55604791D01*
X180607358Y-55589026D01*
X180486217Y-55357000D01*
X179127000Y-55357000D01*
X179127000Y-55377000D01*
X178873000Y-55377000D01*
X178873000Y-55357000D01*
X177513783Y-55357000D01*
X177392642Y-55589026D01*
X177395291Y-55604791D01*
X177649268Y-56132036D01*
X178065069Y-56503539D01*
X177755585Y-56710330D01*
X177430729Y-57196511D01*
X177335000Y-57677773D01*
X177335000Y-53799422D01*
X177359422Y-53775000D01*
X177793493Y-53775000D01*
X178065069Y-53956460D01*
X177649268Y-54327964D01*
X177395291Y-54855209D01*
X177392642Y-54870974D01*
X177513783Y-55103000D01*
X178873000Y-55103000D01*
X178873000Y-55083000D01*
X179127000Y-55083000D01*
X179127000Y-55103000D01*
X180486217Y-55103000D01*
X180607358Y-54870974D01*
X180604709Y-54855209D01*
X180350732Y-54327964D01*
X179934930Y-53956460D01*
X180244415Y-53749670D01*
X180569271Y-53263489D01*
X180683345Y-52690000D01*
X180569271Y-52116511D01*
X180244415Y-51630330D01*
X179758234Y-51305474D01*
X179184745Y-51191400D01*
X178815255Y-51191400D01*
X178241766Y-51305474D01*
X177793493Y-51605000D01*
X176910000Y-51605000D01*
X176494788Y-51687591D01*
X176142789Y-51922789D01*
X175482789Y-52582789D01*
X175247591Y-52934788D01*
X175165000Y-53350000D01*
X175165000Y-61050578D01*
X174650578Y-61565000D01*
X174640225Y-61565000D01*
X174671927Y-61533298D01*
X174768600Y-61299909D01*
X174768600Y-60595750D01*
X174609850Y-60437000D01*
X173397000Y-60437000D01*
X173397000Y-60457000D01*
X173143000Y-60457000D01*
X173143000Y-60437000D01*
X173123000Y-60437000D01*
X173123000Y-60183000D01*
X173143000Y-60183000D01*
X173143000Y-60163000D01*
X173397000Y-60163000D01*
X173397000Y-60183000D01*
X174609850Y-60183000D01*
X174768600Y-60024250D01*
X174768600Y-59320091D01*
X174671927Y-59086702D01*
X174493299Y-58908073D01*
X174339473Y-58844356D01*
X174654526Y-58372848D01*
X174768600Y-57799359D01*
X174768600Y-57740641D01*
X174654526Y-57167152D01*
X174329670Y-56680971D01*
X174058827Y-56500000D01*
X174329670Y-56319029D01*
X174654526Y-55832848D01*
X174768600Y-55259359D01*
X174768600Y-55200641D01*
X174654526Y-54627152D01*
X174329670Y-54140971D01*
X174058827Y-53960000D01*
X174329670Y-53779029D01*
X174654526Y-53292848D01*
X174768600Y-52719359D01*
X174768600Y-52660641D01*
X174654526Y-52087152D01*
X174329670Y-51600971D01*
X173843489Y-51276115D01*
X173270000Y-51162041D01*
X172696511Y-51276115D01*
X172210330Y-51600971D01*
X172000000Y-51915751D01*
X171789670Y-51600971D01*
X171303489Y-51276115D01*
X170730000Y-51162041D01*
X170156511Y-51276115D01*
X169670330Y-51600971D01*
X169585000Y-51728676D01*
X169585000Y-51275158D01*
X170375158Y-50485000D01*
X175450000Y-50485000D01*
X177261717Y-50485000D01*
X177334311Y-50660689D01*
X177637714Y-50964622D01*
X178034332Y-51129313D01*
X178463784Y-51129687D01*
X178860689Y-50965689D01*
X179164622Y-50662286D01*
X179329313Y-50265668D01*
X179329687Y-49836216D01*
X179165689Y-49439311D01*
X178878002Y-49151121D01*
X179040000Y-49183345D01*
X179613489Y-49069271D01*
X180099670Y-48744415D01*
X180424526Y-48258234D01*
X180538600Y-47684745D01*
X180538600Y-47315255D01*
X180424526Y-46741766D01*
X180099670Y-46255585D01*
X179613489Y-45930729D01*
X179040000Y-45816655D01*
X178466511Y-45930729D01*
X177980330Y-46255585D01*
X177773539Y-46565069D01*
X177402036Y-46149268D01*
X176874791Y-45895291D01*
X176859026Y-45892642D01*
X176627000Y-46013783D01*
X176627000Y-47373000D01*
X176647000Y-47373000D01*
X176647000Y-47627000D01*
X176627000Y-47627000D01*
X176627000Y-47647000D01*
X176373000Y-47647000D01*
X176373000Y-47627000D01*
X176353000Y-47627000D01*
X176353000Y-47373000D01*
X176373000Y-47373000D01*
X176373000Y-46013783D01*
X176140974Y-45892642D01*
X176125209Y-45895291D01*
X175597964Y-46149268D01*
X175443758Y-46321860D01*
X175361927Y-46124302D01*
X175183299Y-45945673D01*
X174949910Y-45849000D01*
X174697291Y-45849000D01*
X172970091Y-45849000D01*
X172736702Y-45945673D01*
X172558073Y-46124301D01*
X172461400Y-46357690D01*
X172461400Y-46610309D01*
X172461400Y-48642309D01*
X172558073Y-48875698D01*
X172597374Y-48915000D01*
X170078618Y-48915000D01*
X170212036Y-48850732D01*
X170601954Y-48414320D01*
X170795184Y-47861913D01*
X170795184Y-47138087D01*
X170601954Y-46585680D01*
X170212036Y-46149268D01*
X169684791Y-45895291D01*
X169669026Y-45892642D01*
X169437000Y-46013783D01*
X169437000Y-47373000D01*
X170650924Y-47373000D01*
X170795184Y-47138087D01*
X170795184Y-47861913D01*
X170650924Y-47627000D01*
X169437000Y-47627000D01*
X169437000Y-48986217D01*
X169602848Y-49072806D01*
X169494921Y-49144921D01*
X169183000Y-49456842D01*
X169183000Y-48986217D01*
X169183000Y-47627000D01*
X169183000Y-47373000D01*
X169183000Y-46013783D01*
X168950974Y-45892642D01*
X168935209Y-45895291D01*
X168407964Y-46149268D01*
X168040000Y-46561108D01*
X167672036Y-46149268D01*
X167144791Y-45895291D01*
X167129026Y-45892642D01*
X166897000Y-46013783D01*
X166897000Y-47373000D01*
X167969076Y-47373000D01*
X168110924Y-47373000D01*
X169183000Y-47373000D01*
X169183000Y-47627000D01*
X168110924Y-47627000D01*
X167969076Y-47627000D01*
X166897000Y-47627000D01*
X166897000Y-48986217D01*
X167129026Y-49107358D01*
X167144791Y-49104709D01*
X167672036Y-48850732D01*
X168040000Y-48438891D01*
X168407964Y-48850732D01*
X168935209Y-49104709D01*
X168950974Y-49107358D01*
X169183000Y-48986217D01*
X169183000Y-49456842D01*
X168244921Y-50394921D01*
X168074755Y-50649593D01*
X168015000Y-50950000D01*
X168015000Y-53524842D01*
X166074842Y-55465000D01*
X163461466Y-55465000D01*
X163541606Y-55385000D01*
X164350000Y-55385000D01*
X164650406Y-55325245D01*
X164650407Y-55325245D01*
X164905079Y-55155079D01*
X166280630Y-53779527D01*
X166463784Y-53779687D01*
X166860689Y-53615689D01*
X167164622Y-53312286D01*
X167329313Y-52915668D01*
X167329687Y-52486216D01*
X167165689Y-52089311D01*
X166862286Y-51785378D01*
X166679687Y-51709555D01*
X166679687Y-49586216D01*
X166515689Y-49189311D01*
X166426031Y-49099496D01*
X166643000Y-48986217D01*
X166643000Y-47627000D01*
X166623000Y-47627000D01*
X166623000Y-47373000D01*
X166643000Y-47373000D01*
X166643000Y-46013783D01*
X166410974Y-45892642D01*
X166395209Y-45895291D01*
X165867964Y-46149268D01*
X165496460Y-46565069D01*
X165289670Y-46255585D01*
X164803489Y-45930729D01*
X164230000Y-45816655D01*
X163656511Y-45930729D01*
X163170330Y-46255585D01*
X163155499Y-46277780D01*
X163091927Y-46124302D01*
X162913299Y-45945673D01*
X162679910Y-45849000D01*
X162427291Y-45849000D01*
X160700091Y-45849000D01*
X160466702Y-45945673D01*
X160288073Y-46124301D01*
X160191400Y-46357690D01*
X160191400Y-46610309D01*
X160191400Y-48642309D01*
X160285860Y-48870356D01*
X160236216Y-48870313D01*
X159982507Y-48975143D01*
X160170880Y-48510612D01*
X160162975Y-47449643D01*
X159772168Y-46506154D01*
X159398121Y-46281484D01*
X157679605Y-48000000D01*
X157693747Y-48014142D01*
X157514142Y-48193747D01*
X157500000Y-48179605D01*
X157320395Y-48359210D01*
X157320395Y-48000000D01*
X155601879Y-46281484D01*
X155227832Y-46506154D01*
X154829120Y-47489388D01*
X154837025Y-48550357D01*
X155227832Y-49493846D01*
X155601879Y-49718516D01*
X157320395Y-48000000D01*
X157320395Y-48359210D01*
X155781484Y-49898121D01*
X156006154Y-50272168D01*
X156989388Y-50670880D01*
X158050357Y-50662975D01*
X158993846Y-50272168D01*
X159218514Y-49898122D01*
X159218516Y-49898124D01*
X159331237Y-50010845D01*
X159370480Y-49971601D01*
X159370313Y-50163784D01*
X159534311Y-50560689D01*
X159837714Y-50864622D01*
X160234332Y-51029313D01*
X160663784Y-51029687D01*
X161060689Y-50865689D01*
X161341868Y-50585000D01*
X164858318Y-50585000D01*
X164987714Y-50714622D01*
X165384332Y-50879313D01*
X165813784Y-50879687D01*
X166210689Y-50715689D01*
X166514622Y-50412286D01*
X166679313Y-50015668D01*
X166679687Y-49586216D01*
X166679687Y-51709555D01*
X166465668Y-51620687D01*
X166036216Y-51620313D01*
X165639311Y-51784311D01*
X165335378Y-52087714D01*
X165170687Y-52484332D01*
X165170525Y-52669316D01*
X164024842Y-53815000D01*
X163541681Y-53815000D01*
X163412286Y-53685378D01*
X163015668Y-53520687D01*
X162586216Y-53520313D01*
X162189311Y-53684311D01*
X161885378Y-53987714D01*
X161720687Y-54384332D01*
X161720313Y-54813784D01*
X161884311Y-55210689D01*
X162138178Y-55465000D01*
X160141856Y-55465000D01*
X160112286Y-55435378D01*
X159715668Y-55270687D01*
X159286216Y-55270313D01*
X159218516Y-55298286D01*
X158889311Y-55434311D01*
X158585378Y-55737714D01*
X158420687Y-56134332D01*
X158420313Y-56563784D01*
X158584311Y-56960689D01*
X158887714Y-57264622D01*
X159284332Y-57429313D01*
X159713784Y-57429687D01*
X160110689Y-57265689D01*
X160341780Y-57035000D01*
X166400000Y-57035000D01*
X166700406Y-56975245D01*
X166700407Y-56975245D01*
X166955079Y-56805079D01*
X169355079Y-54405079D01*
X169525245Y-54150406D01*
X169585000Y-53850000D01*
X169585001Y-53850000D01*
X169585000Y-53849994D01*
X169585000Y-53651323D01*
X169670330Y-53779029D01*
X169941172Y-53960000D01*
X169670330Y-54140971D01*
X169345474Y-54627152D01*
X169231400Y-55200641D01*
X169231400Y-55259359D01*
X169345474Y-55832848D01*
X169670330Y-56319029D01*
X169941172Y-56500000D01*
X169670330Y-56680971D01*
X169345474Y-57167152D01*
X169231400Y-57740641D01*
X169231400Y-57799359D01*
X169290975Y-58098866D01*
X166894921Y-60494921D01*
X166724755Y-60749593D01*
X166665000Y-61050000D01*
X166665000Y-73017088D01*
X166515789Y-72793778D01*
X166054329Y-72485441D01*
X165510000Y-72377167D01*
X164965671Y-72485441D01*
X164504211Y-72793778D01*
X164240000Y-73189198D01*
X163975789Y-72793778D01*
X163514329Y-72485441D01*
X163435000Y-72469661D01*
X163435000Y-68500000D01*
X163375245Y-68199594D01*
X163375245Y-68199593D01*
X163205079Y-67944921D01*
X161205079Y-65944921D01*
X160950407Y-65774755D01*
X160650000Y-65715000D01*
X154134774Y-65715000D01*
X154134774Y-59675046D01*
X153886462Y-59074085D01*
X153427073Y-58613894D01*
X152826547Y-58364534D01*
X152176306Y-58363966D01*
X152083500Y-58402312D01*
X152083500Y-56324810D01*
X152083500Y-56072191D01*
X152083500Y-54675191D01*
X151986827Y-54441802D01*
X151808199Y-54263173D01*
X151574810Y-54166500D01*
X151322191Y-54166500D01*
X149925191Y-54166500D01*
X149691802Y-54263173D01*
X149585000Y-54369974D01*
X149585000Y-53041681D01*
X149714622Y-52912286D01*
X149879313Y-52515668D01*
X149879687Y-52086216D01*
X149715689Y-51689311D01*
X149412286Y-51385378D01*
X149015668Y-51220687D01*
X148586216Y-51220313D01*
X148189311Y-51384311D01*
X147885378Y-51687714D01*
X147720687Y-52084332D01*
X147720313Y-52513784D01*
X147884311Y-52910689D01*
X148015000Y-53041606D01*
X148015000Y-54323696D01*
X147989311Y-54334311D01*
X147685378Y-54637714D01*
X147520687Y-55034332D01*
X147520313Y-55463784D01*
X147684311Y-55860689D01*
X147987714Y-56164622D01*
X148384332Y-56329313D01*
X148813784Y-56329687D01*
X149210689Y-56165689D01*
X149416500Y-55960236D01*
X149416500Y-56324809D01*
X149513173Y-56558198D01*
X149691801Y-56736827D01*
X149925190Y-56833500D01*
X150177809Y-56833500D01*
X151574809Y-56833500D01*
X151808198Y-56736827D01*
X151986827Y-56558199D01*
X152083500Y-56324810D01*
X152083500Y-58402312D01*
X151575345Y-58612278D01*
X151115154Y-59071667D01*
X150865794Y-59672193D01*
X150865226Y-60322434D01*
X151113538Y-60923395D01*
X151572927Y-61383586D01*
X152173453Y-61632946D01*
X152823694Y-61633514D01*
X153424655Y-61385202D01*
X153884846Y-60925813D01*
X154134206Y-60325287D01*
X154134774Y-59675046D01*
X154134774Y-65715000D01*
X153191681Y-65715000D01*
X153062286Y-65585378D01*
X152665668Y-65420687D01*
X152236216Y-65420313D01*
X151839311Y-65584311D01*
X151535378Y-65887714D01*
X151370687Y-66284332D01*
X151370313Y-66713784D01*
X151534311Y-67110689D01*
X151837714Y-67414622D01*
X152234332Y-67579313D01*
X152663784Y-67579687D01*
X153060689Y-67415689D01*
X153191606Y-67285000D01*
X160324842Y-67285000D01*
X161865000Y-68825158D01*
X161865000Y-72942258D01*
X161700000Y-73189198D01*
X161435789Y-72793778D01*
X160974329Y-72485441D01*
X160430000Y-72377167D01*
X159885671Y-72485441D01*
X159424211Y-72793778D01*
X159160000Y-73189198D01*
X158895789Y-72793778D01*
X158434329Y-72485441D01*
X157890000Y-72377167D01*
X157345671Y-72485441D01*
X156884211Y-72793778D01*
X156620000Y-73189198D01*
X156355789Y-72793778D01*
X155894329Y-72485441D01*
X155350000Y-72377167D01*
X154805671Y-72485441D01*
X154344211Y-72793778D01*
X154134774Y-73107222D01*
X154134774Y-69835046D01*
X153886462Y-69234085D01*
X153427073Y-68773894D01*
X152826547Y-68524534D01*
X152176306Y-68523966D01*
X151575345Y-68772278D01*
X151115154Y-69231667D01*
X150865794Y-69832193D01*
X150865226Y-70482434D01*
X151113538Y-71083395D01*
X151572927Y-71543586D01*
X152173453Y-71792946D01*
X152823694Y-71793514D01*
X153424655Y-71545202D01*
X153884846Y-71085813D01*
X154134206Y-70485287D01*
X154134774Y-69835046D01*
X154134774Y-73107222D01*
X154080000Y-73189198D01*
X153815789Y-72793778D01*
X153354329Y-72485441D01*
X152810000Y-72377167D01*
X152265671Y-72485441D01*
X151804211Y-72793778D01*
X151540000Y-73189198D01*
X151275789Y-72793778D01*
X150814329Y-72485441D01*
X150270000Y-72377167D01*
X149725671Y-72485441D01*
X149264211Y-72793778D01*
X149000246Y-73188829D01*
X148995525Y-73172738D01*
X148645986Y-72738809D01*
X148156996Y-72471673D01*
X148077060Y-72454990D01*
X147857000Y-72577148D01*
X147857000Y-74063000D01*
X147877000Y-74063000D01*
X147877000Y-74317000D01*
X147857000Y-74317000D01*
X147857000Y-74337000D01*
X147603000Y-74337000D01*
X147603000Y-74317000D01*
X147583000Y-74317000D01*
X147583000Y-74063000D01*
X147603000Y-74063000D01*
X147603000Y-72577148D01*
X147382940Y-72454990D01*
X147303004Y-72471673D01*
X147146792Y-72557011D01*
X147005079Y-72344921D01*
X146779527Y-72119369D01*
X146779687Y-71936216D01*
X146615689Y-71539311D01*
X146312286Y-71235378D01*
X145915668Y-71070687D01*
X145535000Y-71070355D01*
X145535000Y-68841769D01*
X145614622Y-68762286D01*
X145779313Y-68365668D01*
X145779473Y-68181460D01*
X146343489Y-68069271D01*
X146829670Y-67744415D01*
X147040000Y-67429634D01*
X147250330Y-67744415D01*
X147736511Y-68069271D01*
X148310000Y-68183345D01*
X148883489Y-68069271D01*
X149369670Y-67744415D01*
X149694526Y-67258234D01*
X149808600Y-66684745D01*
X149808600Y-66315255D01*
X149694526Y-65741766D01*
X149369670Y-65255585D01*
X148883489Y-64930729D01*
X148310000Y-64816655D01*
X148029387Y-64872472D01*
X148205079Y-64755079D01*
X149605079Y-63355079D01*
X149775245Y-63100407D01*
X149775245Y-63100406D01*
X149835000Y-62800000D01*
X149835000Y-62041681D01*
X149964622Y-61912286D01*
X150129313Y-61515668D01*
X150129687Y-61086216D01*
X149965689Y-60689311D01*
X149662286Y-60385378D01*
X149265668Y-60220687D01*
X148836216Y-60220313D01*
X148439311Y-60384311D01*
X148135378Y-60687714D01*
X147970687Y-61084332D01*
X147970313Y-61513784D01*
X148134311Y-61910689D01*
X148265000Y-62041606D01*
X148265000Y-62474842D01*
X147813590Y-62926251D01*
X147715689Y-62689311D01*
X147412286Y-62385378D01*
X147015668Y-62220687D01*
X146586216Y-62220313D01*
X146189311Y-62384311D01*
X145958219Y-62615000D01*
X144595927Y-62615000D01*
X144595927Y-55692520D01*
X144567148Y-55162801D01*
X144419800Y-54807071D01*
X144184188Y-54745417D01*
X144004583Y-54925022D01*
X144004583Y-54565812D01*
X143942929Y-54330200D01*
X143442520Y-54154073D01*
X142912801Y-54182852D01*
X142557071Y-54330200D01*
X142495417Y-54565812D01*
X143250000Y-55320395D01*
X144004583Y-54565812D01*
X144004583Y-54925022D01*
X143429605Y-55500000D01*
X144184188Y-56254583D01*
X144419800Y-56192929D01*
X144595927Y-55692520D01*
X144595927Y-62615000D01*
X144004583Y-62615000D01*
X144004583Y-56434188D01*
X143250000Y-55679605D01*
X143070395Y-55859210D01*
X143070395Y-55500000D01*
X142315812Y-54745417D01*
X142080200Y-54807071D01*
X141904073Y-55307480D01*
X141932852Y-55837199D01*
X142080200Y-56192929D01*
X142315812Y-56254583D01*
X143070395Y-55500000D01*
X143070395Y-55859210D01*
X142495417Y-56434188D01*
X142557071Y-56669800D01*
X143057480Y-56845927D01*
X143587199Y-56817148D01*
X143942929Y-56669800D01*
X144004583Y-56434188D01*
X144004583Y-62615000D01*
X143750000Y-62615000D01*
X143449594Y-62674755D01*
X143194921Y-62844921D01*
X142474842Y-63565000D01*
X142358828Y-63565000D01*
X142379313Y-63515668D01*
X142379687Y-63086216D01*
X142215689Y-62689311D01*
X141912286Y-62385378D01*
X141515668Y-62220687D01*
X141330683Y-62220525D01*
X140935000Y-61824842D01*
X140935000Y-52991681D01*
X141064622Y-52862286D01*
X141229313Y-52465668D01*
X141229687Y-52036216D01*
X141065689Y-51639311D01*
X140762286Y-51335378D01*
X140365668Y-51170687D01*
X139936216Y-51170313D01*
X139539311Y-51334311D01*
X139235378Y-51637714D01*
X139070687Y-52034332D01*
X139070313Y-52463784D01*
X139234311Y-52860689D01*
X139365000Y-52991606D01*
X139365000Y-62150000D01*
X139424755Y-62450407D01*
X139594921Y-62705079D01*
X140220472Y-63330630D01*
X140220313Y-63513784D01*
X140241475Y-63565000D01*
X139450000Y-63565000D01*
X139149594Y-63624755D01*
X139081092Y-63670526D01*
X138845927Y-63670321D01*
X138845927Y-60112520D01*
X138817148Y-59582801D01*
X138669800Y-59227071D01*
X138434188Y-59165417D01*
X138254583Y-59345022D01*
X138254583Y-58985812D01*
X138192929Y-58750200D01*
X137692520Y-58574073D01*
X137162801Y-58602852D01*
X136807071Y-58750200D01*
X136745417Y-58985812D01*
X137500000Y-59740395D01*
X138254583Y-58985812D01*
X138254583Y-59345022D01*
X137679605Y-59920000D01*
X138434188Y-60674583D01*
X138669800Y-60612929D01*
X138845927Y-60112520D01*
X138845927Y-63670321D01*
X138836216Y-63670313D01*
X138439311Y-63834311D01*
X138254583Y-64018716D01*
X138254583Y-60854188D01*
X137500000Y-60099605D01*
X137320395Y-60279210D01*
X137320395Y-59920000D01*
X136565812Y-59165417D01*
X136330200Y-59227071D01*
X136154073Y-59727480D01*
X136182852Y-60257199D01*
X136330200Y-60612929D01*
X136565812Y-60674583D01*
X137320395Y-59920000D01*
X137320395Y-60279210D01*
X136745417Y-60854188D01*
X136807071Y-61089800D01*
X137307480Y-61265927D01*
X137837199Y-61237148D01*
X138192929Y-61089800D01*
X138254583Y-60854188D01*
X138254583Y-64018716D01*
X138135378Y-64137714D01*
X137970687Y-64534332D01*
X137970313Y-64963784D01*
X138134311Y-65360689D01*
X138138614Y-65365000D01*
X136500000Y-65365000D01*
X136065655Y-65451396D01*
X135794000Y-65632910D01*
X135794000Y-64785750D01*
X135794000Y-64214250D01*
X135794000Y-63356309D01*
X135794000Y-63103690D01*
X135697327Y-62870301D01*
X135518698Y-62691673D01*
X135285309Y-62595000D01*
X134809750Y-62595000D01*
X134651000Y-62753750D01*
X134651000Y-64373000D01*
X135635250Y-64373000D01*
X135794000Y-64214250D01*
X135794000Y-64785750D01*
X135635250Y-64627000D01*
X134651000Y-64627000D01*
X134651000Y-66246250D01*
X134809750Y-66405000D01*
X134989868Y-66405000D01*
X134397000Y-66997868D01*
X134397000Y-66246250D01*
X134397000Y-64627000D01*
X133412750Y-64627000D01*
X133254000Y-64785750D01*
X133254000Y-65643691D01*
X133254000Y-65896310D01*
X133350673Y-66129699D01*
X133529302Y-66308327D01*
X133762691Y-66405000D01*
X134238250Y-66405000D01*
X134397000Y-66246250D01*
X134397000Y-66997868D01*
X132611000Y-68783868D01*
X132611000Y-66168025D01*
X132649327Y-66129699D01*
X132746000Y-65896310D01*
X132746000Y-65643691D01*
X132746000Y-64835132D01*
X133052566Y-64528566D01*
X133259146Y-64219396D01*
X133412750Y-64373000D01*
X134397000Y-64373000D01*
X134397000Y-62753750D01*
X134238250Y-62595000D01*
X133762691Y-62595000D01*
X133529302Y-62691673D01*
X133385000Y-62835974D01*
X133385000Y-56410025D01*
X133486827Y-56308199D01*
X133583500Y-56074810D01*
X133583500Y-55822191D01*
X133583500Y-54425191D01*
X133486827Y-54191802D01*
X133308199Y-54013173D01*
X133074810Y-53916500D01*
X132822191Y-53916500D01*
X131425191Y-53916500D01*
X131191802Y-54013173D01*
X131013173Y-54191801D01*
X130916500Y-54425190D01*
X130916500Y-54677809D01*
X130916500Y-56074809D01*
X131013173Y-56308198D01*
X131115000Y-56410025D01*
X131115000Y-62595000D01*
X130714691Y-62595000D01*
X130603731Y-62640961D01*
X130603731Y-57965914D01*
X130603731Y-49465914D01*
X130401146Y-48975620D01*
X130026353Y-48600173D01*
X129536413Y-48396732D01*
X129005914Y-48396269D01*
X128515620Y-48598854D01*
X128140173Y-48973647D01*
X127999906Y-49311446D01*
X127861146Y-48975620D01*
X127486353Y-48600173D01*
X126996413Y-48396732D01*
X126670029Y-48396447D01*
X126662975Y-47449643D01*
X126272168Y-46506154D01*
X125898121Y-46281484D01*
X124179605Y-48000000D01*
X124193747Y-48014142D01*
X124014142Y-48193747D01*
X124000000Y-48179605D01*
X122281484Y-49898121D01*
X122506154Y-50272168D01*
X123489388Y-50670880D01*
X124550357Y-50662975D01*
X125493846Y-50272168D01*
X125504109Y-50255080D01*
X125598854Y-50484380D01*
X125973647Y-50859827D01*
X126463587Y-51063268D01*
X126994086Y-51063731D01*
X127484380Y-50861146D01*
X127859827Y-50486353D01*
X128000093Y-50148553D01*
X128138854Y-50484380D01*
X128513647Y-50859827D01*
X128698295Y-50936500D01*
X128697809Y-50936500D01*
X128445190Y-50936500D01*
X128211801Y-51033173D01*
X128033173Y-51211802D01*
X127936500Y-51445191D01*
X127936500Y-51984250D01*
X128095250Y-52143000D01*
X129143000Y-52143000D01*
X129143000Y-52123000D01*
X129397000Y-52123000D01*
X129397000Y-52143000D01*
X130444750Y-52143000D01*
X130603500Y-51984250D01*
X130603500Y-51445191D01*
X130506827Y-51211802D01*
X130328199Y-51033173D01*
X130094810Y-50936500D01*
X129842191Y-50936500D01*
X129842009Y-50936500D01*
X130024380Y-50861146D01*
X130399827Y-50486353D01*
X130603268Y-49996413D01*
X130603731Y-49465914D01*
X130603731Y-57965914D01*
X130603500Y-57965354D01*
X130603500Y-53094809D01*
X130603500Y-52555750D01*
X130444750Y-52397000D01*
X129397000Y-52397000D01*
X129397000Y-53444750D01*
X129555750Y-53603500D01*
X129842191Y-53603500D01*
X130094810Y-53603500D01*
X130328199Y-53506827D01*
X130506827Y-53328198D01*
X130603500Y-53094809D01*
X130603500Y-57965354D01*
X130401146Y-57475620D01*
X130026353Y-57100173D01*
X129536413Y-56896732D01*
X129143000Y-56896388D01*
X129143000Y-53444750D01*
X129143000Y-52397000D01*
X128095250Y-52397000D01*
X127936500Y-52555750D01*
X127936500Y-53094809D01*
X128033173Y-53328198D01*
X128211801Y-53506827D01*
X128445190Y-53603500D01*
X128697809Y-53603500D01*
X128984250Y-53603500D01*
X129143000Y-53444750D01*
X129143000Y-56896388D01*
X129005914Y-56896269D01*
X128515620Y-57098854D01*
X128140173Y-57473647D01*
X127936732Y-57963587D01*
X127936269Y-58494086D01*
X128138854Y-58984380D01*
X128513647Y-59359827D01*
X128698295Y-59436500D01*
X128445191Y-59436500D01*
X128211802Y-59533173D01*
X128033173Y-59711801D01*
X127936500Y-59945190D01*
X127936500Y-60197809D01*
X127936500Y-60197990D01*
X127861146Y-60015620D01*
X127535000Y-59688904D01*
X127535000Y-56991681D01*
X127664622Y-56862286D01*
X127829313Y-56465668D01*
X127829687Y-56036216D01*
X127665689Y-55639311D01*
X127362286Y-55335378D01*
X126965668Y-55170687D01*
X126536216Y-55170313D01*
X126139311Y-55334311D01*
X126079698Y-55393819D01*
X126067148Y-55162801D01*
X125919800Y-54807071D01*
X125684188Y-54745417D01*
X125504583Y-54925022D01*
X125504583Y-54565812D01*
X125442929Y-54330200D01*
X124942520Y-54154073D01*
X124412801Y-54182852D01*
X124057071Y-54330200D01*
X123995417Y-54565812D01*
X124750000Y-55320395D01*
X125504583Y-54565812D01*
X125504583Y-54925022D01*
X124929605Y-55500000D01*
X124943747Y-55514142D01*
X124764142Y-55693747D01*
X124750000Y-55679605D01*
X124570395Y-55859210D01*
X124570395Y-55500000D01*
X123815812Y-54745417D01*
X123580200Y-54807071D01*
X123404073Y-55307480D01*
X123432852Y-55837199D01*
X123580200Y-56192929D01*
X123815812Y-56254583D01*
X124570395Y-55500000D01*
X124570395Y-55859210D01*
X123995417Y-56434188D01*
X124057071Y-56669800D01*
X124557480Y-56845927D01*
X125087199Y-56817148D01*
X125442929Y-56669800D01*
X125504582Y-56434190D01*
X125504583Y-56434191D01*
X125619837Y-56549445D01*
X125680600Y-56488681D01*
X125834311Y-56860689D01*
X125965000Y-56991606D01*
X125965000Y-59649455D01*
X125600173Y-60013647D01*
X125504583Y-60243853D01*
X125396732Y-60503587D01*
X125396269Y-61034086D01*
X125598854Y-61524380D01*
X125973647Y-61899827D01*
X126463587Y-62103268D01*
X126994086Y-62103731D01*
X127484380Y-61901146D01*
X127859827Y-61526353D01*
X127936500Y-61341704D01*
X127936500Y-61594809D01*
X128033173Y-61828198D01*
X128211801Y-62006827D01*
X128445190Y-62103500D01*
X128697809Y-62103500D01*
X130094809Y-62103500D01*
X130328198Y-62006827D01*
X130506827Y-61828199D01*
X130603500Y-61594810D01*
X130603500Y-61342191D01*
X130603500Y-59945191D01*
X130506827Y-59711802D01*
X130328199Y-59533173D01*
X130094810Y-59436500D01*
X129842191Y-59436500D01*
X129842009Y-59436500D01*
X130024380Y-59361146D01*
X130399827Y-58986353D01*
X130603268Y-58496413D01*
X130603731Y-57965914D01*
X130603731Y-62640961D01*
X130481302Y-62691673D01*
X130302673Y-62870301D01*
X130206000Y-63103690D01*
X130206000Y-63356309D01*
X130206000Y-65896309D01*
X130302673Y-66129698D01*
X130341000Y-66168025D01*
X130341000Y-67720578D01*
X130036216Y-67720313D01*
X129639311Y-67884311D01*
X129335378Y-68187714D01*
X129170687Y-68584332D01*
X129170313Y-69013784D01*
X129334311Y-69410689D01*
X129465000Y-69541606D01*
X129465000Y-70520425D01*
X129336216Y-70520313D01*
X128939311Y-70684311D01*
X128916072Y-70707508D01*
X128913885Y-70696511D01*
X128589029Y-70210330D01*
X128567976Y-70196263D01*
X128723298Y-70131927D01*
X128901927Y-69953299D01*
X128998600Y-69719910D01*
X128998600Y-69467291D01*
X128998600Y-67740091D01*
X128901927Y-67506702D01*
X128723299Y-67328073D01*
X128489910Y-67231400D01*
X128237291Y-67231400D01*
X126510091Y-67231400D01*
X126276702Y-67328073D01*
X126098073Y-67506701D01*
X126001400Y-67740090D01*
X126001400Y-67992709D01*
X126001400Y-69719909D01*
X126098073Y-69953298D01*
X126276701Y-70131927D01*
X126432022Y-70196263D01*
X126410971Y-70210330D01*
X126086115Y-70696511D01*
X125972041Y-71270000D01*
X126086115Y-71843489D01*
X126410971Y-72329670D01*
X126422110Y-72337113D01*
X126451397Y-72484346D01*
X126697434Y-72852566D01*
X128247434Y-74402566D01*
X128615654Y-74648603D01*
X128615655Y-74648603D01*
X129050000Y-74735000D01*
X129400000Y-74735000D01*
X129834345Y-74648603D01*
X129834346Y-74648603D01*
X130202566Y-74402566D01*
X131132664Y-73472467D01*
X131067600Y-73799567D01*
X131067600Y-74580433D01*
X131175874Y-75124762D01*
X131484211Y-75586222D01*
X131945671Y-75894559D01*
X132490000Y-76002833D01*
X132509989Y-75998856D01*
X132370687Y-76334332D01*
X132370313Y-76763784D01*
X132534311Y-77160689D01*
X132837714Y-77464622D01*
X133234332Y-77629313D01*
X133663784Y-77629687D01*
X134060689Y-77465689D01*
X134191606Y-77335000D01*
X136208318Y-77335000D01*
X136337714Y-77464622D01*
X136734332Y-77629313D01*
X137163784Y-77629687D01*
X137560689Y-77465689D01*
X137864622Y-77162286D01*
X138029313Y-76765668D01*
X138029687Y-76336216D01*
X137867485Y-75943659D01*
X138114329Y-75894559D01*
X138575789Y-75586222D01*
X138840000Y-75190801D01*
X139104211Y-75586222D01*
X139565671Y-75894559D01*
X140110000Y-76002833D01*
X140654329Y-75894559D01*
X141115789Y-75586222D01*
X141380000Y-75190801D01*
X141568153Y-75472393D01*
X141539311Y-75484311D01*
X141385597Y-75637756D01*
X141199593Y-75674755D01*
X140944921Y-75844921D01*
X140269369Y-76520472D01*
X140086216Y-76520313D01*
X139689311Y-76684311D01*
X139385378Y-76987714D01*
X139220687Y-77384332D01*
X139220313Y-77813784D01*
X139384311Y-78210689D01*
X139687714Y-78514622D01*
X140084332Y-78679313D01*
X140513784Y-78679687D01*
X140910689Y-78515689D01*
X141214622Y-78212286D01*
X141379313Y-77815668D01*
X141379474Y-77630683D01*
X141649230Y-77360927D01*
X141934332Y-77479313D01*
X142363784Y-77479687D01*
X142760689Y-77315689D01*
X143064622Y-77012286D01*
X143165000Y-76770550D01*
X143165000Y-80099607D01*
X142650000Y-79997167D01*
X142105671Y-80105441D01*
X141644211Y-80413778D01*
X141380000Y-80809198D01*
X141115789Y-80413778D01*
X140654329Y-80105441D01*
X140110000Y-79997167D01*
X139565671Y-80105441D01*
X139104211Y-80413778D01*
X138840000Y-80809198D01*
X138575789Y-80413778D01*
X138114329Y-80105441D01*
X137570000Y-79997167D01*
X137025671Y-80105441D01*
X136564211Y-80413778D01*
X136300000Y-80809198D01*
X136035789Y-80413778D01*
X135574329Y-80105441D01*
X135030000Y-79997167D01*
X134485671Y-80105441D01*
X134024211Y-80413778D01*
X133912400Y-80581115D01*
X133912400Y-80540691D01*
X133815727Y-80307302D01*
X133637099Y-80128673D01*
X133403710Y-80032000D01*
X133151091Y-80032000D01*
X131576291Y-80032000D01*
X131342902Y-80128673D01*
X131164273Y-80307301D01*
X131067600Y-80540690D01*
X131067600Y-80793309D01*
X131067600Y-83079309D01*
X131164273Y-83312698D01*
X131342901Y-83491327D01*
X131576290Y-83588000D01*
X131828909Y-83588000D01*
X133403709Y-83588000D01*
X133637098Y-83491327D01*
X133815727Y-83312699D01*
X133912400Y-83079310D01*
X133912400Y-83038884D01*
X134024211Y-83206222D01*
X134485671Y-83514559D01*
X135030000Y-83622833D01*
X135498135Y-83529714D01*
X135615000Y-83646579D01*
X135615000Y-85233420D01*
X134774210Y-86074210D01*
X134582367Y-86361325D01*
X134571189Y-86417515D01*
X134514999Y-86700000D01*
X134515000Y-86700005D01*
X134515000Y-88499994D01*
X134514999Y-88500000D01*
X134571189Y-88782484D01*
X134582367Y-88838675D01*
X134774210Y-89125790D01*
X136574207Y-90925786D01*
X136574210Y-90925790D01*
X136861325Y-91117633D01*
X137200000Y-91185000D01*
X143783420Y-91185000D01*
X144212016Y-91613596D01*
X144137964Y-91649268D01*
X143766460Y-92065069D01*
X143559670Y-91755585D01*
X143073489Y-91430729D01*
X142500000Y-91316655D01*
X141926511Y-91430729D01*
X141440330Y-91755585D01*
X141425499Y-91777780D01*
X141361927Y-91624302D01*
X141183299Y-91445673D01*
X140949910Y-91349000D01*
X140697291Y-91349000D01*
X138970091Y-91349000D01*
X138736702Y-91445673D01*
X138558073Y-91624301D01*
X138461400Y-91857690D01*
X138461400Y-92110309D01*
X138461400Y-94142309D01*
X138558073Y-94375698D01*
X138736701Y-94554327D01*
X138970090Y-94651000D01*
X139222709Y-94651000D01*
X140949909Y-94651000D01*
X141183298Y-94554327D01*
X141361927Y-94375699D01*
X141425500Y-94222220D01*
X141440330Y-94244415D01*
X141926511Y-94569271D01*
X142500000Y-94683345D01*
X143073489Y-94569271D01*
X143559670Y-94244415D01*
X143766460Y-93934930D01*
X144137964Y-94350732D01*
X144665209Y-94604709D01*
X144680974Y-94607358D01*
X144913000Y-94486217D01*
X144913000Y-93127000D01*
X144893000Y-93127000D01*
X144893000Y-92873000D01*
X144913000Y-92873000D01*
X144913000Y-92853000D01*
X145167000Y-92853000D01*
X145167000Y-92873000D01*
X146380924Y-92873000D01*
X146525184Y-92638087D01*
X146366695Y-92185000D01*
X147823304Y-92185000D01*
X147664816Y-92638087D01*
X147809076Y-92873000D01*
X149023000Y-92873000D01*
X149023000Y-92853000D01*
X149277000Y-92853000D01*
X149277000Y-92873000D01*
X150349076Y-92873000D01*
X150490924Y-92873000D01*
X151563000Y-92873000D01*
X151563000Y-92853000D01*
X151817000Y-92853000D01*
X151817000Y-92873000D01*
X151837000Y-92873000D01*
X151837000Y-93127000D01*
X151817000Y-93127000D01*
X151817000Y-94486217D01*
X152049026Y-94607358D01*
X152064791Y-94604709D01*
X152592036Y-94350732D01*
X152963539Y-93934930D01*
X153170330Y-94244415D01*
X153656511Y-94569271D01*
X154230000Y-94683345D01*
X154803489Y-94569271D01*
X155289670Y-94244415D01*
X155500000Y-93929634D01*
X155710330Y-94244415D01*
X156196511Y-94569271D01*
X156770000Y-94683345D01*
X157343489Y-94569271D01*
X157829670Y-94244415D01*
X158040000Y-93929634D01*
X158250330Y-94244415D01*
X158736511Y-94569271D01*
X159310000Y-94683345D01*
X159883489Y-94569271D01*
X160369670Y-94244415D01*
X160384499Y-94222220D01*
X160448073Y-94375699D01*
X160626702Y-94554327D01*
X160860091Y-94651000D01*
X161564250Y-94651000D01*
X161723000Y-94492250D01*
X161723000Y-93127000D01*
X161703000Y-93127000D01*
X161703000Y-92873000D01*
X161723000Y-92873000D01*
X161723000Y-91507750D01*
X161564250Y-91349000D01*
X160860091Y-91349000D01*
X160626702Y-91445673D01*
X160448073Y-91624301D01*
X160384499Y-91777779D01*
X160369670Y-91755585D01*
X159883489Y-91430729D01*
X159310000Y-91316655D01*
X158736511Y-91430729D01*
X158250330Y-91755585D01*
X158040000Y-92070365D01*
X157886434Y-91840538D01*
X157886434Y-86733399D01*
X157681919Y-86238435D01*
X157303557Y-85859412D01*
X156808951Y-85654034D01*
X156273399Y-85653566D01*
X155778435Y-85858081D01*
X155399412Y-86236443D01*
X155194034Y-86731049D01*
X155193566Y-87266601D01*
X155398081Y-87761565D01*
X155776443Y-88140588D01*
X156271049Y-88345966D01*
X156806601Y-88346434D01*
X157301565Y-88141919D01*
X157680588Y-87763557D01*
X157885966Y-87268951D01*
X157886434Y-86733399D01*
X157886434Y-91840538D01*
X157829670Y-91755585D01*
X157343489Y-91430729D01*
X156770000Y-91316655D01*
X156409868Y-91388289D01*
X154845790Y-89824210D01*
X154558675Y-89632367D01*
X154502484Y-89621189D01*
X154220000Y-89564999D01*
X154219994Y-89565000D01*
X152806434Y-89565000D01*
X152806434Y-86733399D01*
X152601919Y-86238435D01*
X152223557Y-85859412D01*
X151728951Y-85654034D01*
X151193399Y-85653566D01*
X150698435Y-85858081D01*
X150319412Y-86236443D01*
X150114034Y-86731049D01*
X150113566Y-87266601D01*
X150318081Y-87761565D01*
X150696443Y-88140588D01*
X151191049Y-88345966D01*
X151726601Y-88346434D01*
X152221565Y-88141919D01*
X152600588Y-87763557D01*
X152805966Y-87268951D01*
X152806434Y-86733399D01*
X152806434Y-89565000D01*
X146166579Y-89565000D01*
X145375790Y-88774210D01*
X145088675Y-88582367D01*
X145032484Y-88571189D01*
X144750000Y-88514999D01*
X144749994Y-88515000D01*
X138811815Y-88515000D01*
X138864622Y-88462286D01*
X139029313Y-88065668D01*
X139029474Y-87880683D01*
X140075158Y-86835000D01*
X144758318Y-86835000D01*
X144887714Y-86964622D01*
X145284332Y-87129313D01*
X145713784Y-87129687D01*
X146110689Y-86965689D01*
X146414622Y-86662286D01*
X146579313Y-86265668D01*
X146579687Y-85836216D01*
X146415689Y-85439311D01*
X146112286Y-85135378D01*
X145715668Y-84970687D01*
X145286216Y-84970313D01*
X144889311Y-85134311D01*
X144758393Y-85265000D01*
X139750000Y-85265000D01*
X139449594Y-85324755D01*
X139194921Y-85494921D01*
X138441383Y-86248458D01*
X138455000Y-86180000D01*
X138455001Y-86180000D01*
X138455000Y-86179994D01*
X138455000Y-83286930D01*
X138575789Y-83206222D01*
X138840000Y-82810801D01*
X139104211Y-83206222D01*
X139565671Y-83514559D01*
X140110000Y-83622833D01*
X140654329Y-83514559D01*
X141115789Y-83206222D01*
X141380000Y-82810801D01*
X141644211Y-83206222D01*
X142105671Y-83514559D01*
X142650000Y-83622833D01*
X143194329Y-83514559D01*
X143655789Y-83206222D01*
X143920000Y-82810801D01*
X144184211Y-83206222D01*
X144645671Y-83514559D01*
X145190000Y-83622833D01*
X145734329Y-83514559D01*
X146195789Y-83206222D01*
X146460000Y-82810801D01*
X146724211Y-83206222D01*
X147185671Y-83514559D01*
X147730000Y-83622833D01*
X148274329Y-83514559D01*
X148735789Y-83206222D01*
X148999753Y-82811170D01*
X149004475Y-82827262D01*
X149354014Y-83261191D01*
X149843004Y-83528327D01*
X149922940Y-83545010D01*
X150143000Y-83422852D01*
X150143000Y-81937000D01*
X150123000Y-81937000D01*
X150123000Y-81683000D01*
X150143000Y-81683000D01*
X150143000Y-80197148D01*
X149922940Y-80074990D01*
X149843004Y-80091673D01*
X149354014Y-80358809D01*
X149004475Y-80792738D01*
X148999753Y-80808829D01*
X148735789Y-80413778D01*
X148274329Y-80105441D01*
X147730000Y-79997167D01*
X147185671Y-80105441D01*
X146724211Y-80413778D01*
X146460000Y-80809198D01*
X146195789Y-80413778D01*
X145734329Y-80105441D01*
X145190000Y-79997167D01*
X144735000Y-80087672D01*
X144735000Y-79361553D01*
X144937714Y-79564622D01*
X145334332Y-79729313D01*
X145763784Y-79729687D01*
X146160689Y-79565689D01*
X146341693Y-79385000D01*
X146858318Y-79385000D01*
X146987714Y-79514622D01*
X147384332Y-79679313D01*
X147813784Y-79679687D01*
X148210689Y-79515689D01*
X148514622Y-79212286D01*
X148679313Y-78815668D01*
X148679687Y-78386216D01*
X148515689Y-77989311D01*
X148486361Y-77959932D01*
X148629313Y-77615668D01*
X148629518Y-77379526D01*
X148813784Y-77379687D01*
X149210689Y-77215689D01*
X149514622Y-76912286D01*
X149679313Y-76515668D01*
X149679687Y-76086216D01*
X149552756Y-75779021D01*
X149725671Y-75894559D01*
X150270000Y-76002833D01*
X150814329Y-75894559D01*
X151275789Y-75586222D01*
X151540000Y-75190801D01*
X151661083Y-75372016D01*
X151389311Y-75484311D01*
X151085378Y-75787714D01*
X150920687Y-76184332D01*
X150920313Y-76613784D01*
X151084311Y-77010689D01*
X151387714Y-77314622D01*
X151784332Y-77479313D01*
X151969316Y-77479474D01*
X152415000Y-77925158D01*
X152415000Y-79050000D01*
X152474755Y-79350407D01*
X152644921Y-79605079D01*
X153093376Y-80053534D01*
X152810000Y-79997167D01*
X152265671Y-80105441D01*
X151804211Y-80413778D01*
X151540246Y-80808829D01*
X151535525Y-80792738D01*
X151185986Y-80358809D01*
X150696996Y-80091673D01*
X150617060Y-80074990D01*
X150397000Y-80197148D01*
X150397000Y-81683000D01*
X150417000Y-81683000D01*
X150417000Y-81937000D01*
X150397000Y-81937000D01*
X150397000Y-83422852D01*
X150617060Y-83545010D01*
X150696996Y-83528327D01*
X151185986Y-83261191D01*
X151535525Y-82827262D01*
X151540246Y-82811170D01*
X151804211Y-83206222D01*
X152265671Y-83514559D01*
X152810000Y-83622833D01*
X153354329Y-83514559D01*
X153815789Y-83206222D01*
X154080000Y-82810801D01*
X154344211Y-83206222D01*
X154805671Y-83514559D01*
X155350000Y-83622833D01*
X155894329Y-83514559D01*
X156355789Y-83206222D01*
X156620000Y-82810801D01*
X156884211Y-83206222D01*
X157345671Y-83514559D01*
X157890000Y-83622833D01*
X158434329Y-83514559D01*
X158895789Y-83206222D01*
X159160000Y-82810801D01*
X159424211Y-83206222D01*
X159885671Y-83514559D01*
X160430000Y-83622833D01*
X160974329Y-83514559D01*
X161435789Y-83206222D01*
X161700000Y-82810801D01*
X161964211Y-83206222D01*
X162425671Y-83514559D01*
X162970000Y-83622833D01*
X163514329Y-83514559D01*
X163975789Y-83206222D01*
X164240000Y-82810801D01*
X164504211Y-83206222D01*
X164965671Y-83514559D01*
X165510000Y-83622833D01*
X166054329Y-83514559D01*
X166515789Y-83206222D01*
X166824126Y-82744762D01*
X166853915Y-82595000D01*
X167790000Y-82595000D01*
X168090406Y-82535245D01*
X168090407Y-82535245D01*
X168345079Y-82365079D01*
X168905079Y-81805079D01*
X169075245Y-81550406D01*
X169135000Y-81250000D01*
X169135001Y-81250000D01*
X169135000Y-81249994D01*
X169135000Y-71550000D01*
X169135000Y-65641681D01*
X169264622Y-65512286D01*
X169429313Y-65115668D01*
X169429687Y-64686216D01*
X169265689Y-64289311D01*
X168962286Y-63985378D01*
X168565668Y-63820687D01*
X168235000Y-63820399D01*
X168235000Y-61375157D01*
X169237936Y-60372220D01*
X169345474Y-60912848D01*
X169645000Y-61361120D01*
X169645000Y-61630000D01*
X169727591Y-62045212D01*
X169962789Y-62397211D01*
X170982789Y-63417211D01*
X171289333Y-63622037D01*
X171165668Y-63570687D01*
X170736216Y-63570313D01*
X170339311Y-63734311D01*
X170035378Y-64037714D01*
X169870687Y-64434332D01*
X169870525Y-64619316D01*
X169844921Y-64644921D01*
X169674755Y-64899593D01*
X169615000Y-65200000D01*
X169615000Y-76670000D01*
X169674755Y-76970407D01*
X169844921Y-77225079D01*
X170290975Y-77671133D01*
X170231400Y-77970641D01*
X170231400Y-78029359D01*
X170345474Y-78602848D01*
X170670330Y-79089029D01*
X170941172Y-79270000D01*
X170670330Y-79450971D01*
X170345474Y-79937152D01*
X170231400Y-80510641D01*
X170231400Y-80569359D01*
X170345474Y-81142848D01*
X170670330Y-81629029D01*
X171156511Y-81953885D01*
X171730000Y-82067959D01*
X172303489Y-81953885D01*
X172789670Y-81629029D01*
X173005663Y-81305771D01*
X173063179Y-81428490D01*
X173495053Y-81822688D01*
X173910974Y-81994958D01*
X174143000Y-81873817D01*
X174143000Y-80667000D01*
X174123000Y-80667000D01*
X174123000Y-80413000D01*
X174143000Y-80413000D01*
X174143000Y-80393000D01*
X174397000Y-80393000D01*
X174397000Y-80413000D01*
X174417000Y-80413000D01*
X174417000Y-80667000D01*
X174397000Y-80667000D01*
X174397000Y-81873817D01*
X174629026Y-81994958D01*
X174941667Y-81865465D01*
X175084311Y-82210689D01*
X175387714Y-82514622D01*
X175784332Y-82679313D01*
X176213784Y-82679687D01*
X176610689Y-82515689D01*
X176914622Y-82212286D01*
X177079313Y-81815668D01*
X177079687Y-81386216D01*
X177071696Y-81366878D01*
X177085000Y-81300000D01*
X177085000Y-70291681D01*
X177214622Y-70162286D01*
X177349000Y-69838669D01*
X177349000Y-71529909D01*
X177445673Y-71763298D01*
X177624301Y-71941927D01*
X177857690Y-72038600D01*
X178110309Y-72038600D01*
X180142309Y-72038600D01*
X180375698Y-71941927D01*
X180554327Y-71763299D01*
X180651000Y-71529910D01*
X180651000Y-71277291D01*
X180651000Y-69550091D01*
X180554327Y-69316702D01*
X180375699Y-69138073D01*
X180178139Y-69056241D01*
X180350732Y-68902036D01*
X180604709Y-68374791D01*
X180607358Y-68359026D01*
X180486217Y-68127000D01*
X179127000Y-68127000D01*
X179127000Y-68147000D01*
X178873000Y-68147000D01*
X178873000Y-68127000D01*
X177513783Y-68127000D01*
X177392642Y-68359026D01*
X177395291Y-68374791D01*
X177649268Y-68902036D01*
X177821860Y-69056241D01*
X177624302Y-69138073D01*
X177445673Y-69316701D01*
X177379565Y-69476299D01*
X177379687Y-69336216D01*
X177215689Y-68939311D01*
X176912286Y-68635378D01*
X176515668Y-68470687D01*
X176086216Y-68470313D01*
X175689311Y-68634311D01*
X175385378Y-68937714D01*
X175220687Y-69334332D01*
X175220313Y-69763784D01*
X175384311Y-70160689D01*
X175515000Y-70291606D01*
X175515000Y-74648336D01*
X175329670Y-74370971D01*
X175155000Y-74254260D01*
X175155000Y-71820005D01*
X175155000Y-71820000D01*
X175155001Y-71820000D01*
X175098810Y-71537515D01*
X175087633Y-71481326D01*
X175087633Y-71481325D01*
X174929635Y-71244864D01*
X174929687Y-71186216D01*
X174765689Y-70789311D01*
X174462286Y-70485378D01*
X174065668Y-70320687D01*
X173636216Y-70320313D01*
X173239311Y-70484311D01*
X172935378Y-70787714D01*
X172770687Y-71184332D01*
X172770313Y-71613784D01*
X172934311Y-72010689D01*
X173237714Y-72314622D01*
X173385000Y-72375780D01*
X173385000Y-74254260D01*
X173210330Y-74370971D01*
X173196263Y-74392023D01*
X173131927Y-74236702D01*
X172953299Y-74058073D01*
X172719910Y-73961400D01*
X172515000Y-73961400D01*
X172515000Y-70811472D01*
X172764622Y-70562286D01*
X172929313Y-70165668D01*
X172929687Y-69736216D01*
X172765689Y-69339311D01*
X172462286Y-69035378D01*
X172065668Y-68870687D01*
X171636216Y-68870313D01*
X171239311Y-69034311D01*
X171185000Y-69088527D01*
X171185000Y-65720920D01*
X171560689Y-65565689D01*
X171864622Y-65262286D01*
X172029313Y-64865668D01*
X172029687Y-64436216D01*
X171865689Y-64039311D01*
X171562286Y-63735378D01*
X171387937Y-63662981D01*
X171750000Y-63735000D01*
X175100000Y-63735000D01*
X175515211Y-63652409D01*
X175515212Y-63652409D01*
X175867211Y-63417211D01*
X177017211Y-62267211D01*
X177252409Y-61915212D01*
X177252410Y-61915211D01*
X177335000Y-61500000D01*
X177335000Y-57862226D01*
X177430729Y-58343489D01*
X177755585Y-58829670D01*
X177777780Y-58844500D01*
X177624302Y-58908073D01*
X177445673Y-59086701D01*
X177349000Y-59320090D01*
X177349000Y-59572709D01*
X177349000Y-61299909D01*
X177445673Y-61533298D01*
X177624301Y-61711927D01*
X177857690Y-61808600D01*
X178110309Y-61808600D01*
X180142309Y-61808600D01*
X180375698Y-61711927D01*
X180554327Y-61533299D01*
X180651000Y-61299910D01*
X180651000Y-61047291D01*
X180651000Y-59320091D01*
X180554327Y-59086702D01*
X180375699Y-58908073D01*
X180222220Y-58844499D01*
X180244415Y-58829670D01*
X180569271Y-58343489D01*
X180683345Y-57770000D01*
X180683345Y-65460000D01*
X180569271Y-64886511D01*
X180244415Y-64400330D01*
X179758234Y-64075474D01*
X179184745Y-63961400D01*
X178815255Y-63961400D01*
X178241766Y-64075474D01*
X177755585Y-64400330D01*
X177430729Y-64886511D01*
X177316655Y-65460000D01*
X177430729Y-66033489D01*
X177755585Y-66519670D01*
X178065069Y-66726460D01*
X177649268Y-67097964D01*
X177395291Y-67625209D01*
X177392642Y-67640974D01*
X177513783Y-67873000D01*
X178873000Y-67873000D01*
X178873000Y-67853000D01*
X179127000Y-67853000D01*
X179127000Y-67873000D01*
X180486217Y-67873000D01*
X180607358Y-67640974D01*
X180604709Y-67625209D01*
X180350732Y-67097964D01*
X179934930Y-66726460D01*
X180244415Y-66519670D01*
X180569271Y-66033489D01*
X180683345Y-65460000D01*
X180683345Y-75460000D01*
X180569271Y-74886511D01*
X180244415Y-74400330D01*
X179758234Y-74075474D01*
X179184745Y-73961400D01*
X178815255Y-73961400D01*
X178241766Y-74075474D01*
X177755585Y-74400330D01*
X177430729Y-74886511D01*
X177316655Y-75460000D01*
X177430729Y-76033489D01*
X177755585Y-76519670D01*
X178065069Y-76726460D01*
X177649268Y-77097964D01*
X177395291Y-77625209D01*
X177392642Y-77640974D01*
X177513783Y-77873000D01*
X178873000Y-77873000D01*
X178873000Y-77853000D01*
X179127000Y-77853000D01*
X179127000Y-77873000D01*
X180486217Y-77873000D01*
X180607358Y-77640974D01*
X180604709Y-77625209D01*
X180350732Y-77097964D01*
X179934930Y-76726460D01*
X180244415Y-76519670D01*
X180569271Y-76033489D01*
X180683345Y-75460000D01*
X180683345Y-95315000D01*
X180651000Y-95315000D01*
X180651000Y-81529910D01*
X180651000Y-81277291D01*
X180651000Y-79550091D01*
X180554327Y-79316702D01*
X180375699Y-79138073D01*
X180178139Y-79056241D01*
X180350732Y-78902036D01*
X180604709Y-78374791D01*
X180607358Y-78359026D01*
X180486217Y-78127000D01*
X179127000Y-78127000D01*
X179127000Y-78147000D01*
X178873000Y-78147000D01*
X178873000Y-78127000D01*
X177513783Y-78127000D01*
X177392642Y-78359026D01*
X177395291Y-78374791D01*
X177649268Y-78902036D01*
X177821860Y-79056241D01*
X177624302Y-79138073D01*
X177445673Y-79316701D01*
X177349000Y-79550090D01*
X177349000Y-79802709D01*
X177349000Y-81529909D01*
X177445673Y-81763298D01*
X177624301Y-81941927D01*
X177857690Y-82038600D01*
X178110309Y-82038600D01*
X180142309Y-82038600D01*
X180375698Y-81941927D01*
X180554327Y-81763299D01*
X180651000Y-81529910D01*
X180651000Y-95315000D01*
X179333731Y-95315000D01*
X179333731Y-89935914D01*
X179333731Y-86535914D01*
X179131146Y-86045620D01*
X178756353Y-85670173D01*
X178266413Y-85466732D01*
X177735914Y-85466269D01*
X177245620Y-85668854D01*
X176870173Y-86043647D01*
X176666732Y-86533587D01*
X176666269Y-87064086D01*
X176868854Y-87554380D01*
X177243647Y-87929827D01*
X177733587Y-88133268D01*
X178264086Y-88133731D01*
X178754380Y-87931146D01*
X179129827Y-87556353D01*
X179333268Y-87066413D01*
X179333731Y-86535914D01*
X179333731Y-89935914D01*
X179131146Y-89445620D01*
X178756353Y-89070173D01*
X178266413Y-88866732D01*
X177735914Y-88866269D01*
X177245620Y-89068854D01*
X176870173Y-89443647D01*
X176666732Y-89933587D01*
X176666269Y-90464086D01*
X176868854Y-90954380D01*
X177243647Y-91329827D01*
X177733587Y-91533268D01*
X178264086Y-91533731D01*
X178754380Y-91331146D01*
X179129827Y-90956353D01*
X179333268Y-90466413D01*
X179333731Y-89935914D01*
X179333731Y-95315000D01*
X177170880Y-95315000D01*
X177170880Y-93010612D01*
X177162975Y-91949643D01*
X176772168Y-91006154D01*
X176398121Y-90781484D01*
X176218516Y-90961089D01*
X176218516Y-90601879D01*
X175993846Y-90227832D01*
X175010612Y-89829120D01*
X173949643Y-89837025D01*
X173006154Y-90227832D01*
X172781484Y-90601879D01*
X174500000Y-92320395D01*
X176218516Y-90601879D01*
X176218516Y-90961089D01*
X174679605Y-92500000D01*
X176398121Y-94218516D01*
X176772168Y-93993846D01*
X177170880Y-93010612D01*
X177170880Y-95315000D01*
X176218516Y-95315000D01*
X176218516Y-94398121D01*
X174500000Y-92679605D01*
X174320395Y-92859210D01*
X174320395Y-92500000D01*
X172601879Y-90781484D01*
X172227832Y-91006154D01*
X171829120Y-91989388D01*
X171837025Y-93050357D01*
X172227832Y-93993846D01*
X172601879Y-94218516D01*
X174320395Y-92500000D01*
X174320395Y-92859210D01*
X172781484Y-94398121D01*
X173006154Y-94772168D01*
X173989388Y-95170880D01*
X175050357Y-95162975D01*
X175993846Y-94772168D01*
X176218516Y-94398121D01*
X176218516Y-95315000D01*
X174098560Y-95315000D01*
X171496718Y-95293135D01*
X171496718Y-92278721D01*
X171485257Y-92022536D01*
X171485257Y-89155911D01*
X171259656Y-88609914D01*
X170850108Y-88199651D01*
X171258188Y-87792283D01*
X171484742Y-87246681D01*
X171485257Y-86655911D01*
X171259656Y-86109914D01*
X170842283Y-85691812D01*
X170296681Y-85465258D01*
X169705911Y-85464743D01*
X169159914Y-85690344D01*
X168741812Y-86107717D01*
X168515258Y-86653319D01*
X168514743Y-87244089D01*
X168740344Y-87790086D01*
X169149891Y-88200348D01*
X168741812Y-88607717D01*
X168515258Y-89153319D01*
X168514743Y-89744089D01*
X168740344Y-90290086D01*
X169157717Y-90708188D01*
X169242907Y-90743562D01*
X169215920Y-90754741D01*
X169135647Y-91006042D01*
X170000000Y-91870395D01*
X170864353Y-91006042D01*
X170784080Y-90754741D01*
X170755799Y-90744482D01*
X170840086Y-90709656D01*
X171258188Y-90292283D01*
X171484742Y-89746681D01*
X171485257Y-89155911D01*
X171485257Y-92022536D01*
X171470315Y-91688542D01*
X171295259Y-91265920D01*
X171043958Y-91185647D01*
X170179605Y-92050000D01*
X171043958Y-92914353D01*
X171295259Y-92834080D01*
X171496718Y-92278721D01*
X171496718Y-95293135D01*
X170864353Y-95287821D01*
X170864353Y-93093958D01*
X170000000Y-92229605D01*
X169820395Y-92409210D01*
X169820395Y-92050000D01*
X168956042Y-91185647D01*
X168704741Y-91265920D01*
X168503282Y-91821279D01*
X168529685Y-92411458D01*
X168704741Y-92834080D01*
X168956042Y-92914353D01*
X169820395Y-92050000D01*
X169820395Y-92409210D01*
X169135647Y-93093958D01*
X169215920Y-93345259D01*
X169771279Y-93546718D01*
X170361458Y-93520315D01*
X170784080Y-93345259D01*
X170864353Y-93093958D01*
X170864353Y-95287821D01*
X163348600Y-95224664D01*
X163348600Y-94142310D01*
X163348600Y-93889691D01*
X163348600Y-93285750D01*
X163348600Y-92714250D01*
X163348600Y-92110309D01*
X163348600Y-91857690D01*
X163251927Y-91624301D01*
X163073298Y-91445673D01*
X162839909Y-91349000D01*
X162135750Y-91349000D01*
X161977000Y-91507750D01*
X161977000Y-92873000D01*
X163189850Y-92873000D01*
X163348600Y-92714250D01*
X163348600Y-93285750D01*
X163189850Y-93127000D01*
X161977000Y-93127000D01*
X161977000Y-94492250D01*
X162135750Y-94651000D01*
X162839909Y-94651000D01*
X163073298Y-94554327D01*
X163251927Y-94375699D01*
X163348600Y-94142310D01*
X163348600Y-95224664D01*
X151563000Y-95125625D01*
X151563000Y-94486217D01*
X151563000Y-93127000D01*
X150490924Y-93127000D01*
X150349076Y-93127000D01*
X149277000Y-93127000D01*
X149277000Y-94486217D01*
X149509026Y-94607358D01*
X149524791Y-94604709D01*
X150052036Y-94350732D01*
X150420000Y-93938891D01*
X150787964Y-94350732D01*
X151315209Y-94604709D01*
X151330974Y-94607358D01*
X151563000Y-94486217D01*
X151563000Y-95125625D01*
X149023000Y-95104281D01*
X149023000Y-94486217D01*
X149023000Y-93127000D01*
X147809076Y-93127000D01*
X147664816Y-93361913D01*
X147858046Y-93914320D01*
X148247964Y-94350732D01*
X148775209Y-94604709D01*
X148790974Y-94607358D01*
X149023000Y-94486217D01*
X149023000Y-95104281D01*
X146525184Y-95083291D01*
X146525184Y-93361913D01*
X146380924Y-93127000D01*
X145167000Y-93127000D01*
X145167000Y-94486217D01*
X145399026Y-94607358D01*
X145414791Y-94604709D01*
X145942036Y-94350732D01*
X146331954Y-93914320D01*
X146525184Y-93361913D01*
X146525184Y-95083291D01*
X136525184Y-94999257D01*
X136525184Y-93361913D01*
X136525184Y-92638087D01*
X136331954Y-92085680D01*
X135942036Y-91649268D01*
X135414791Y-91395291D01*
X135399026Y-91392642D01*
X135167000Y-91513783D01*
X135167000Y-92873000D01*
X136380924Y-92873000D01*
X136525184Y-92638087D01*
X136525184Y-93361913D01*
X136380924Y-93127000D01*
X135167000Y-93127000D01*
X135167000Y-94486217D01*
X135399026Y-94607358D01*
X135414791Y-94604709D01*
X135942036Y-94350732D01*
X136331954Y-93914320D01*
X136525184Y-93361913D01*
X136525184Y-94999257D01*
X134913000Y-94985709D01*
X134913000Y-94486217D01*
X134913000Y-93127000D01*
X134893000Y-93127000D01*
X134893000Y-92873000D01*
X134913000Y-92873000D01*
X134913000Y-91513783D01*
X134680974Y-91392642D01*
X134665209Y-91395291D01*
X134137964Y-91649268D01*
X133766460Y-92065069D01*
X133559670Y-91755585D01*
X133073489Y-91430729D01*
X132500000Y-91316655D01*
X131926511Y-91430729D01*
X131440330Y-91755585D01*
X131425499Y-91777780D01*
X131361927Y-91624302D01*
X131183299Y-91445673D01*
X130949910Y-91349000D01*
X130697291Y-91349000D01*
X129155330Y-91349000D01*
X129155330Y-82872735D01*
X129155330Y-76372735D01*
X128865922Y-75672314D01*
X128330505Y-75135961D01*
X127630590Y-74845332D01*
X126872735Y-74844670D01*
X126172314Y-75134078D01*
X125635961Y-75669495D01*
X125345332Y-76369410D01*
X125344670Y-77127265D01*
X125634078Y-77827686D01*
X126169495Y-78364039D01*
X126869410Y-78654668D01*
X127627265Y-78655330D01*
X128327686Y-78365922D01*
X128864039Y-77830505D01*
X129154668Y-77130590D01*
X129155330Y-76372735D01*
X129155330Y-82872735D01*
X128865922Y-82172314D01*
X128330505Y-81635961D01*
X127630590Y-81345332D01*
X126872735Y-81344670D01*
X126172314Y-81634078D01*
X125635961Y-82169495D01*
X125345332Y-82869410D01*
X125344670Y-83627265D01*
X125634078Y-84327686D01*
X126169495Y-84864039D01*
X126869410Y-85154668D01*
X127627265Y-85155330D01*
X128327686Y-84865922D01*
X128864039Y-84330505D01*
X129154668Y-83630590D01*
X129155330Y-82872735D01*
X129155330Y-91349000D01*
X128970091Y-91349000D01*
X128736702Y-91445673D01*
X128558073Y-91624301D01*
X128461400Y-91857690D01*
X128461400Y-92110309D01*
X128461400Y-94142309D01*
X128558073Y-94375698D01*
X128736701Y-94554327D01*
X128970090Y-94651000D01*
X129222709Y-94651000D01*
X130949909Y-94651000D01*
X131183298Y-94554327D01*
X131361927Y-94375699D01*
X131425500Y-94222220D01*
X131440330Y-94244415D01*
X131926511Y-94569271D01*
X132500000Y-94683345D01*
X133073489Y-94569271D01*
X133559670Y-94244415D01*
X133766460Y-93934930D01*
X134137964Y-94350732D01*
X134665209Y-94604709D01*
X134680974Y-94607358D01*
X134913000Y-94486217D01*
X134913000Y-94985709D01*
X124664261Y-94899585D01*
X124664261Y-83578964D01*
X124664261Y-77078964D01*
X124651000Y-76572205D01*
X124651000Y-72412309D01*
X124651000Y-71555750D01*
X124492250Y-71397000D01*
X123127000Y-71397000D01*
X123127000Y-72762250D01*
X123285750Y-72921000D01*
X123889691Y-72921000D01*
X124142310Y-72921000D01*
X124375699Y-72824327D01*
X124554327Y-72645698D01*
X124651000Y-72412309D01*
X124651000Y-76572205D01*
X124644436Y-76321368D01*
X124392657Y-75713520D01*
X124097777Y-75581828D01*
X122929605Y-76750000D01*
X124097777Y-77918172D01*
X124392657Y-77786480D01*
X124664261Y-77078964D01*
X124664261Y-83578964D01*
X124644436Y-82821368D01*
X124392657Y-82213520D01*
X124097777Y-82081828D01*
X122929605Y-83250000D01*
X124097777Y-84418172D01*
X124392657Y-84286480D01*
X124664261Y-83578964D01*
X124664261Y-94899585D01*
X121685000Y-94874550D01*
X121685000Y-84828796D01*
X121713520Y-84892657D01*
X122421036Y-85164261D01*
X123178632Y-85144436D01*
X123786480Y-84892657D01*
X123918172Y-84597777D01*
X122750000Y-83429605D01*
X122735857Y-83443747D01*
X122556252Y-83264142D01*
X122570395Y-83250000D01*
X122556252Y-83235857D01*
X122735857Y-83056252D01*
X122750000Y-83070395D01*
X123918172Y-81902223D01*
X123786480Y-81607343D01*
X123078964Y-81335739D01*
X122321368Y-81355564D01*
X121713520Y-81607343D01*
X121685000Y-81671203D01*
X121685000Y-78328796D01*
X121713520Y-78392657D01*
X122421036Y-78664261D01*
X123178632Y-78644436D01*
X123786480Y-78392657D01*
X123918172Y-78097777D01*
X122750000Y-76929605D01*
X122735857Y-76943747D01*
X122556252Y-76764142D01*
X122570395Y-76750000D01*
X122556252Y-76735857D01*
X122735857Y-76556252D01*
X122750000Y-76570395D01*
X123918172Y-75402223D01*
X123786480Y-75107343D01*
X123078964Y-74835739D01*
X122321368Y-74855564D01*
X121713520Y-75107343D01*
X121685000Y-75171203D01*
X121685000Y-72849469D01*
X121857690Y-72921000D01*
X122110309Y-72921000D01*
X122714250Y-72921000D01*
X122873000Y-72762250D01*
X122873000Y-71397000D01*
X122853000Y-71397000D01*
X122853000Y-71143000D01*
X122873000Y-71143000D01*
X122873000Y-71123000D01*
X123127000Y-71123000D01*
X123127000Y-71143000D01*
X124492250Y-71143000D01*
X124651000Y-70984250D01*
X124651000Y-70127691D01*
X124554327Y-69894302D01*
X124375699Y-69715673D01*
X124324628Y-69694518D01*
X124525325Y-69394155D01*
X124651000Y-68762345D01*
X124651000Y-68697655D01*
X124525325Y-68065845D01*
X124167433Y-67530222D01*
X123631810Y-67172330D01*
X123000000Y-67046655D01*
X122368190Y-67172330D01*
X121832567Y-67530222D01*
X121685000Y-67751071D01*
X121685000Y-49390440D01*
X121727832Y-49493846D01*
X122101879Y-49718516D01*
X123820395Y-48000000D01*
X122101879Y-46281484D01*
X121727832Y-46506154D01*
X121685000Y-46611778D01*
X121685000Y-46500000D01*
X121685000Y-45685000D01*
X122609559Y-45685000D01*
X122506154Y-45727832D01*
X122281484Y-46101879D01*
X124000000Y-47820395D01*
X125718516Y-46101879D01*
X125493846Y-45727832D01*
X125388221Y-45685000D01*
X156109559Y-45685000D01*
X156006154Y-45727832D01*
X155781484Y-46101879D01*
X157500000Y-47820395D01*
X159218516Y-46101879D01*
X158993846Y-45727832D01*
X158888221Y-45685000D01*
X180815000Y-45685000D01*
X180815000Y-95315000D01*
M02*
